<svg width="24" height="24" viewBox="0 0 24 24" fill="none" xmlns="http://www.w3.org/2000/svg">
<path fill-rule="evenodd" clip-rule="evenodd" d="M12 3C10.8181 3 9.6478 3.2328 8.5558 3.6851C7.4639 4.1374 6.4718 4.8003 5.636 5.636C4.8003 6.4718 4.1374 7.4639 3.6851 8.5558C3.2328 9.6478 3 10.8181 3 12C3 13.1819 3.2328 14.3522 3.6851 15.4441C4.1374 16.5361 4.8003 17.5282 5.636 18.364C6.4718 19.1997 7.4639 19.8626 8.5558 20.3149C9.6478 20.7672 10.8181 21 12 21C14.387 21 16.6761 20.0518 18.364 18.364C20.0518 16.6761 21 14.387 21 12C21 9.6131 20.0518 7.3239 18.364 5.636C16.6761 3.9482 14.387 3 12 3ZM14.293 10.293C14.4816 10.1108 14.7342 10.01 14.9964 10.0123C15.2586 10.0146 15.5094 10.1198 15.6948 10.3052C15.8802 10.4906 15.9854 10.7414 15.9877 11.0036C15.99 11.2658 15.8892 11.5184 15.707 11.707L12.707 14.707C12.5195 14.8945 12.2652 14.9998 12 14.9998C11.7348 14.9998 11.4805 14.8945 11.293 14.707L8.293 11.707C8.1108 11.5184 8.01 11.2658 8.0123 11.0036C8.0146 10.7414 8.1198 10.4906 8.3052 10.3052C8.4906 10.1198 8.7414 10.0146 9.0036 10.0123C9.2658 10.01 9.5184 10.1108 9.707 10.293L12 12.586L14.293 10.293Z" fill="#255946"/>
</svg>
