<svg width="360" height="456" viewBox="0 0 360 456" fill="none" xmlns="http://www.w3.org/2000/svg">
<g clip-path="url(#clip0_1048_1444)">
<mask id="mask0_1048_1444" style="mask-type:luminance" maskUnits="userSpaceOnUse" x="0" y="0" width="360" height="456">
<path d="M360 0H0V456H360V0Z" fill="white"/>
</mask>
<g mask="url(#mask0_1048_1444)">
<path d="M360 0H0V456H360V0Z" fill="#FFC700"/>
<path d="M78.0071 323.026L96.2916 437.512C97.508 445.654 94.0316 445.901 88.8438 447.237L31.8899 462.781C27.1733 464.176 27.0197 461.42 25.4773 458.626L-16.7954 351.52L78.0071 323.026Z" fill="#FFC700" stroke="white" stroke-width="2.66675" stroke-miterlimit="22.9256" stroke-linecap="round" stroke-linejoin="round"/>
<path d="M83.5569 356.337C53.532 363.464 23.5071 370.591 -6.5249 377.545L20.7269 446.592L94.3904 424.871L83.5569 356.337Z" fill="#FFC700" stroke="white" stroke-width="2.66675" stroke-miterlimit="22.9256" stroke-linecap="round" stroke-linejoin="round"/>
<path d="M82.3099 326.478C82.4681 321.976 79.9459 319.66 75.4846 320.711C75.7152 317.935 75.9241 314.641 73.762 312.657C71.7801 310.837 68.854 311.305 66.0933 311.592C43.722 315.288 21.7691 320.697 0.219875 327.471C-2.51863 328.276 -5.25044 329.254 -7.80136 330.398C-10.0142 331.355 -12.2049 332.829 -13.5024 334.958C-14.6265 337.079 -14.4969 340.186 -12.3635 341.48C-14.7346 342.789 -16.2984 342.682 -17.409 345.148C-18.5259 347.443 -18.1444 352.441 -15.535 352.678C-14.8361 352.822 -14.1509 352.62 -13.4668 352.419C16.0102 344.623 47.9526 337.762 78.064 332.706C81.5099 332.216 82.1223 330.289 82.3095 326.477L82.3099 326.478Z" fill="#FFC700" stroke="white" stroke-width="2.66675" stroke-miterlimit="22.9256" stroke-linecap="round" stroke-linejoin="round"/>
<path d="M75.2968 320.373C75.2968 320.373 73.9128 320.431 71.4986 320.704C69.0843 320.978 65.6317 321.294 61.4948 321.811C57.3577 322.329 52.5365 323.048 47.5491 323.947C42.3883 324.853 37.0696 326.112 31.7508 327.37C26.4392 328.801 21.1275 330.233 16.1619 331.649C11.1961 333.066 6.58345 334.641 2.83555 336.18C-1.09196 337.553 -4.32866 338.898 -6.54822 339.682C-8.76108 340.639 -10.1226 341.214 -10.1226 341.214C-10.1226 341.214 -8.7529 340.812 -6.53376 340.028C-4.31357 339.244 -0.890746 338.237 3.04473 337.036C4.92559 336.439 7.15291 335.827 9.37268 335.043C11.6 334.432 13.9926 333.641 16.5658 333.015C21.5316 331.599 26.8433 330.168 32.1618 328.909C37.4808 327.65 42.7996 326.391 47.953 325.313C50.5334 324.86 52.9333 324.241 55.1677 323.802C57.4024 323.364 59.6362 322.925 61.6973 322.493C65.827 321.802 69.0918 321.148 71.4988 320.702C73.9204 320.603 75.2968 320.373 75.2968 320.373Z" fill="#FFC700" stroke="white" stroke-width="2.66675" stroke-miterlimit="22.9256" stroke-linecap="round" stroke-linejoin="round"/>
<path d="M53.1435 377.554C57.4895 379.901 60.9354 384.009 63.1858 388.346C65.4697 392.854 66.7616 397.728 67.7123 402.668C68.5647 407.097 68.9049 411.623 67.7815 415.901C66.487 420.211 63.3543 424.168 58.8831 424.848C56.4934 425.306 53.2634 424.159 52.9745 421.741C52.7522 419.665 54.5385 417.909 55.6085 416.115C57.8152 412.866 57.8163 408.273 55.6244 405.161C54.3117 402.94 52.0737 401.426 51.1023 399.14C49.7311 395.694 51.0912 391.723 52.5497 388.265C53.8376 384.839 54.7581 380.423 53.1435 377.554Z" fill="#FFC700" stroke="white" stroke-width="2.66675" stroke-miterlimit="22.9256" stroke-linecap="round" stroke-linejoin="round"/>
<path d="M47.7601 377.173C50.2606 380.049 48.9988 384.53 47.403 388.191C45.7736 391.683 43.8689 395.58 45.2729 399.197C46.7095 402.984 51.3311 404.924 52.0852 408.842C52.7411 412.249 50.0222 415.595 49.9954 419.133C49.9162 420.561 50.4146 422.232 49.9615 423.555C49.2973 425.625 46.6975 426.83 44.4851 426.371C42.2726 425.912 40.4083 424.503 38.853 422.859C33.5757 417.512 30.19 410.036 29.5348 402.037C29.2602 397.851 29.3271 393.599 30.3457 389.695C31.3316 385.62 33.2366 381.722 36.4607 379.162C39.855 376.568 45.2264 374.126 47.7601 377.173Z" fill="#FFC700" stroke="white" stroke-width="2.66675" stroke-miterlimit="22.9256" stroke-linecap="round" stroke-linejoin="round"/>
<path d="M404.541 60.8642C399.975 52.0107 390.272 46.5872 380.291 44.9662C370.308 43.3469 360.014 45.0637 350.137 47.5425C332.314 52.0176 314.644 59.2857 301.372 71.9696C294.237 78.7891 288.371 87.4854 287.33 97.1594C286.512 104.759 288.846 112.586 293.681 118.454C298.515 124.321 305.792 128.158 313.477 128.891C324.182 129.91 334.602 125.192 344.399 120.59C352.927 116.586 361.453 112.581 369.98 108.576C377.16 105.203 384.382 101.806 390.869 97.2493C397.355 92.691 403.134 86.8625 406.44 79.7311C409.125 73.9419 408.25 68.0549 404.541 60.8642Z" fill="#FFC700" stroke="white" stroke-width="2.66675" stroke-miterlimit="10" stroke-linecap="round" stroke-linejoin="round"/>
<path d="M399.52 49.722C401.707 51.9495 404.009 54.3913 404.504 57.4677C405 60.5434 402.635 64.1806 399.586 63.6654C397.881 63.3774 396.471 61.9175 394.746 61.852C392.54 61.7661 390.949 64.0057 390.466 66.1684C389.982 68.3308 390.165 70.6487 389.397 72.7218C387.699 77.3045 382.17 78.9794 377.31 79.3379C372.451 79.6952 367.166 79.4537 363.236 82.3016C357.373 86.5476 356.424 96.4032 349.54 98.6633C343.831 100.537 337.546 95.7722 331.708 97.2096C328.53 97.9914 326.088 100.488 324.086 103.078C322.083 105.67 320.293 108.51 317.679 110.471C315.066 112.431 311.306 113.319 308.488 111.573C306.024 110.048 304.618 106.781 301.798 106.195C298.458 105.502 295.644 109.075 292.246 109.108C289.58 109.133 287.268 106.85 286.458 104.276C285.648 101.702 286.038 98.9243 286.659 96.3209C288.918 86.8404 294.122 78.2738 300.759 71.2429C307.396 64.213 315.436 58.6479 323.894 53.9878C335.587 47.5457 348.344 42.7128 361.68 41.4326C375.016 40.1533 390.595 40.6355 399.521 49.7222L399.52 49.722Z" fill="#FFC700" stroke="white" stroke-width="2.66675" stroke-miterlimit="10" stroke-linecap="round" stroke-linejoin="round"/>
<path d="M357.454 62.6273C357.454 62.6273 356.817 62.658 355.711 62.7523C355.158 62.7971 354.487 62.8685 353.72 62.9912C352.949 63.0958 352.079 63.2269 351.149 63.4317C349.268 63.7804 347.111 64.3604 344.834 65.0913C343.709 65.4945 342.524 65.8594 341.371 66.3594C340.201 66.8193 339.044 67.3576 337.875 67.8735C336.739 68.455 335.594 69.0191 334.5 69.6387C333.385 70.2163 332.359 70.9121 331.337 71.5319C329.336 72.8418 327.53 74.1516 326.079 75.395C325.335 75.9899 324.689 76.5804 324.124 77.1136C323.55 77.6306 323.07 78.1077 322.687 78.5117C321.915 79.3137 321.494 79.7878 321.494 79.7878C321.494 79.7878 322.054 79.4799 323.003 78.9105C323.949 78.3513 325.301 77.5521 326.925 76.5945C327.736 76.1286 328.615 75.6246 329.545 75.0918C330.467 74.5506 331.479 74.048 332.486 73.4667C334.546 72.383 336.738 71.231 338.98 70.1758C341.209 69.0964 343.481 68.1108 345.62 67.1928C346.706 66.7757 347.733 66.3038 348.734 65.9266C349.733 65.5394 350.679 65.1725 351.552 64.8346C353.317 64.1771 354.789 63.6294 355.819 63.2464C356.863 62.8665 357.454 62.6273 357.454 62.6273Z" fill="white"/>
<path d="M344.97 80.3801C346.51 78.7307 348.274 77.236 350.196 75.953C351.062 75.3756 352.434 74.8931 352.838 75.6323C353.188 76.2714 352.365 77.0922 351.643 77.6269C349.097 79.5127 346.328 82.7967 344.855 82.8184C343.655 82.8376 344.249 81.152 344.97 80.3801Z" fill="white"/>
<path d="M329.533 63.2821C327.297 63.2053 325.052 62.8562 322.885 62.2485C321.909 61.9749 320.712 61.2542 321.07 60.4599C321.379 59.7719 322.526 59.8532 323.381 60.0478C326.403 60.7293 330.682 60.6574 331.567 61.7582C332.288 62.6546 330.581 63.3179 329.533 63.2821Z" fill="white"/>
<path d="M303.005 96.9902C301.979 95.103 301.188 93.0553 300.662 90.9263C300.425 89.967 300.471 88.5714 301.344 88.4155C302.098 88.282 302.588 89.2721 302.837 90.0874C303.714 92.9629 305.869 96.4494 305.337 97.8034C304.903 98.9052 303.485 97.8732 303.004 96.9902H303.005Z" fill="white"/>
<path d="M319.899 95.4747C319.505 93.3533 319.382 91.1428 319.532 88.9285C319.6 87.9305 320.069 86.5916 320.936 86.6902C321.689 86.7749 321.849 87.8739 321.836 88.7351C321.79 91.773 322.762 95.7672 321.85 96.9267C321.106 97.8718 320.084 96.4672 319.899 95.4747Z" fill="white"/>
<path d="M306.997 72.1032C309.222 71.718 311.513 71.5937 313.785 71.7355C314.808 71.7996 316.148 72.2507 315.969 73.0926C315.813 73.8232 314.664 73.9794 313.778 73.9687C310.647 73.929 306.438 74.8792 305.324 73.9964C304.415 73.277 305.956 72.2836 306.997 72.1032Z" fill="white"/>
<path d="M356.172 46.8952C357.804 48.314 359.266 49.9572 360.504 51.7625C361.061 52.5759 361.496 53.8853 360.714 54.3107C360.037 54.6801 359.229 53.9189 358.71 53.2439C356.878 50.86 353.613 48.3239 353.658 46.8956C353.694 45.7319 355.407 46.2315 356.172 46.8952Z" fill="white"/>
<path d="M330.58 91.0057C331.489 88.9783 332.665 87.0222 334.066 85.2122C334.696 84.3957 335.847 83.5061 336.487 84.0607C337.042 84.541 336.536 85.568 336.029 86.2974C334.237 88.8695 332.711 92.8097 331.307 93.3053C330.164 93.7095 330.153 91.9541 330.58 91.0057Z" fill="white"/>
<path d="M313.831 85.3857C311.59 85.3681 309.334 85.0796 307.149 84.5311C306.163 84.2833 304.945 83.5957 305.281 82.793C305.571 82.098 306.72 82.1499 307.583 82.3196C310.626 82.9205 314.908 82.7342 315.824 83.8092C316.572 84.6853 314.881 85.3944 313.832 85.3857H313.831Z" fill="white"/>
<path d="M344.533 51.8096C342.993 53.459 341.228 54.9538 339.308 56.237C338.441 56.8139 337.069 57.2966 336.665 56.5577C336.315 55.9183 337.138 55.0975 337.86 54.5626C340.406 52.677 343.176 49.3929 344.648 49.3713C345.848 49.3519 345.254 51.0376 344.533 51.8096Z" fill="white"/>
<path d="M-44.4984 44.9514C-19.1152 67.8904 15.8159 79.8228 49.9972 77.5372C50.9899 77.4234 51.9963 77.4337 52.9217 77.8294C54.6626 78.7592 54.7123 81.3886 54.0569 83.3456C52.1149 88.3361 47.0639 91.4244 41.7712 92.4076C36.6024 93.3764 31.2353 92.611 25.9637 91.584C4.40899 87.7804 -17.4401 82.505 -36.0961 71.0914C-40.6983 68.2309 -45.3571 64.875 -47.9101 60.1489C-50.3386 55.4078 -50.3328 48.8823 -44.4984 44.9514Z" fill="#FFC700" stroke="white" stroke-width="2.66675" stroke-miterlimit="22.9256" stroke-linecap="round" stroke-linejoin="round"/>
<path d="M51.6279 78.6086C54.5062 77.4004 54.7681 73.104 52.8422 70.564C50.9309 68.148 47.6732 67.1408 44.6771 66.2292C18.0341 58.6168 -8.48437 50.9895 -35.0031 43.3628C-38.2471 42.4797 -42.345 41.8199 -44.1561 44.6625C-45.2265 46.291 -44.8466 48.5063 -43.7935 50.0167C-42.7261 51.651 -41.2048 52.8573 -39.6983 53.9389C-19.9992 67.8686 2.92512 77.0369 26.7131 80.5848C35.1575 81.876 43.6942 81.7764 51.6279 78.6086Z" fill="#FFC700" stroke="white" stroke-width="2.66675" stroke-miterlimit="22.9256" stroke-linecap="round" stroke-linejoin="round"/>
<path d="M-37.369 36.9859C-39.379 38.0946 -41.4985 39.3414 -42.9269 41.1362C-44.3554 42.9315 -45.0638 45.5219 -44.202 47.5565C-42.535 51.1302 -37.625 51.1945 -33.6123 51.1111C-20.3182 50.8426 -7.06224 55.7232 2.86905 64.4981C7.88961 68.8167 12.8184 74.5259 19.4795 74.5153C23.7549 74.527 27.4983 72.0905 31.3407 70.5209C36.7535 68.3948 42.7375 67.9598 48.4243 69.3162C51.1435 70.0086 54.6215 70.7392 56.3793 68.5302C57.5735 66.8876 56.9176 64.4529 55.6159 62.9711C54.1905 61.5031 52.2296 60.8494 50.2695 60.1956C21.744 50.4143 -6.89132 40.7712 -37.369 36.9859Z" fill="#FFC700" stroke="white" stroke-width="2.66675" stroke-miterlimit="22.9256" stroke-linecap="round" stroke-linejoin="round"/>
<path d="M9.75383 45.6431C-2.42167 38.1293 -16.0494 33.2913 -30.2198 31.4012C-31.7512 31.2002 -33.407 31.0134 -34.8675 31.432C-36.3281 31.8505 -37.7033 33.0119 -37.9053 34.5409C-38.1215 35.9458 -37.2063 37.3467 -35.9762 38.2097C-34.746 39.0728 -33.3241 39.4117 -32.0123 39.8888C-19.1606 43.4351 -6.19912 46.8438 6.73366 50.0046C7.76904 50.2625 8.80394 50.5204 9.76823 50.1585C10.623 49.9353 11.5162 48.9549 9.75383 45.6431Z" fill="#FFC700" stroke="white" stroke-width="2.66675" stroke-miterlimit="22.9256" stroke-linecap="round" stroke-linejoin="round"/>
<path d="M43.1458 53.9899C31.9744 49.7487 20.3107 46.6935 8.55455 45.029C6.76082 44.7328 4.37488 44.7549 3.5525 46.3556C2.92146 47.4318 3.46433 48.8755 4.32245 49.7806C5.18085 50.6863 6.36845 51.1778 7.55591 51.6691C17.0434 55.4759 26.8177 58.4967 36.8754 59.603C38.407 59.804 39.9243 59.8811 41.3848 59.4628C42.8453 59.0443 44.2205 57.8829 44.4225 56.3538C44.6387 54.948 43.3229 53.3422 43.1458 53.9899Z" fill="#FFC700" stroke="white" stroke-width="2.66675" stroke-miterlimit="22.9256" stroke-linecap="round" stroke-linejoin="round"/>
<path d="M57.9708 57.1857C48.9303 55.0843 39.6275 52.8878 30.35 54.202C28.9854 54.3585 27.4147 54.915 27.3229 56.3057C27.3122 57.3111 28.1422 57.9687 28.9573 58.5028C36.5448 63.2801 45.9395 64.0858 54.9299 63.5574C56.0607 63.5535 57.3016 63.4111 58.3754 62.9115C59.4494 62.4119 60.3427 61.4311 60.325 60.1782C60.4457 59.035 59.3927 57.5245 57.9708 57.1857Z" fill="#FFC700" stroke="white" stroke-width="2.66675" stroke-miterlimit="22.9256" stroke-linecap="round" stroke-linejoin="round"/>
<path d="M-37.6925 23.2266C-40.7235 24.2015 -43.9738 25.4522 -45.9519 27.9379C-47.9298 30.4234 -47.9289 34.8148 -45.1105 36.3741C-40.8274 38.644 -35.8692 32.5546 -31.0794 33.7622C-27.2006 34.6977 -25.7356 39.8004 -21.9527 40.9982C-17.7975 42.1533 -14.0049 37.9542 -9.74428 37.8425C-3.73183 37.6554 -0.355453 45.1735 5.3875 47.0251C10.5919 48.562 16.7457 45.2218 21.3336 47.9584C25.2443 50.2708 26.8086 56.2398 31.4032 56.8429C33.6936 57.0823 35.9374 55.8216 38.2948 55.5514C41.1626 55.3485 43.8572 56.9215 46.1654 58.4141C50.7676 61.2748 55.3553 64.0113 59.9575 66.872C60.4964 67.1868 61.1733 67.6109 61.7939 67.5398C63.1584 67.3835 63.4704 65.7165 63.4381 64.34C63.0861 57.9808 59.1645 52.282 54.2007 48.4588C49.2227 44.5119 43.2985 42.1794 37.2643 39.9851C13.6907 30.6393 -12.5241 14.6957 -37.6925 23.2266Z" fill="#FFC700" stroke="white" stroke-width="2.66675" stroke-miterlimit="22.9256" stroke-linecap="round" stroke-linejoin="round"/>
<path d="M-39.9673 24.2461C-4.32362 34.7166 24.0307 43.0102 59.1499 53.2898C63.8849 46.3482 63.4118 36.7409 59.4292 29.4183C55.5567 21.9573 48.6574 16.6001 41.2795 12.5521C27.8641 5.18111 12.1587 1.9618 -3.13042 3.46286C-18.5442 4.9782 -33.9422 15.4002 -39.9673 24.2461Z" fill="#FFC700" stroke="white" stroke-width="2.66675" stroke-miterlimit="22.9256" stroke-linecap="round" stroke-linejoin="round"/>
<path d="M39.001 15.7077C40.3837 16.8039 41.5465 18.1759 42.3652 19.8382C42.532 20.1956 42.7125 20.6763 42.6456 21.1856C42.3726 22.095 41.132 22.2372 40.4407 21.6891C39.7493 21.141 39.5116 20.1645 39.5365 19.2837C39.4233 18.2933 39.434 17.2887 39.001 15.7077Z" fill="white"/>
<path d="M29.7929 13.2487C28.7514 15.1239 28.2347 17.1904 28.3517 19.3089C28.3944 19.6805 28.4369 20.0521 28.6037 20.4089C28.7706 20.7662 29.1706 20.9712 29.5286 20.8045C30.0103 20.6237 30.1877 19.9761 30.1169 19.3575C30.304 17.7056 30.2438 16.0823 29.7929 13.2487Z" fill="white"/>
<path d="M17.554 11.7632C16.5229 12.6343 15.6722 13.9857 15.3183 15.2808C15.1414 15.9282 15.1308 16.9332 15.9179 17.2189C16.4423 17.4096 16.9103 17.1052 17.2395 16.6911C17.5691 16.2769 17.6361 15.7676 17.7035 15.2583C17.7953 13.8681 18.0114 12.4631 17.554 11.7632Z" fill="white"/>
<path d="M6.01058 11.9551C4.68888 12.483 3.65727 13.3536 3.05514 14.6771C2.86389 15.2006 2.68677 15.8482 2.99175 16.3154C3.43511 16.8918 4.42719 16.7781 4.99053 16.2119C5.55418 15.6458 5.71686 14.8741 5.89396 14.2266C5.94723 13.5929 6.23436 12.8075 6.01058 11.9551Z" fill="white"/>
<path d="M48.2036 24.6895C48.7321 26.0086 49.5087 27.2998 50.2711 28.467C50.5618 28.8103 50.7287 29.1676 51.1294 29.3723C51.53 29.5773 52.0262 29.5206 52.2458 29.2444C52.5756 28.8302 52.3803 28.2252 52.1997 27.7445C51.2988 26.4674 50.1501 25.2193 48.2036 24.6895Z" fill="white"/>
<path d="M34.9443 23.0703C35.0331 24.9418 35.3561 26.6611 35.817 28.4899C35.9838 28.8472 36.0408 29.3423 36.3313 29.6854C36.622 30.0286 37.0225 30.2335 37.5187 30.1765C38.249 29.9672 38.3834 28.9487 38.174 28.2198C37.7273 26.5144 36.7981 24.9905 34.9443 23.0703Z" fill="white"/>
<path d="M21.3896 19.9795C20.9256 21.4124 20.8478 22.9265 21.2662 24.3838C21.4473 24.8646 21.7804 25.5793 22.2907 25.6461C22.8009 25.7134 23.2547 25.2848 23.4458 24.7608C23.637 24.2367 23.4565 23.7559 23.3998 23.2609C22.9814 21.8039 22.7153 20.5804 21.3896 19.9795Z" fill="white"/>
<path d="M8.63632 17.2983C7.72905 18.155 7.09849 19.2306 6.72982 20.4017C6.64811 20.7874 6.58104 21.2967 6.87171 21.6399C7.17656 22.1066 7.94947 22.2694 8.54148 21.9502C9.00911 21.6458 9.3104 20.984 9.36363 20.3507C9.29221 19.7317 9.09753 19.1271 8.63632 17.2983Z" fill="white"/>
<path d="M318.126 322.293C311.291 315.445 311.291 304.343 318.126 297.495C324.96 290.647 336.04 290.647 342.874 297.495C349.709 304.343 349.709 315.445 342.874 322.293L330.5 309.894L318.126 322.293Z" stroke="white" stroke-width="2.66675" stroke-miterlimit="10"/>
<path d="M301 25.8177C294.137 32.6371 283.01 32.6371 276.147 25.8177C269.284 18.9984 269.284 7.94258 276.147 1.12327C283.01 -5.69604 294.137 -5.69604 301 1.12327L288.574 13.4704L301 25.8177Z" stroke="white" stroke-width="2.66675" stroke-miterlimit="10"/>
<path d="M43.8743 220.516C50.7086 227.364 50.7086 238.467 43.8743 245.315C37.04 252.163 25.96 252.163 19.1257 245.315C12.2914 238.467 12.2914 227.364 19.1257 220.516L31.4999 232.916L43.8743 220.516Z" stroke="white" stroke-width="2.66675" stroke-miterlimit="10"/>
<path d="M28.3491 177.064C29.9452 178.468 32.3795 178.315 33.7863 176.722C35.1931 175.13 35.0396 172.701 33.4435 171.297C31.8474 169.893 29.4131 170.046 28.0064 171.639C26.5996 173.232 26.753 175.661 28.3491 177.064Z" stroke="white" stroke-width="1.91184" stroke-miterlimit="22.9256"/>
<path d="M135.384 24.797C137.503 24.9903 139.378 23.4333 139.571 21.3192C139.765 19.2051 138.205 17.3345 136.086 17.1412C133.967 16.9479 132.093 18.5049 131.899 20.619C131.705 22.7331 133.266 24.6036 135.384 24.797Z" stroke="white" stroke-width="1.91184" stroke-miterlimit="22.9256"/>
<path d="M335.836 17.984C337.955 18.1773 339.83 16.6203 340.023 14.5062C340.217 12.3921 338.657 10.5216 336.538 10.3282C334.419 10.1349 332.545 11.6919 332.351 13.806C332.157 15.9201 333.718 17.7906 335.836 17.984Z" stroke="white" stroke-width="1.91184" stroke-miterlimit="22.9256"/>
<path d="M347.836 447.043C349.955 447.236 351.83 445.679 352.023 443.565C352.217 441.451 350.657 439.581 348.538 439.387C346.419 439.194 344.545 440.751 344.351 442.865C344.157 444.979 345.718 446.85 347.836 447.043Z" stroke="white" stroke-width="1.91184" stroke-miterlimit="22.9256"/>
<path d="M17.3144 284.182C15.4839 285.264 14.879 287.622 15.9633 289.448C17.0476 291.275 19.4106 291.878 21.2411 290.796C23.0716 289.714 23.6765 287.357 22.5922 285.53C21.5079 283.704 19.1449 283.1 17.3144 284.182Z" stroke="white" stroke-width="1.91184" stroke-miterlimit="22.9256"/>
<path d="M5.3177 141.487C6.0454 142.127 7.15528 142.057 7.79667 141.331C8.43807 140.604 8.3681 139.497 7.64039 138.857C6.91269 138.217 5.80282 138.287 5.16143 139.013C4.52003 139.739 4.59 140.847 5.3177 141.487Z" fill="white"/>
<path d="M95.7489 9.63705C96.7149 9.72521 97.5696 9.01529 97.6579 8.05142C97.7463 7.08755 97.0348 6.23471 96.0688 6.14656C95.1028 6.05841 94.2481 6.76832 94.1598 7.73219C94.0714 8.69607 94.7829 9.5489 95.7489 9.63705Z" fill="white"/>
<path d="M343.749 344.902C344.715 344.99 345.57 344.28 345.658 343.316C345.746 342.352 345.035 341.499 344.069 341.411C343.103 341.323 342.248 342.033 342.16 342.997C342.072 343.961 342.783 344.813 343.749 344.902Z" fill="white"/>
<path d="M345.749 269.068C346.715 269.156 347.57 268.446 347.658 267.482C347.746 266.519 347.035 265.666 346.069 265.578C345.103 265.489 344.248 266.199 344.16 267.163C344.072 268.127 344.783 268.98 345.749 269.068Z" fill="white"/>
<path d="M235.749 17.6194C236.715 17.7076 237.57 16.9977 237.658 16.0338C237.746 15.0699 237.035 14.2171 236.069 14.129C235.103 14.0408 234.248 14.7507 234.16 15.7146C234.072 16.6785 234.783 17.5313 235.749 17.6194Z" fill="white"/>
<path d="M58.3361 273.296C57.5015 273.789 57.2257 274.864 57.7201 275.697C58.2145 276.53 59.2918 276.805 60.1264 276.312C60.961 275.818 61.2368 274.743 60.7424 273.911C60.248 273.078 59.1707 272.803 58.3361 273.296Z" fill="white"/>
<path d="M341.723 202.571C342.978 203.675 344.891 203.554 345.997 202.302C347.103 201.05 346.983 199.141 345.728 198.037C344.473 196.934 342.56 197.054 341.454 198.306C340.348 199.558 340.468 201.468 341.723 202.571Z" stroke="white" stroke-width="1.91184" stroke-miterlimit="22.9256"/>
<path d="M322.036 244.42C322.608 244.923 323.48 244.868 323.985 244.297C324.489 243.727 324.434 242.856 323.862 242.353C323.29 241.85 322.417 241.905 321.913 242.475C321.409 243.046 321.464 243.917 322.036 244.42Z" fill="white"/>
<path d="M323.617 174.602C324.189 175.105 325.061 175.05 325.566 174.479C326.07 173.908 326.015 173.038 325.443 172.535C324.871 172.031 323.998 172.086 323.494 172.657C322.99 173.228 323.045 174.099 323.617 174.602Z" fill="white"/>
</g>
</g>
<defs>
<clipPath id="clip0_1048_1444">
<rect width="360" height="456" fill="white"/>
</clipPath>
</defs>
</svg>
