<svg width="360" height="456" viewBox="0 0 360 456" fill="none" xmlns="http://www.w3.org/2000/svg">
<g clip-path="url(#clip0_1297_3495)">
<path d="M206.558 248.426C301.636 228.216 368.1 161.909 355.01 100.324C341.92 38.7398 254.232 5.19858 159.154 25.408C64.076 45.6175 -2.38828 111.925 10.7019 173.509C23.7921 235.094 111.48 268.635 206.558 248.426Z" fill="white"/>
<path d="M58.8708 184.384C59.7388 185.038 60.1728 185.943 60.1728 187.1C60.1728 188.258 59.7388 189.163 58.8708 189.816C58.0121 190.47 56.8735 190.829 55.4548 190.894V192H54.4748V190.894C53.0561 190.829 51.9128 190.47 51.0448 189.816C50.1861 189.163 49.7568 188.258 49.7568 187.1C49.7568 185.943 50.1861 185.038 51.0448 184.384C51.9128 183.731 53.0561 183.372 54.4748 183.306V182.2H55.4548V183.306C56.8735 183.372 58.0121 183.731 58.8708 184.384ZM51.7448 185.028C51.0728 185.514 50.7368 186.204 50.7368 187.1C50.7368 187.996 51.0728 188.692 51.7448 189.186C52.4168 189.672 53.3268 189.942 54.4748 189.998V184.202C53.3268 184.258 52.4168 184.534 51.7448 185.028ZM55.4548 189.998C56.6028 189.942 57.5128 189.672 58.1848 189.186C58.8568 188.692 59.1928 187.996 59.1928 187.1C59.1928 186.204 58.8568 185.514 58.1848 185.028C57.5128 184.534 56.6028 184.258 55.4548 184.202V189.998ZM62.6888 191.076H67.4488V192H61.7088V182.2H67.3788V183.124H62.6888V186.596H67.0288V187.52H62.6888V191.076ZM73.6422 192.168C72.1582 192.168 70.9309 191.678 69.9602 190.698C68.9896 189.718 68.5042 188.519 68.5042 187.1C68.5042 185.682 68.9896 184.482 69.9602 183.502C70.9309 182.522 72.1582 182.032 73.6422 182.032C74.5476 182.032 75.3782 182.252 76.1342 182.69C76.8902 183.12 77.4736 183.703 77.8842 184.44L77.0162 184.944C76.7082 184.347 76.2509 183.871 75.6442 183.516C75.0376 183.162 74.3702 182.984 73.6422 182.984C72.4196 182.984 71.4209 183.381 70.6462 184.174C69.8716 184.968 69.4842 185.943 69.4842 187.1C69.4842 188.258 69.8716 189.233 70.6462 190.026C71.4209 190.82 72.4196 191.216 73.6422 191.216C74.3702 191.216 75.0376 191.039 75.6442 190.684C76.2509 190.33 76.7082 189.854 77.0162 189.256L77.8842 189.746C77.4829 190.484 76.8996 191.072 76.1342 191.51C75.3782 191.949 74.5476 192.168 73.6422 192.168ZM85.5192 182.2V183.124H82.5092V192H81.5292V183.124H78.5192V182.2H85.5192ZM93.2197 192V184.02L87.7597 192H86.9197V182.2H87.8997V190.18L93.3597 182.2H94.1997V192H93.2197ZM101.867 186.918C102.343 187.124 102.721 187.436 103.001 187.856C103.291 188.267 103.435 188.738 103.435 189.27C103.435 190.026 103.169 190.67 102.637 191.202C102.105 191.734 101.461 192 100.705 192H96.4353V182.2H100.383C101.111 182.2 101.732 182.462 102.245 182.984C102.759 183.498 103.015 184.114 103.015 184.832C103.015 185.747 102.633 186.442 101.867 186.918ZM100.383 183.124H97.4153V186.54H100.383C100.841 186.54 101.228 186.377 101.545 186.05C101.872 185.714 102.035 185.308 102.035 184.832C102.035 184.366 101.872 183.964 101.545 183.628C101.228 183.292 100.841 183.124 100.383 183.124ZM100.705 191.076C101.191 191.076 101.601 190.904 101.937 190.558C102.283 190.204 102.455 189.774 102.455 189.27C102.455 188.776 102.283 188.351 101.937 187.996C101.601 187.642 101.191 187.464 100.705 187.464H97.4153V191.076H100.705ZM111.641 192L110.731 189.592H106.083L105.173 192H104.137L107.903 182.2H108.911L112.677 192H111.641ZM106.433 188.668H110.381L108.407 183.418L106.433 188.668ZM113.025 192V191.132C113.707 191.226 114.215 191.016 114.551 190.502C114.897 189.98 115.069 189.028 115.069 187.646V182.2H121.425V192H120.445V183.124H116.049V187.674C116.049 188.561 115.979 189.303 115.839 189.9C115.699 190.498 115.489 190.955 115.209 191.272C114.939 191.58 114.626 191.79 114.271 191.902C113.926 192.005 113.511 192.038 113.025 192ZM127.17 185.84C128.047 185.84 128.78 186.134 129.368 186.722C129.956 187.31 130.25 188.043 130.25 188.92C130.25 189.798 129.956 190.53 129.368 191.118C128.78 191.706 128.047 192 127.17 192H123.67V182.2H124.65V185.84H127.17ZM127.17 191.076C127.776 191.076 128.276 190.876 128.668 190.474C129.069 190.064 129.27 189.546 129.27 188.92C129.27 188.295 129.069 187.782 128.668 187.38C128.276 186.97 127.776 186.764 127.17 186.764H124.65V191.076H127.17ZM140.888 182.2V183.124H136.408V192H135.428V182.2H140.888ZM149.7 190.698C148.72 191.678 147.52 192.168 146.102 192.168C144.683 192.168 143.484 191.678 142.504 190.698C141.524 189.709 141.034 188.51 141.034 187.1C141.034 185.691 141.524 184.496 142.504 183.516C143.484 182.527 144.683 182.032 146.102 182.032C147.52 182.032 148.72 182.527 149.7 183.516C150.68 184.496 151.17 185.691 151.17 187.1C151.17 188.51 150.68 189.709 149.7 190.698ZM143.19 190.026C143.974 190.82 144.944 191.216 146.102 191.216C147.259 191.216 148.23 190.82 149.014 190.026C149.798 189.224 150.19 188.248 150.19 187.1C150.19 185.952 149.798 184.982 149.014 184.188C148.23 183.386 147.259 182.984 146.102 182.984C144.944 182.984 143.974 183.386 143.19 184.188C142.406 184.982 142.014 185.952 142.014 187.1C142.014 188.248 142.406 189.224 143.19 190.026ZM156.346 182.2C157.223 182.2 157.956 182.494 158.544 183.082C159.132 183.67 159.426 184.403 159.426 185.28C159.426 186.158 159.132 186.89 158.544 187.478C157.956 188.066 157.223 188.36 156.346 188.36H153.826V192H152.846V182.2H156.346ZM156.346 187.436C156.952 187.436 157.452 187.236 157.844 186.834C158.245 186.424 158.446 185.906 158.446 185.28C158.446 184.655 158.245 184.142 157.844 183.74C157.452 183.33 156.952 183.124 156.346 183.124H153.826V187.436H156.346ZM169.141 190.698C168.161 191.678 166.962 192.168 165.543 192.168C164.124 192.168 162.925 191.678 161.945 190.698C160.965 189.709 160.475 188.51 160.475 187.1C160.475 185.691 160.965 184.496 161.945 183.516C162.925 182.527 164.124 182.032 165.543 182.032C166.962 182.032 168.161 182.527 169.141 183.516C170.121 184.496 170.611 185.691 170.611 187.1C170.611 188.51 170.121 189.709 169.141 190.698ZM162.631 190.026C163.415 190.82 164.386 191.216 165.543 191.216C166.7 191.216 167.671 190.82 168.455 190.026C169.239 189.224 169.631 188.248 169.631 187.1C169.631 185.952 169.239 184.982 168.455 184.188C167.671 183.386 166.7 182.984 165.543 182.984C164.386 182.984 163.415 183.386 162.631 184.188C161.847 184.982 161.455 185.952 161.455 187.1C161.455 188.248 161.847 189.224 162.631 190.026ZM178.863 191.076H179.913V193.876H178.933V192H171.933V193.876H170.953V191.076H171.751C172.395 190.32 172.717 189.154 172.717 187.576V182.2H178.863V191.076ZM172.913 191.076H177.883V183.124H173.697V187.604C173.697 189.154 173.436 190.311 172.913 191.076ZM185.97 192.168C184.486 192.168 183.259 191.678 182.288 190.698C181.318 189.718 180.832 188.519 180.832 187.1C180.832 185.682 181.318 184.482 182.288 183.502C183.259 182.522 184.486 182.032 185.97 182.032C186.876 182.032 187.706 182.252 188.462 182.69C189.218 183.12 189.802 183.703 190.212 184.44L189.344 184.944C189.036 184.347 188.579 183.871 187.972 183.516C187.366 183.162 186.698 182.984 185.97 182.984C184.748 182.984 183.749 183.381 182.974 184.174C182.2 184.968 181.812 185.943 181.812 187.1C181.812 188.258 182.2 189.233 182.974 190.026C183.749 190.82 184.748 191.216 185.97 191.216C186.698 191.216 187.366 191.039 187.972 190.684C188.579 190.33 189.036 189.854 189.344 189.256L190.212 189.746C189.811 190.484 189.228 191.072 188.462 191.51C187.706 191.949 186.876 192.168 185.97 192.168ZM198.684 192H197.396L192.804 187.254V192H191.824V182.2H192.804V186.68L197.256 182.2H198.544L193.84 186.96L198.684 192ZM206.245 192V184.02L200.785 192H199.945V182.2H200.925V190.18L206.385 182.2H207.225V192H206.245ZM216.181 192H215.061L212.401 187.814L209.741 192H208.621L211.841 186.946L208.831 182.2H209.937L212.401 186.064L214.865 182.2H215.971L212.961 186.946L216.181 192ZM224.582 182.2C225.459 182.2 226.192 182.494 226.78 183.082C227.368 183.67 227.662 184.403 227.662 185.28C227.662 186.158 227.368 186.89 226.78 187.478C226.192 188.066 225.459 188.36 224.582 188.36H222.062V192H221.082V182.2H224.582ZM224.582 187.436C225.189 187.436 225.688 187.236 226.08 186.834C226.481 186.424 226.682 185.906 226.682 185.28C226.682 184.655 226.481 184.142 226.08 183.74C225.688 183.33 225.189 183.124 224.582 183.124H222.062V187.436H224.582ZM230.32 191.076H235.08V192H229.34V182.2H235.01V183.124H230.32V186.596H234.66V187.52H230.32V191.076ZM241.273 192.168C239.789 192.168 238.562 191.678 237.591 190.698C236.621 189.718 236.135 188.519 236.135 187.1C236.135 185.682 236.621 184.482 237.591 183.502C238.562 182.522 239.789 182.032 241.273 182.032C242.179 182.032 243.009 182.252 243.765 182.69C244.521 183.12 245.105 183.703 245.515 184.44L244.647 184.944C244.339 184.347 243.882 183.871 243.275 183.516C242.669 183.162 242.001 182.984 241.273 182.984C240.051 182.984 239.052 183.381 238.277 184.174C237.503 184.968 237.115 185.943 237.115 187.1C237.115 188.258 237.503 189.233 238.277 190.026C239.052 190.82 240.051 191.216 241.273 191.216C242.001 191.216 242.669 191.039 243.275 190.684C243.882 190.33 244.339 189.854 244.647 189.256L245.515 189.746C245.114 190.484 244.531 191.072 243.765 191.51C243.009 191.949 242.179 192.168 241.273 192.168ZM253.15 182.2V183.124H250.14V192H249.16V183.124H246.15V182.2H253.15ZM262.096 190.698C261.116 191.678 259.917 192.168 258.498 192.168C257.079 192.168 255.88 191.678 254.9 190.698C253.92 189.709 253.43 188.51 253.43 187.1C253.43 185.691 253.92 184.496 254.9 183.516C255.88 182.527 257.079 182.032 258.498 182.032C259.917 182.032 261.116 182.527 262.096 183.516C263.076 184.496 263.566 185.691 263.566 187.1C263.566 188.51 263.076 189.709 262.096 190.698ZM255.586 190.026C256.37 190.82 257.341 191.216 258.498 191.216C259.655 191.216 260.626 190.82 261.41 190.026C262.194 189.224 262.586 188.248 262.586 187.1C262.586 185.952 262.194 184.982 261.41 184.188C260.626 183.386 259.655 182.984 258.498 182.984C257.341 182.984 256.37 183.386 255.586 184.188C254.802 184.982 254.41 185.952 254.41 187.1C254.41 188.248 254.802 189.224 255.586 190.026ZM268.742 182.2C269.619 182.2 270.352 182.494 270.94 183.082C271.528 183.67 271.822 184.403 271.822 185.28C271.822 186.158 271.528 186.89 270.94 187.478C270.352 188.066 269.619 188.36 268.742 188.36H266.222V192H265.242V182.2H268.742ZM268.742 187.436C269.349 187.436 269.848 187.236 270.24 186.834C270.641 186.424 270.842 185.906 270.842 185.28C270.842 184.655 270.641 184.142 270.24 183.74C269.848 183.33 269.349 183.124 268.742 183.124H266.222V187.436H268.742ZM279.04 192L278.13 189.592H273.482L272.572 192H271.536L275.302 182.2H276.31L280.076 192H279.04ZM273.832 188.668H277.78L275.806 183.418L273.832 188.668ZM287.634 182.2H288.614V192H287.634V187.422H282.314V192H281.334V182.2H282.314V186.498H287.634V182.2ZM298.955 190.698C297.975 191.678 296.776 192.168 295.357 192.168C293.939 192.168 292.739 191.678 291.759 190.698C290.779 189.709 290.289 188.51 290.289 187.1C290.289 185.691 290.779 184.496 291.759 183.516C292.739 182.527 293.939 182.032 295.357 182.032C296.776 182.032 297.975 182.527 298.955 183.516C299.935 184.496 300.425 185.691 300.425 187.1C300.425 188.51 299.935 189.709 298.955 190.698ZM292.445 190.026C293.229 190.82 294.2 191.216 295.357 191.216C296.515 191.216 297.485 190.82 298.269 190.026C299.053 189.224 299.445 188.248 299.445 187.1C299.445 185.952 299.053 184.982 298.269 184.188C297.485 183.386 296.515 182.984 295.357 182.984C294.2 182.984 293.229 183.386 292.445 184.188C291.661 184.982 291.269 185.952 291.269 187.1C291.269 188.248 291.661 189.224 292.445 190.026ZM307.533 186.918C308.009 187.124 308.387 187.436 308.667 187.856C308.957 188.267 309.101 188.738 309.101 189.27C309.101 190.026 308.835 190.67 308.303 191.202C307.771 191.734 307.127 192 306.371 192H302.101V182.2H306.049C306.777 182.2 307.398 182.462 307.911 182.984C308.425 183.498 308.681 184.114 308.681 184.832C308.681 185.747 308.299 186.442 307.533 186.918ZM306.049 183.124H303.081V186.54H306.049C306.507 186.54 306.894 186.377 307.211 186.05C307.538 185.714 307.701 185.308 307.701 184.832C307.701 184.366 307.538 183.964 307.211 183.628C306.894 183.292 306.507 183.124 306.049 183.124ZM306.371 191.076C306.857 191.076 307.267 190.904 307.603 190.558C307.949 190.204 308.121 189.774 308.121 189.27C308.121 188.776 307.949 188.351 307.603 187.996C307.267 187.642 306.857 187.464 306.371 187.464H303.081V191.076H306.371Z" fill="#0A1A14"/>
<mask id="mask0_1297_3495" style="mask-type:luminance" maskUnits="userSpaceOnUse" x="100" y="64" width="160" height="108">
<path d="M260 64.0005H100V171H260V64.0005Z" fill="white"/>
</mask>
<g mask="url(#mask0_1297_3495)">
<path d="M168.487 71.1378C165.143 67.7852 160.881 65.5021 156.242 64.5772C151.603 63.6523 146.794 64.1272 142.424 65.9417C138.054 67.7563 134.319 70.829 131.691 74.7714C129.063 78.7137 127.66 83.3487 127.66 88.0901C127.66 92.8315 129.063 97.4665 131.691 101.409C134.319 105.351 138.054 108.424 142.424 110.239C146.794 112.053 151.603 112.528 156.242 111.603C160.881 110.678 165.143 108.395 168.487 105.042L151.577 88.0881L168.487 71.1378Z" fill="#FFC700"/>
<path d="M242.277 65.2266H223.804V110.914H240.895C241.353 110.946 241.815 110.97 242.28 110.97L242.277 65.2266Z" fill="#E83E24"/>
<path d="M245.182 74.8569V110.629C249.32 109.819 253.049 107.591 255.729 104.328C258.41 101.065 259.876 96.9698 259.876 92.7429C259.876 88.5161 258.41 84.4207 255.729 81.1578C253.049 77.8949 249.32 75.6675 245.182 74.8569Z" fill="#E83E24"/>
<path d="M186.23 65.2661H176.37V75.8739H186.23V65.2661Z" fill="#E83E24"/>
<path d="M202.441 79.3954V65.2661H188.989V110.942H202.449V79.3954H202.441Z" fill="#E83E24"/>
<path d="M215.064 65.2661H205.2V75.8739H215.064V65.2661Z" fill="#E83E24"/>
<path d="M114.817 124.596C110.652 125.382 106.891 127.602 104.186 130.872C101.48 134.143 99.9995 138.258 99.9995 142.506C99.9995 146.755 101.48 150.87 104.186 154.14C106.891 157.41 110.652 159.63 114.817 160.416V124.596Z" fill="#E83E24"/>
<path d="M133.76 124.596V160.416C137.925 159.63 141.685 157.41 144.391 154.14C147.096 150.87 148.577 146.755 148.577 142.506C148.577 138.258 147.096 134.143 144.391 130.872C141.685 127.602 137.925 125.382 133.76 124.596Z" fill="#E83E24"/>
<path d="M118.413 86.1496V90.7433H115.737V86.1496H118.413ZM119.992 84.5669H114.162V92.3101H119.988V84.5906L119.992 84.5669Z" fill="#E83E24"/>
<path d="M118.413 66.8448V70.9083H110.775V105.3H118.413V109.367H110.665V109.347H105.967V66.8448H118.413ZM119.992 65.2622H104.392V110.922H109.09V110.942H119.988V103.725H112.346V72.4672H119.988V65.2661L119.992 65.2622Z" fill="#E83E24"/>
<path d="M216.178 130.191C212.833 126.838 208.571 124.555 203.932 123.63C199.293 122.706 194.484 123.18 190.114 124.995C185.744 126.809 182.009 129.882 179.381 133.825C176.753 137.767 175.351 142.402 175.351 147.143C175.351 151.885 176.753 156.52 179.381 160.462C182.009 164.404 185.744 167.477 190.114 169.292C194.484 171.106 199.293 171.581 203.932 170.656C208.571 169.731 212.833 167.448 216.178 164.096L199.252 147.145L216.178 130.191Z" fill="#FFC700"/>
<path d="M131.001 138.437V124.307H117.545V169.983H131.009V138.437H131.001Z" fill="#E83E24"/>
<path d="M168.069 145.191V149.78H165.389V145.191H168.069ZM169.648 143.608H163.826V151.355H169.648V143.608Z" fill="#E83E24"/>
<path d="M168.069 125.882V129.95H160.435V164.341H168.069V168.404H160.324V168.385H155.627V125.882H168.069ZM169.648 124.299H154.056V169.963H158.753V169.983H169.648V162.762H162.01V131.524H169.648V124.299Z" fill="#E83E24"/>
<path d="M231.165 124.307H221.305V134.915H231.165V124.307Z" fill="#E83E24"/>
<path d="M247.376 138.437V124.307H233.92V169.983H247.384V138.437H247.376Z" fill="#E83E24"/>
<path d="M260 124.307H250.135V134.915H260V124.307Z" fill="#E83E24"/>
</g>
<path d="M208.255 351.096C275.493 338.446 324.066 296.809 316.745 258.096C309.425 219.383 248.983 198.255 181.745 210.905C114.507 223.555 65.9344 265.193 73.255 303.905C80.5755 342.618 141.017 363.746 208.255 351.096Z" fill="#E83E24"/>
<path d="M94.6424 295.8V297.56H91.4904V307H89.6504V297.56H86.4824V295.8H94.6424ZM98.2295 307.208C97.0562 307.208 96.0588 306.803 95.2375 305.992C94.4162 305.181 94.0055 304.184 94.0055 303C94.0055 301.816 94.4162 300.819 95.2375 300.008C96.0588 299.197 97.0562 298.792 98.2295 298.792C99.4135 298.792 100.411 299.197 101.221 300.008C102.043 300.819 102.453 301.816 102.453 303C102.453 304.184 102.043 305.181 101.221 305.992C100.411 306.803 99.4135 307.208 98.2295 307.208ZM96.4535 304.808C96.9335 305.288 97.5255 305.528 98.2295 305.528C98.9335 305.528 99.5255 305.288 100.005 304.808C100.485 304.328 100.725 303.725 100.725 303C100.725 302.275 100.485 301.672 100.005 301.192C99.5255 300.712 98.9335 300.472 98.2295 300.472C97.5255 300.472 96.9335 300.712 96.4535 301.192C95.9735 301.672 95.7335 302.275 95.7335 303C95.7335 303.725 95.9735 304.328 96.4535 304.808ZM112.176 299V307H110.496V301.736L108.192 305.4H107.984L105.696 301.752V307H104.016V299H105.776L108.096 302.696L110.416 299H112.176ZM117.948 307.208C116.743 307.208 115.735 306.803 114.924 305.992C114.124 305.181 113.724 304.184 113.724 303C113.724 301.805 114.124 300.808 114.924 300.008C115.735 299.197 116.743 298.792 117.948 298.792C118.727 298.792 119.436 298.979 120.076 299.352C120.716 299.725 121.196 300.227 121.516 300.856L120.028 301.72C119.847 301.336 119.569 301.037 119.196 300.824C118.833 300.6 118.412 300.488 117.932 300.488C117.228 300.488 116.636 300.728 116.156 301.208C115.687 301.688 115.452 302.285 115.452 303C115.452 303.715 115.687 304.312 116.156 304.792C116.636 305.272 117.228 305.512 117.932 305.512C118.401 305.512 118.823 305.4 119.196 305.176C119.58 304.952 119.868 304.653 120.06 304.28L121.548 305.128C121.207 305.768 120.716 306.275 120.076 306.648C119.436 307.021 118.727 307.208 117.948 307.208ZM129.916 307H127.852L124.572 303.304V307H122.844V299H124.572V302.536L127.676 299H129.788L126.268 302.92L129.916 307ZM133.478 305.08L132.358 309.24H130.918L131.558 305.08H133.478ZM144.705 299H146.545L143.473 307.256C143.099 308.269 142.577 309.027 141.905 309.528C141.233 310.029 140.454 310.253 139.569 310.2V308.584C140.113 308.616 140.55 308.504 140.881 308.248C141.222 308.003 141.494 307.603 141.697 307.048L141.745 306.936L138.385 299H140.225L142.657 304.824L144.705 299ZM153.893 299V307H152.165V300.664H149.493V303.64C149.493 304.909 149.215 305.811 148.661 306.344C148.106 306.877 147.317 307.096 146.293 307V305.384C146.783 305.469 147.151 305.368 147.397 305.08C147.642 304.792 147.765 304.285 147.765 303.56V299H153.893ZM157.794 306.84C157.56 307.075 157.277 307.192 156.946 307.192C156.616 307.192 156.333 307.075 156.098 306.84C155.864 306.605 155.746 306.323 155.746 305.992C155.746 305.661 155.858 305.379 156.082 305.144C156.317 304.909 156.605 304.792 156.946 304.792C157.277 304.792 157.56 304.909 157.794 305.144C158.029 305.379 158.146 305.661 158.146 305.992C158.146 306.323 158.029 306.605 157.794 306.84ZM170.737 295.8H172.577V307H170.737V302.152H165.937V307H164.097V295.8H165.937V300.392H170.737V295.8ZM181.039 299H182.767V307H181.039V305.848C180.389 306.755 179.455 307.208 178.239 307.208C177.141 307.208 176.202 306.803 175.423 305.992C174.645 305.171 174.255 304.173 174.255 303C174.255 301.816 174.645 300.819 175.423 300.008C176.202 299.197 177.141 298.792 178.239 298.792C179.455 298.792 180.389 299.24 181.039 300.136V299ZM176.703 304.84C177.183 305.32 177.786 305.56 178.511 305.56C179.237 305.56 179.839 305.32 180.319 304.84C180.799 304.349 181.039 303.736 181.039 303C181.039 302.264 180.799 301.656 180.319 301.176C179.839 300.685 179.237 300.44 178.511 300.44C177.786 300.44 177.183 300.685 176.703 301.176C176.223 301.656 175.983 302.264 175.983 303C175.983 303.736 176.223 304.349 176.703 304.84ZM191.933 307H189.933L187.949 304.264L185.949 307H183.933L186.941 302.888L184.093 299H186.093L187.933 301.528L189.773 299H191.789L188.941 302.904L191.933 307ZM198.886 299H200.214V307H198.518V301.912L194.422 307H193.094V299H194.79V304.072L198.886 299ZM210.379 299V307H208.699V301.736L206.395 305.4H206.187L203.899 301.752V307H202.219V299H203.979L206.299 302.696L208.619 299H210.379ZM216.151 307.208C214.978 307.208 213.981 306.803 213.159 305.992C212.338 305.181 211.927 304.184 211.927 303C211.927 301.816 212.338 300.819 213.159 300.008C213.981 299.197 214.978 298.792 216.151 298.792C217.335 298.792 218.333 299.197 219.143 300.008C219.965 300.819 220.375 301.816 220.375 303C220.375 304.184 219.965 305.181 219.143 305.992C218.333 306.803 217.335 307.208 216.151 307.208ZM214.375 304.808C214.855 305.288 215.447 305.528 216.151 305.528C216.855 305.528 217.447 305.288 217.927 304.808C218.407 304.328 218.647 303.725 218.647 303C218.647 302.275 218.407 301.672 217.927 301.192C217.447 300.712 216.855 300.472 216.151 300.472C215.447 300.472 214.855 300.712 214.375 301.192C213.895 301.672 213.655 302.275 213.655 303C213.655 303.725 213.895 304.328 214.375 304.808ZM227.474 302.888C228.263 303.251 228.658 303.864 228.658 304.728C228.658 305.4 228.428 305.949 227.97 306.376C227.522 306.792 226.876 307 226.034 307H221.938V299H225.714C226.535 299 227.17 299.208 227.618 299.624C228.076 300.029 228.306 300.557 228.306 301.208C228.306 301.965 228.028 302.525 227.474 302.888ZM225.586 300.472H223.586V302.248H225.586C226.29 302.248 226.642 301.949 226.642 301.352C226.642 300.765 226.29 300.472 225.586 300.472ZM225.874 305.496C226.599 305.496 226.962 305.181 226.962 304.552C226.962 304.275 226.866 304.061 226.674 303.912C226.482 303.752 226.215 303.672 225.874 303.672H223.586V305.496H225.874ZM236.399 299H238.127V307H236.399V305.848C235.748 306.755 234.815 307.208 233.599 307.208C232.5 307.208 231.561 306.803 230.783 305.992C230.004 305.171 229.615 304.173 229.615 303C229.615 301.816 230.004 300.819 230.783 300.008C231.561 299.197 232.5 298.792 233.599 298.792C234.815 298.792 235.748 299.24 236.399 300.136V299ZM232.063 304.84C232.543 305.32 233.145 305.56 233.871 305.56C234.596 305.56 235.199 305.32 235.679 304.84C236.159 304.349 236.399 303.736 236.399 303C236.399 302.264 236.159 301.656 235.679 301.176C235.199 300.685 234.596 300.44 233.871 300.44C233.145 300.44 232.543 300.685 232.063 301.176C231.583 301.656 231.343 302.264 231.343 303C231.343 303.736 231.583 304.349 232.063 304.84ZM249.901 301.176C250.999 301.784 251.549 302.691 251.549 303.896C251.549 304.92 251.191 305.731 250.477 306.328C249.762 306.915 248.813 307.208 247.629 307.208C246.445 307.208 245.49 306.915 244.765 306.328C244.05 305.731 243.693 304.92 243.693 303.896C243.693 303.32 243.837 302.797 244.125 302.328C244.413 301.848 244.818 301.464 245.341 301.176C244.498 300.621 244.077 299.832 244.077 298.808C244.077 297.784 244.418 296.995 245.101 296.44C245.783 295.875 246.626 295.592 247.629 295.592C248.621 295.592 249.458 295.875 250.141 296.44C250.834 296.995 251.181 297.784 251.181 298.808C251.181 299.832 250.754 300.621 249.901 301.176ZM247.629 297.336C247.127 297.336 246.717 297.469 246.397 297.736C246.077 298.003 245.917 298.387 245.917 298.888C245.917 299.368 246.077 299.747 246.397 300.024C246.727 300.301 247.138 300.44 247.629 300.44C248.109 300.44 248.514 300.301 248.845 300.024C249.175 299.747 249.341 299.368 249.341 298.888C249.341 298.387 249.175 298.003 248.845 297.736C248.525 297.469 248.119 297.336 247.629 297.336ZM247.629 305.464C248.247 305.464 248.749 305.315 249.133 305.016C249.517 304.707 249.709 304.275 249.709 303.72C249.709 303.165 249.517 302.739 249.133 302.44C248.749 302.131 248.247 301.976 247.629 301.976C246.999 301.976 246.493 302.131 246.109 302.44C245.725 302.739 245.533 303.165 245.533 303.72C245.533 304.275 245.725 304.707 246.109 305.016C246.493 305.315 246.999 305.464 247.629 305.464ZM255.51 305.08L254.39 309.24H252.95L253.59 305.08H255.51ZM265.12 307.208C263.915 307.208 262.907 306.803 262.096 305.992C261.296 305.181 260.896 304.184 260.896 303C260.896 301.805 261.296 300.808 262.096 300.008C262.907 299.197 263.915 298.792 265.12 298.792C265.899 298.792 266.608 298.979 267.248 299.352C267.888 299.725 268.368 300.227 268.688 300.856L267.2 301.72C267.019 301.336 266.741 301.037 266.368 300.824C266.005 300.6 265.584 300.488 265.104 300.488C264.4 300.488 263.808 300.728 263.328 301.208C262.859 301.688 262.624 302.285 262.624 303C262.624 303.715 262.859 304.312 263.328 304.792C263.808 305.272 264.4 305.512 265.104 305.512C265.573 305.512 265.995 305.4 266.368 305.176C266.752 304.952 267.04 304.653 267.232 304.28L268.72 305.128C268.379 305.768 267.888 306.275 267.248 306.648C266.608 307.021 265.899 307.208 265.12 307.208ZM276.003 299V300.664H273.395V307H271.667V300.664H269.043V299H276.003ZM283.316 295.8H284.916V307H283.076V297.768L280.82 298.408L280.372 296.84L283.316 295.8ZM291.461 300.376C292.272 300.568 292.928 300.947 293.429 301.512C293.941 302.067 294.197 302.765 294.197 303.608C294.197 304.728 293.819 305.608 293.061 306.248C292.304 306.888 291.376 307.208 290.277 307.208C289.424 307.208 288.656 307.011 287.973 306.616C287.301 306.221 286.816 305.645 286.517 304.888L288.085 303.976C288.416 304.936 289.147 305.416 290.277 305.416C290.917 305.416 291.424 305.256 291.797 304.936C292.171 304.605 292.357 304.163 292.357 303.608C292.357 303.053 292.171 302.616 291.797 302.296C291.424 301.976 290.917 301.816 290.277 301.816H289.861L289.125 300.712L291.541 297.528H286.853V295.8H293.733V297.368L291.461 300.376Z" fill="white"/>
<path d="M122.816 257.6V261.12H116.512V280H112.832V261.12H106.496V257.6H122.816ZM133.793 257.6C135.905 257.6 137.665 258.304 139.073 259.712C140.502 261.12 141.217 262.869 141.217 264.96C141.217 267.029 140.502 268.779 139.073 270.208C137.665 271.616 135.905 272.32 133.793 272.32H129.217V280H125.537V257.6H133.793ZM133.793 268.864C134.881 268.864 135.777 268.501 136.481 267.776C137.185 267.029 137.537 266.091 137.537 264.96C137.537 263.829 137.185 262.901 136.481 262.176C135.777 261.429 134.881 261.056 133.793 261.056H129.217V268.864H133.793ZM161.308 280H156.924L148.092 269.344V280H144.412V257.6H148.092V267.648L156.604 257.6H160.988L151.932 268.512L161.308 280ZM171.117 265.92L173.357 257.6H176.237L174.957 265.92H171.117ZM176.557 265.92L178.797 257.6H181.677L180.397 265.92H176.557ZM181.525 280V276.608C182.933 276.8 183.979 276.459 184.661 275.584C185.365 274.709 185.717 273.035 185.717 270.56V257.6H200.725V280H197.045V261.12H189.397V270.496C189.397 272.459 189.184 274.112 188.757 275.456C188.352 276.8 187.765 277.813 186.997 278.496C186.229 279.157 185.397 279.605 184.501 279.84C183.627 280.053 182.635 280.107 181.525 280ZM208.873 276.48H218.793V280H205.193V257.6H218.633V261.12H208.873V266.944H217.833V270.432H208.873V276.48ZM236.722 257.6V261.12H230.418V280H226.738V261.12H220.402V257.6H236.722ZM256.882 277.056C254.642 279.296 251.901 280.416 248.658 280.416C245.415 280.416 242.663 279.296 240.402 277.056C238.162 274.795 237.042 272.043 237.042 268.8C237.042 265.557 238.162 262.816 240.402 260.576C242.663 258.315 245.415 257.184 248.658 257.184C251.901 257.184 254.642 258.315 256.882 260.576C259.143 262.816 260.274 265.557 260.274 268.8C260.274 272.043 259.143 274.795 256.882 277.056ZM242.994 274.56C244.53 276.075 246.418 276.832 248.658 276.832C250.898 276.832 252.775 276.075 254.29 274.56C255.826 273.024 256.594 271.104 256.594 268.8C256.594 266.496 255.826 264.587 254.29 263.072C252.775 261.536 250.898 260.768 248.658 260.768C246.418 260.768 244.53 261.536 242.994 263.072C241.479 264.587 240.722 266.496 240.722 268.8C240.722 271.104 241.479 273.024 242.994 274.56ZM267.894 257.6L265.654 265.92H262.774L264.054 257.6H267.894ZM273.334 257.6L271.094 265.92H268.214L269.494 257.6H273.334Z" fill="white"/>
<path d="M248.749 491.586C314.609 473.683 358.262 423.539 346.251 379.586C334.239 335.632 271.111 314.514 205.251 332.417C139.39 350.319 95.7373 400.463 107.749 444.417C119.761 488.37 182.888 509.488 248.749 491.586Z" fill="#255946"/>
<path d="M183.362 433.288C181.554 433.288 180.05 432.688 178.85 431.488C177.65 430.272 177.05 428.776 177.05 427C177.05 425.224 177.65 423.736 178.85 422.536C180.05 421.32 181.554 420.712 183.362 420.712C184.546 420.712 185.61 421 186.554 421.576C187.498 422.136 188.186 422.896 188.618 423.856L187.322 424.6C187.002 423.88 186.482 423.312 185.762 422.896C185.058 422.464 184.258 422.248 183.362 422.248C182.034 422.248 180.914 422.712 180.002 423.64C179.09 424.552 178.634 425.672 178.634 427C178.634 428.328 179.09 429.456 180.002 430.384C180.914 431.296 182.034 431.752 183.362 431.752C184.258 431.752 185.058 431.544 185.762 431.128C186.466 430.696 187.018 430.12 187.418 429.4L188.738 430.168C188.242 431.128 187.514 431.888 186.554 432.448C185.594 433.008 184.53 433.288 183.362 433.288ZM196.439 420.712C198.215 420.712 199.647 421.344 200.735 422.608C201.839 423.856 202.391 425.336 202.391 427.048C202.391 427.224 202.375 427.472 202.343 427.792H191.807C191.967 429.008 192.479 429.976 193.343 430.696C194.223 431.4 195.303 431.752 196.583 431.752C197.495 431.752 198.279 431.568 198.935 431.2C199.607 430.816 200.111 430.32 200.447 429.712L201.839 430.528C201.311 431.376 200.591 432.048 199.679 432.544C198.767 433.04 197.727 433.288 196.559 433.288C194.671 433.288 193.135 432.696 191.951 431.512C190.767 430.328 190.175 428.824 190.175 427C190.175 425.208 190.759 423.712 191.927 422.512C193.095 421.312 194.599 420.712 196.439 420.712ZM196.439 422.248C195.191 422.248 194.143 422.624 193.295 423.376C192.463 424.112 191.967 425.072 191.807 426.256H200.759C200.599 424.992 200.111 424.008 199.295 423.304C198.479 422.6 197.527 422.248 196.439 422.248ZM213.406 421H214.99V433H213.406V427.768H206.494V433H204.91V421H206.494V426.232H213.406V421ZM226.98 421V422.536H222.732V433H221.148V422.536H216.9V421H226.98ZM236.824 421V433H235.24V428.392H233.176L229.48 433H227.464L231.256 428.344C230.296 428.2 229.504 427.8 228.88 427.144C228.256 426.488 227.944 425.68 227.944 424.72C227.944 423.632 228.328 422.744 229.096 422.056C229.88 421.352 230.832 421 231.952 421H236.824ZM231.952 426.904H235.24V422.536H231.952C231.28 422.536 230.704 422.736 230.224 423.136C229.76 423.536 229.528 424.064 229.528 424.72C229.528 425.376 229.76 425.904 230.224 426.304C230.704 426.704 231.28 426.904 231.952 426.904ZM245.512 433.288C243.784 433.288 242.344 432.72 241.192 431.584C240.04 430.432 239.464 428.944 239.464 427.12C239.464 425.072 239.768 423.504 240.376 422.416C240.984 421.312 242.216 420.312 244.072 419.416C244.424 419.24 244.888 419.032 245.464 418.792C246.056 418.552 246.496 418.36 246.784 418.216C247.088 418.072 247.416 417.888 247.768 417.664C248.12 417.424 248.384 417.16 248.56 416.872C248.736 416.584 248.848 416.24 248.896 415.84L250.144 416.56C250.08 416.944 249.952 417.304 249.76 417.64C249.568 417.976 249.368 418.248 249.16 418.456C248.968 418.664 248.656 418.896 248.224 419.152C247.808 419.392 247.48 419.568 247.24 419.68C247.016 419.776 246.616 419.944 246.04 420.184C245.48 420.424 245.104 420.584 244.912 420.664C243.792 421.144 242.968 421.648 242.44 422.176C241.912 422.688 241.536 423.36 241.312 424.192C241.856 423.472 242.544 422.944 243.376 422.608C244.224 422.256 245.048 422.08 245.848 422.08C247.448 422.08 248.768 422.608 249.808 423.664C250.864 424.704 251.392 426.04 251.392 427.672C251.392 429.288 250.832 430.632 249.712 431.704C248.608 432.76 247.208 433.288 245.512 433.288ZM245.512 431.704C246.76 431.704 247.784 431.328 248.584 430.576C249.4 429.808 249.808 428.84 249.808 427.672C249.808 426.488 249.424 425.52 248.656 424.768C247.904 424 246.896 423.616 245.632 423.616C244.496 423.616 243.464 423.976 242.536 424.696C241.608 425.4 241.144 426.344 241.144 427.528C241.144 428.744 241.56 429.744 242.392 430.528C243.24 431.312 244.28 431.704 245.512 431.704ZM260.233 420.712C261.945 420.712 263.401 421.32 264.601 422.536C265.817 423.752 266.425 425.24 266.425 427C266.425 428.76 265.817 430.248 264.601 431.464C263.401 432.68 261.945 433.288 260.233 433.288C258.105 433.288 256.489 432.408 255.385 430.648V437.8H253.801V421H255.385V423.352C256.489 421.592 258.105 420.712 260.233 420.712ZM256.753 430.384C257.665 431.296 258.785 431.752 260.113 431.752C261.441 431.752 262.561 431.296 263.473 430.384C264.385 429.456 264.841 428.328 264.841 427C264.841 425.672 264.385 424.552 263.473 423.64C262.561 422.712 261.441 422.248 260.113 422.248C258.785 422.248 257.665 422.712 256.753 423.64C255.841 424.552 255.385 425.672 255.385 427C255.385 428.328 255.841 429.456 256.753 430.384ZM277.23 421V433H275.646V428.392H273.582L269.886 433H267.87L271.662 428.344C270.702 428.2 269.91 427.8 269.286 427.144C268.662 426.488 268.35 425.68 268.35 424.72C268.35 423.632 268.734 422.744 269.502 422.056C270.286 421.352 271.238 421 272.358 421H277.23ZM272.358 426.904H275.646V422.536H272.358C271.686 422.536 271.11 422.736 270.63 423.136C270.166 423.536 269.934 424.064 269.934 424.72C269.934 425.376 270.166 425.904 270.63 426.304C271.11 426.704 271.686 426.904 272.358 426.904Z" fill="white"/>
<path d="M185.021 407V401.96L198.685 388.016C202.008 384.694 203.669 381.819 203.669 379.392C203.669 377.488 203.09 376.014 201.933 374.968C200.813 373.886 199.376 373.344 197.621 373.344C194.336 373.344 191.909 374.968 190.341 378.216L184.909 375.024C186.141 372.411 187.877 370.432 190.117 369.088C192.357 367.744 194.84 367.072 197.565 367.072C201 367.072 203.949 368.155 206.413 370.32C208.877 372.486 210.109 375.435 210.109 379.168C210.109 383.163 207.888 387.419 203.445 391.936L194.597 400.784H210.837V407H185.021ZM216.846 392.888V387.064H237.566V392.888H216.846ZM260.177 383.816C263.014 384.488 265.31 385.814 267.065 387.792C268.857 389.734 269.753 392.179 269.753 395.128C269.753 399.048 268.427 402.128 265.777 404.368C263.126 406.608 259.878 407.728 256.033 407.728C253.046 407.728 250.358 407.038 247.969 405.656C245.617 404.275 243.918 402.259 242.873 399.608L248.361 396.416C249.518 399.776 252.075 401.456 256.033 401.456C258.273 401.456 260.046 400.896 261.353 399.776C262.659 398.619 263.313 397.07 263.313 395.128C263.313 393.187 262.659 391.656 261.353 390.536C260.046 389.416 258.273 388.856 256.033 388.856H254.577L252.001 384.992L260.457 373.848H244.049V367.8H268.129V373.288L260.177 383.816Z" fill="white"/>
</g>
<defs>
<clipPath id="clip0_1297_3495">
<rect width="360" height="456" fill="white"/>
</clipPath>
</defs>
</svg>
