<svg width="488" height="878" viewBox="0 0 488 878" fill="none" xmlns="http://www.w3.org/2000/svg">
<path d="M0 51.1123L374.809 -7.01356e-05L481.012 778.792C484.594 805.058 466.204 829.255 439.938 832.837L160.249 870.978C133.982 874.56 109.785 856.171 106.203 829.904L0 51.1123Z" fill="#E83E24"/>
<path d="M323.354 447.354C316.57 463.573 305.027 477.352 290.242 486.877C275.458 496.401 258.126 501.226 240.527 500.716C222.927 500.207 205.884 494.386 191.64 484.02C177.397 473.654 166.62 459.229 160.727 442.643C154.835 426.056 154.103 408.085 158.628 391.094C163.153 374.103 172.722 358.888 186.078 347.451C199.433 336.014 215.949 328.891 233.452 327.018C250.954 325.146 268.624 328.612 284.136 336.961L242.893 413.638L323.354 447.354Z" fill="#FFC700"/>
</svg>
