<svg width="16" height="16" viewBox="0 0 16 16" fill="none" xmlns="http://www.w3.org/2000/svg">
<g clip-path="url(#clip0_1780_1787)">
<path d="M13.8306 2.60753C12.7777 1.55362 11.4363 0.835912 9.97601 0.545165C8.5157 0.254417 7.00206 0.403689 5.6265 0.974104C4.25094 1.54452 3.07523 2.51046 2.24805 3.74978C1.42086 4.9891 0.97936 6.44613 0.97936 7.93664C0.97936 9.42715 1.42086 10.8842 2.24805 12.1235C3.07523 13.3628 4.25094 14.3288 5.6265 14.8992C7.00206 15.4696 8.5157 15.6189 9.97601 15.3281C11.4363 15.0374 12.7777 14.3197 13.8306 13.2657L8.50779 7.93602L13.8306 2.60753Z" fill="#FFC700"/>
<path d="M37.0574 0.749282H31.2426V15.1116H36.6225C36.7666 15.1215 36.912 15.129 37.0586 15.129L37.0574 0.749282Z" fill="#E83E24"/>
<path d="M37.9718 3.77672V15.022C39.2745 14.7672 40.4482 14.067 41.292 13.0412C42.1358 12.0155 42.5971 10.7281 42.5971 9.39936C42.5971 8.07061 42.1358 6.78318 41.292 5.75747C40.4482 4.73176 39.2745 4.03155 37.9718 3.77672Z" fill="#E83E24"/>
<path d="M19.4155 0.761721H16.3118V4.09638H19.4155V0.761721Z" fill="#E83E24"/>
<path d="M24.5183 5.20337V0.761721H20.284V15.1203H24.5208V5.20337H24.5183Z" fill="#E83E24"/>
<path d="M28.4918 0.761721H25.3868V4.09638H28.4918V0.761721Z" fill="#E83E24"/>
<path d="M-3.06338 19.4127C-4.37447 19.6597 -5.55814 20.3576 -6.40979 21.3856C-7.26143 22.4136 -7.72754 23.7072 -7.72754 25.0428C-7.72754 26.3783 -7.26143 27.6719 -6.40979 28.6999C-5.55814 29.7279 -4.37447 30.4258 -3.06338 30.6729V19.4127Z" fill="#E83E24"/>
<path d="M2.89925 19.4127V30.6729C4.21034 30.4258 5.39401 29.7279 6.24566 28.6999C7.09731 27.6719 7.56341 26.3783 7.56341 25.0428C7.56341 23.7072 7.09731 22.4136 6.24566 21.3856C5.39401 20.3576 4.21034 19.6597 2.89925 19.4127Z" fill="#E83E24"/>
<path d="M-1.93149 7.32655V8.77061H-2.77389V7.32655H-1.93149ZM-1.4345 6.82903H-3.26963V9.26316H-1.43574V6.83649L-1.4345 6.82903Z" fill="#E83E24"/>
<path d="M-1.93149 1.258V2.53539H-4.33568V13.3466H-1.93149V14.6252H-4.37047V14.619H-5.84901V1.258H-1.93149ZM-1.4345 0.760476H-6.34476V15.114H-4.86621V15.1203H-1.43574V12.8516H-3.84117V3.02546H-1.43574V0.761721L-1.4345 0.760476Z" fill="#E83E24"/>
<path d="M28.8421 21.1714C27.7893 20.1175 26.4479 19.3998 24.9876 19.109C23.5273 18.8183 22.0136 18.9676 20.6381 19.538C19.2625 20.1084 18.0868 21.0743 17.2596 22.3136C16.4325 23.553 15.9909 25.01 15.9909 26.5005C15.9909 27.991 16.4325 29.448 17.2596 30.6874C18.0868 31.9267 19.2625 32.8926 20.6381 33.463C22.0136 34.0335 23.5273 34.1827 24.9876 33.892C26.4479 33.6012 27.7893 32.8835 28.8421 31.8296L23.5144 26.5011L28.8421 21.1714Z" fill="#FFC700"/>
<path d="M2.03077 23.7635V19.3219H-2.20483V33.6804H2.03325V23.7635H2.03077Z" fill="#E83E24"/>
<path d="M13.6989 25.8867V27.3295H12.8552V25.8867H13.6989ZM14.1958 25.3892H12.3632V27.8245H14.1958V25.3892Z" fill="#E83E24"/>
<path d="M13.6989 19.8169V21.0955H11.2959V31.9067H13.6989V33.1841H11.2611V33.1779H9.78257V19.8169H13.6989ZM14.1958 19.3194H9.28806V33.6742H10.7666V33.6804H14.1958V31.4104H11.7917V21.5906H14.1958V19.3194Z" fill="#E83E24"/>
<path d="M33.5598 19.3219H30.4561V22.6565H33.5598V19.3219Z" fill="#E83E24"/>
<path d="M38.6627 23.7635V19.3219H34.4271V33.6804H38.6651V23.7635H38.6627Z" fill="#E83E24"/>
<path d="M42.6361 19.3219H39.5311V22.6565H42.6361V19.3219Z" fill="#E83E24"/>
</g>
<defs>
<clipPath id="clip0_1780_1787">
<rect width="16" height="16" fill="white"/>
</clipPath>
</defs>
</svg>
