<svg width="654" height="128" viewBox="0 0 654 128" fill="none" xmlns="http://www.w3.org/2000/svg">
<path d="M0 0H590V128H0V0Z" fill="#E83E24"/>
<path d="M216.44 63.48C217.667 64.12 218.627 65 219.32 66.12C220.013 67.24 220.36 68.5333 220.36 70C220.36 72.2933 219.547 74.2 217.92 75.72C216.293 77.24 214.307 78 211.96 78H199.96V50H211.08C213.373 50 215.307 50.7467 216.88 52.24C218.48 53.7067 219.28 55.5467 219.28 57.76C219.28 60.1867 218.333 62.0933 216.44 63.48ZM211.08 54.32H204.56V61.68H211.08C212.093 61.68 212.947 61.3333 213.64 60.64C214.333 59.92 214.68 59.04 214.68 58C214.68 56.96 214.333 56.0933 213.64 55.4C212.947 54.68 212.093 54.32 211.08 54.32ZM211.96 73.68C213.027 73.68 213.92 73.3067 214.64 72.56C215.387 71.7867 215.76 70.8533 215.76 69.76C215.76 68.6667 215.387 67.7467 214.64 67C213.92 66.2267 213.027 65.84 211.96 65.84H204.56V73.68H211.96ZM242.614 78L240.654 72.36H228.734L226.774 78H221.774L231.934 50H237.454L247.574 78H242.614ZM230.254 68.04H239.134L234.694 55.4L230.254 68.04ZM262.77 78.52C258.557 78.52 255.064 77.1333 252.29 74.36C249.517 71.56 248.13 68.1067 248.13 64C248.13 59.8933 249.517 56.4533 252.29 53.68C255.064 50.88 258.557 49.48 262.77 49.48C265.304 49.48 267.637 50.08 269.77 51.28C271.93 52.48 273.61 54.1067 274.81 56.16L270.81 58.48C270.064 57.0933 268.97 56 267.53 55.2C266.117 54.3733 264.53 53.96 262.77 53.96C259.784 53.96 257.357 54.9067 255.49 56.8C253.65 58.6933 252.73 61.0933 252.73 64C252.73 66.9067 253.65 69.3067 255.49 71.2C257.357 73.0933 259.784 74.04 262.77 74.04C264.53 74.04 266.13 73.64 267.57 72.84C269.01 72.0133 270.09 70.9067 270.81 69.52L274.81 71.8C273.637 73.8533 271.97 75.4933 269.81 76.72C267.677 77.92 265.33 78.52 262.77 78.52ZM320.867 78H315.707L306.067 64.88V78H301.467V64.88L291.827 78H286.627L297.107 63.68L287.027 50H292.227L301.467 62.72V50H306.067V62.72L315.307 50H320.467L310.427 63.68L320.867 78ZM345.452 73.6H348.452V83.36H343.852V78H326.852V83.36H322.252V73.6H324.852C326.479 71.4667 327.292 68.2533 327.292 63.96V50H345.452V73.6ZM329.892 73.6H340.852V54.32H331.892V64.04C331.892 68.2 331.226 71.3867 329.892 73.6ZM367.205 50H371.845L363.165 70.8C361.031 75.8933 357.578 78.2933 352.805 78V73.72C354.378 73.88 355.645 73.64 356.605 73C357.591 72.36 358.378 71.2933 358.965 69.8L349.645 50H354.285L361.085 64.76L367.205 50ZM393.238 50V54.4H385.358V78H380.758V54.4H372.838V50H393.238Z" fill="white"/>
<path d="M635.548 109.255C626.737 118.205 615.511 124.301 603.291 126.77C591.07 129.24 578.403 127.972 566.891 123.128C555.379 118.284 545.54 110.081 538.617 99.5565C531.695 89.0318 528 76.658 528 64C528 51.342 531.695 38.9683 538.617 28.4435C545.54 17.9188 555.379 9.71572 566.891 4.87171C578.403 0.0277029 591.07 -1.23971 603.291 1.22974C615.511 3.69919 626.737 9.7946 635.548 18.7452L591 64L635.548 109.255Z" fill="#FFC700"/>
</svg>
