<svg width="654" height="128" viewBox="0 0 654 128" fill="none" xmlns="http://www.w3.org/2000/svg">
<path d="M0 0H590V128H0V0Z" fill="#E83E24"/>
<path d="M196.13 78.52C191.917 78.52 188.423 77.1333 185.65 74.36C182.877 71.56 181.49 68.1067 181.49 64C181.49 59.8933 182.877 56.4533 185.65 53.68C188.423 50.88 191.917 49.48 196.13 49.48C198.663 49.48 200.997 50.08 203.13 51.28C205.29 52.48 206.97 54.1067 208.17 56.16L204.17 58.48C203.423 57.0933 202.33 56 200.89 55.2C199.477 54.3733 197.89 53.96 196.13 53.96C193.143 53.96 190.717 54.9067 188.85 56.8C187.01 58.6933 186.09 61.0933 186.09 64C186.09 66.9067 187.01 69.3067 188.85 71.2C190.717 73.0933 193.143 74.04 196.13 74.04C197.89 74.04 199.49 73.64 200.93 72.84C202.37 72.0133 203.45 70.9067 204.17 69.52L208.17 71.8C206.997 73.8533 205.33 75.4933 203.17 76.72C201.037 77.92 198.69 78.52 196.13 78.52ZM232.591 50V78H227.991V54.4H216.591V78H211.991V50H232.591ZM261.602 74.32C258.802 77.12 255.376 78.52 251.322 78.52C247.269 78.52 243.829 77.12 241.002 74.32C238.202 71.4933 236.802 68.0533 236.802 64C236.802 59.9467 238.202 56.52 241.002 53.72C243.829 50.8933 247.269 49.48 251.322 49.48C255.376 49.48 258.802 50.8933 261.602 53.72C264.429 56.52 265.842 59.9467 265.842 64C265.842 68.0533 264.429 71.4933 261.602 74.32ZM244.242 71.2C246.162 73.0933 248.522 74.04 251.322 74.04C254.122 74.04 256.469 73.0933 258.362 71.2C260.282 69.28 261.242 66.88 261.242 64C261.242 61.12 260.282 58.7333 258.362 56.84C256.469 54.92 254.122 53.96 251.322 53.96C248.522 53.96 246.162 54.92 244.242 56.84C242.349 58.7333 241.402 61.12 241.402 64C241.402 66.88 242.349 69.28 244.242 71.2ZM286.638 50H291.238V78H286.638V65.88H274.638V78H270.038V50H274.638V61.48H286.638V50ZM310.075 78.52C305.862 78.52 302.368 77.1333 299.595 74.36C296.822 71.56 295.435 68.1067 295.435 64C295.435 59.8933 296.822 56.4533 299.595 53.68C302.368 50.88 305.862 49.48 310.075 49.48C312.608 49.48 314.942 50.08 317.075 51.28C319.235 52.48 320.915 54.1067 322.115 56.16L318.115 58.48C317.368 57.0933 316.275 56 314.835 55.2C313.422 54.3733 311.835 53.96 310.075 53.96C307.088 53.96 304.662 54.9067 302.795 56.8C300.955 58.6933 300.035 61.0933 300.035 64C300.035 66.9067 300.955 69.3067 302.795 71.2C304.662 73.0933 307.088 74.04 310.075 74.04C311.835 74.04 313.435 73.64 314.875 72.84C316.315 72.0133 317.395 70.9067 318.115 69.52L322.115 71.8C320.942 73.8533 319.275 75.4933 317.115 76.72C314.982 77.92 312.635 78.52 310.075 78.52ZM349.141 74.32C346.341 77.12 342.915 78.52 338.861 78.52C334.808 78.52 331.368 77.12 328.541 74.32C325.741 71.4933 324.341 68.0533 324.341 64C324.341 59.9467 325.741 56.52 328.541 53.72C331.368 50.8933 334.808 49.48 338.861 49.48C342.915 49.48 346.341 50.8933 349.141 53.72C351.968 56.52 353.381 59.9467 353.381 64C353.381 68.0533 351.968 71.4933 349.141 74.32ZM331.781 71.2C333.701 73.0933 336.061 74.04 338.861 74.04C341.661 74.04 344.008 73.0933 345.901 71.2C347.821 69.28 348.781 66.88 348.781 64C348.781 61.12 347.821 58.7333 345.901 56.84C344.008 54.92 341.661 53.96 338.861 53.96C336.061 53.96 333.701 54.92 331.781 56.84C329.888 58.7333 328.941 61.12 328.941 64C328.941 66.88 329.888 69.28 331.781 71.2ZM367.897 50C370.537 50 372.737 50.88 374.497 52.64C376.284 54.4 377.177 56.5867 377.177 59.2C377.177 61.7867 376.284 63.9733 374.497 65.76C372.737 67.52 370.537 68.4 367.897 68.4H362.177V78H357.577V50H367.897ZM367.897 64.08C369.257 64.08 370.377 63.6267 371.257 62.72C372.137 61.7867 372.577 60.6133 372.577 59.2C372.577 57.7867 372.137 56.6267 371.257 55.72C370.377 54.7867 369.257 54.32 367.897 54.32H362.177V64.08H367.897ZM381.171 78V50H385.771V59.6H391.491C394.131 59.6 396.331 60.4933 398.091 62.28C399.878 64.04 400.771 66.2133 400.771 68.8C400.771 71.3867 399.878 73.5733 398.091 75.36C396.331 77.12 394.131 78 391.491 78H381.171ZM403.491 78V50H408.091V78H403.491ZM385.771 73.68H391.491C392.851 73.68 393.971 73.2267 394.851 72.32C395.731 71.3867 396.171 70.2133 396.171 68.8C396.171 67.3867 395.731 66.2267 394.851 65.32C393.971 64.3867 392.851 63.92 391.491 63.92H385.771V73.68Z" fill="white"/>
<path d="M635.548 109.255C626.737 118.205 615.511 124.301 603.291 126.77C591.07 129.24 578.403 127.972 566.891 123.128C555.379 118.284 545.54 110.081 538.617 99.5565C531.695 89.0318 528 76.658 528 64C528 51.342 531.695 38.9683 538.617 28.4435C545.54 17.9188 555.379 9.71572 566.891 4.87171C578.403 0.0277029 591.07 -1.23971 603.291 1.22974C615.511 3.69919 626.737 9.7946 635.548 18.7452L591 64L635.548 109.255Z" fill="#FFC700"/>
</svg>
