<svg width="111" height="29" viewBox="0 0 111 29" fill="none" xmlns="http://www.w3.org/2000/svg">
<path d="M28.193 0.999998H32.793V29H0.592969V0.999998H5.19297V24.6H14.393V0.999998H18.993V24.6H28.193V0.999998ZM56.6455 29L54.6855 23.36H42.7655L40.8055 29H35.8055L45.9655 0.999998H51.4855L61.6055 29H56.6455ZM44.2855 19.04H53.1655L48.7255 6.4L44.2855 19.04ZM80.4164 0.999998V5.4H69.2164V29H64.6164V0.999998H80.4164ZM92.2752 29V25.4L102.035 15.44C104.408 13.0667 105.595 11.0133 105.595 9.28C105.595 7.92 105.182 6.86667 104.355 6.12C103.555 5.34667 102.528 4.96 101.275 4.96C98.9285 4.96 97.1952 6.12 96.0752 8.44L92.1952 6.16C93.0752 4.29333 94.3152 2.88 95.9152 1.92C97.5152 0.959998 99.2885 0.479998 101.235 0.479998C103.688 0.479998 105.795 1.25333 107.555 2.8C109.315 4.34667 110.195 6.45333 110.195 9.12C110.195 11.9733 108.608 15.0133 105.435 18.24L99.1152 24.56H110.715V29H92.2752Z" fill="#FFC700"/>
</svg>
