<svg width="733" height="389" viewBox="0 0 733 389" fill="none" xmlns="http://www.w3.org/2000/svg">
<ellipse cx="366.5" cy="194.5" rx="366.5" ry="194.5" fill="#E83E24"/>
<path d="M321.845 163.312V177.864H310.965V195H295.189V177.864H248.405V163.312L281.181 99.8H298.181L265.405 163.312H295.189V138.56H310.965V163.312H321.845ZM394.48 183.304C387.952 192.28 378.795 196.768 367.008 196.768C355.221 196.768 346.019 192.28 339.4 183.304C332.872 174.328 329.608 162.36 329.608 147.4C329.608 132.44 332.872 120.472 339.4 111.496C346.019 102.52 355.221 98.032 367.008 98.032C378.795 98.032 387.952 102.52 394.48 111.496C401.099 120.472 404.408 132.44 404.408 147.4C404.408 162.36 401.099 174.328 394.48 183.304ZM367.008 181.536C374.08 181.536 379.475 178.589 383.192 172.696C386.909 166.803 388.768 158.371 388.768 147.4C388.768 136.429 386.909 127.997 383.192 122.104C379.475 116.211 374.08 113.264 367.008 113.264C360.027 113.264 354.632 116.211 350.824 122.104C347.107 127.997 345.248 136.429 345.248 147.4C345.248 158.371 347.107 166.803 350.824 172.696C354.632 178.589 360.027 181.536 367.008 181.536ZM486.4 163.312V177.864H475.52V195H459.744V177.864H412.96V163.312L445.736 99.8H462.736L429.96 163.312H459.744V138.56H475.52V163.312H486.4Z" fill="white"/>
<path d="M170.478 272.52C166.264 272.52 162.771 271.133 159.998 268.36C157.224 265.56 155.838 262.107 155.838 258C155.838 253.893 157.224 250.453 159.998 247.68C162.771 244.88 166.264 243.48 170.478 243.48C173.011 243.48 175.344 244.08 177.478 245.28C179.638 246.48 181.318 248.107 182.518 250.16L178.518 252.48C177.771 251.093 176.678 250 175.238 249.2C173.824 248.373 172.238 247.96 170.478 247.96C167.491 247.96 165.064 248.907 163.198 250.8C161.358 252.693 160.438 255.093 160.438 258C160.438 260.907 161.358 263.307 163.198 265.2C165.064 267.093 167.491 268.04 170.478 268.04C172.238 268.04 173.838 267.64 175.278 266.84C176.718 266.013 177.798 264.907 178.518 263.52L182.518 265.8C181.344 267.853 179.678 269.493 177.518 270.72C175.384 271.92 173.038 272.52 170.478 272.52ZM201.534 252V256.16H195.014V272H190.694V256.16H184.134V252H201.534ZM215.778 251.48C218.524 251.48 220.871 252.507 222.818 254.56C224.764 256.587 225.738 259.067 225.738 262C225.738 264.96 224.764 267.453 222.818 269.48C220.871 271.507 218.524 272.52 215.778 272.52C212.738 272.52 210.404 271.4 208.778 269.16V280H204.458V252H208.778V254.88C210.404 252.613 212.738 251.48 215.778 251.48ZM210.578 266.6C211.778 267.8 213.284 268.4 215.098 268.4C216.911 268.4 218.418 267.8 219.618 266.6C220.818 265.373 221.418 263.84 221.418 262C221.418 260.16 220.818 258.64 219.618 257.44C218.418 256.213 216.911 255.6 215.098 255.6C213.284 255.6 211.778 256.213 210.578 257.44C209.378 258.64 208.778 260.16 208.778 262C208.778 263.84 209.378 265.373 210.578 266.6ZM245.493 252H249.813V272H245.493V269.12C243.866 271.387 241.533 272.52 238.493 272.52C235.746 272.52 233.399 271.507 231.453 269.48C229.506 267.427 228.533 264.933 228.533 262C228.533 259.04 229.506 256.547 231.453 254.52C233.399 252.493 235.746 251.48 238.493 251.48C241.533 251.48 243.866 252.6 245.493 254.84V252ZM234.653 266.6C235.853 267.8 237.359 268.4 239.173 268.4C240.986 268.4 242.493 267.8 243.693 266.6C244.893 265.373 245.493 263.84 245.493 262C245.493 260.16 244.893 258.64 243.693 257.44C242.493 256.213 240.986 255.6 239.173 255.6C237.359 255.6 235.853 256.213 234.653 257.44C233.453 258.64 232.853 260.16 232.853 262C232.853 263.84 233.453 265.373 234.653 266.6ZM268.328 252H272.648V272H268.328V264.04H259.168V272H254.848V252H259.168V259.96H268.328V252ZM292.141 252H295.461V272H291.221V259.28L280.981 272H277.661V252H281.901V264.68L292.141 252ZM317.673 267.92H320.953V277.36H316.713V272H300.473V252H304.793V267.92H313.353V252H317.673V267.92ZM339.516 252H343.836V272H339.516V269.12C337.89 271.387 335.556 272.52 332.516 272.52C329.77 272.52 327.423 271.507 325.476 269.48C323.53 267.427 322.556 264.933 322.556 262C322.556 259.04 323.53 256.547 325.476 254.52C327.423 252.493 329.77 251.48 332.516 251.48C335.556 251.48 337.89 252.6 339.516 254.84V252ZM328.676 266.6C329.876 267.8 331.383 268.4 333.196 268.4C335.01 268.4 336.516 267.8 337.716 266.6C338.916 265.373 339.516 263.84 339.516 262C339.516 260.16 338.916 258.64 337.716 257.44C336.516 256.213 335.01 255.6 333.196 255.6C331.383 255.6 329.876 256.213 328.676 257.44C327.476 258.64 326.876 260.16 326.876 262C326.876 263.84 327.476 265.373 328.676 266.6ZM372.352 252H376.672V272H372.352V264.04H363.192V272H358.872V252H363.192V259.96H372.352V252ZM385.084 263.84C385.404 265.36 386.137 266.533 387.284 267.36C388.431 268.16 389.831 268.56 391.484 268.56C393.777 268.56 395.497 267.733 396.644 266.08L400.204 268.16C398.231 271.067 395.311 272.52 391.444 272.52C388.191 272.52 385.564 271.533 383.564 269.56C381.564 267.56 380.564 265.04 380.564 262C380.564 259.013 381.551 256.52 383.524 254.52C385.497 252.493 388.031 251.48 391.124 251.48C394.057 251.48 396.457 252.507 398.324 254.56C400.217 256.613 401.164 259.107 401.164 262.04C401.164 262.493 401.111 263.093 401.004 263.84H385.084ZM385.044 260.32H396.804C396.511 258.693 395.831 257.467 394.764 256.64C393.724 255.813 392.497 255.4 391.084 255.4C389.484 255.4 388.151 255.84 387.084 256.72C386.017 257.6 385.337 258.8 385.044 260.32ZM428.445 252H432.765V272H428.445V264.04H419.285V272H414.965V252H419.285V259.96H428.445V252ZM453.618 252H457.938V272H453.618V269.12C451.991 271.387 449.658 272.52 446.618 272.52C443.871 272.52 441.524 271.507 439.578 269.48C437.631 267.427 436.658 264.933 436.658 262C436.658 259.04 437.631 256.547 439.578 254.52C441.524 252.493 443.871 251.48 446.618 251.48C449.658 251.48 451.991 252.6 453.618 254.84V252ZM442.778 266.6C443.978 267.8 445.484 268.4 447.298 268.4C449.111 268.4 450.618 267.8 451.818 266.6C453.018 265.373 453.618 263.84 453.618 262C453.618 260.16 453.018 258.64 451.818 257.44C450.618 256.213 449.111 255.6 447.298 255.6C445.484 255.6 443.978 256.213 442.778 257.44C441.578 258.64 440.978 260.16 440.978 262C440.978 263.84 441.578 265.373 442.778 266.6ZM466.253 249.2V245.44H477.453V249.2H466.253ZM477.453 252H480.773V272H476.533V259.28L466.293 272H462.973V252H467.213V264.68L477.453 252ZM503.386 267.92H506.066V277.36H501.826V272H488.106V277.36H483.866V267.92H486.306C487.532 266.187 488.146 263.773 488.146 260.68V252H503.386V267.92ZM491.066 267.92H499.146V255.96H492.386V260.68C492.386 263.533 491.946 265.947 491.066 267.92ZM512.193 263.84C512.513 265.36 513.247 266.533 514.393 267.36C515.54 268.16 516.94 268.56 518.593 268.56C520.887 268.56 522.607 267.733 523.753 266.08L527.313 268.16C525.34 271.067 522.42 272.52 518.553 272.52C515.3 272.52 512.673 271.533 510.673 269.56C508.673 267.56 507.673 265.04 507.673 262C507.673 259.013 508.66 256.52 510.633 254.52C512.607 252.493 515.14 251.48 518.233 251.48C521.167 251.48 523.567 252.507 525.433 254.56C527.327 256.613 528.273 259.107 528.273 262.04C528.273 262.493 528.22 263.093 528.113 263.84H512.193ZM512.153 260.32H523.913C523.62 258.693 522.94 257.467 521.873 256.64C520.833 255.813 519.607 255.4 518.193 255.4C516.593 255.4 515.26 255.84 514.193 256.72C513.127 257.6 512.447 258.8 512.153 260.32ZM545.555 252H549.875V272H545.555V264.04H536.395V272H532.075V252H536.395V259.96H545.555V252ZM570.727 252H575.047V272H570.727V269.12C569.101 271.387 566.767 272.52 563.727 272.52C560.981 272.52 558.634 271.507 556.687 269.48C554.741 267.427 553.767 264.933 553.767 262C553.767 259.04 554.741 256.547 556.687 254.52C558.634 252.493 560.981 251.48 563.727 251.48C566.767 251.48 569.101 252.6 570.727 254.84V252ZM559.887 266.6C561.087 267.8 562.594 268.4 564.407 268.4C566.221 268.4 567.727 267.8 568.927 266.6C570.127 265.373 570.727 263.84 570.727 262C570.727 260.16 570.127 258.64 568.927 257.44C567.727 256.213 566.221 255.6 564.407 255.6C562.594 255.6 561.087 256.213 559.887 257.44C558.687 258.64 558.087 260.16 558.087 262C558.087 263.84 558.687 265.373 559.887 266.6Z" fill="white"/>
</svg>
