<svg width="48" height="48" viewBox="0 0 48 48" fill="none" xmlns="http://www.w3.org/2000/svg">
<path d="M6 18V37C6 39.762 8.239 42 11 42H37C39.762 42 42 39.762 42 37V18H6Z" fill="#FFCC80"/>
<path d="M42 18V11C42 8.238 39.762 6 37 6H11C8.239 6 6 8.238 6 11V18H42Z" fill="#795548"/>
<path d="M24 17C21.8783 17 19.8434 17.8429 18.3431 19.3431C16.8429 20.8434 16 22.8783 16 25C16 27.1217 16.8429 29.1566 18.3431 30.6569C19.8434 32.1571 21.8783 33 24 33C26.1217 33 28.1566 32.1571 29.6569 30.6569C31.1571 29.1566 32 27.1217 32 25C32 22.8783 31.1571 20.8434 29.6569 19.3431C28.1566 17.8429 26.1217 17 24 17Z" fill="#37474F"/>
<path d="M24 34C19.038 34 15 29.963 15 25C15 20.038 19.038 16 24 16C28.963 16 33 20.038 33 25C33 29.963 28.963 34 24 34ZM24 18C20.14 18 17 21.14 17 25C17 28.859 20.14 32 24 32C27.859 32 31 28.859 31 25C31 21.14 27.859 18 24 18Z" fill="#FFF3E0"/>
<path d="M24 20C22.6739 20 21.4021 20.5268 20.4645 21.4645C19.5268 22.4021 19 23.6739 19 25C19 26.3261 19.5268 27.5979 20.4645 28.5355C21.4021 29.4732 22.6739 30 24 30C25.3261 30 26.5979 29.4732 27.5355 28.5355C28.4732 27.5979 29 26.3261 29 25C29 23.6739 28.4732 22.4021 27.5355 21.4645C26.5979 20.5268 25.3261 20 24 20Z" fill="#546E7A"/>
<path d="M22 21C21.4696 21 20.9609 21.2107 20.5858 21.5858C20.2107 21.9609 20 22.4696 20 23C20 23.5304 20.2107 24.0391 20.5858 24.4142C20.9609 24.7893 21.4696 25 22 25C22.5304 25 23.0391 24.7893 23.4142 24.4142C23.7893 24.0391 24 23.5304 24 23C24 22.4696 23.7893 21.9609 23.4142 21.5858C23.0391 21.2107 22.5304 21 22 21Z" fill="#BBDEFB"/>
<path d="M8 7.02159V17.9996H10V6.10059C9.256 6.25159 8.584 6.58059 8 7.02159Z" fill="#F44336"/>
<path d="M11 6C10.657 6 10.323 6.035 10 6.101V18H12V6H11Z" fill="#FFEB3B"/>
<path d="M12 6H14V18H12V6Z" fill="#8BC34A"/>
<path d="M14 6H16V18H14V6Z" fill="#2196F3"/>
<path d="M32 9H38V15H32V9ZM16 17.5C16 18.328 15.329 19 14.5 19H9.5C8.671 19 8 18.328 8 17.5C8 16.672 8.671 16 9.5 16H14.5C15.329 16 16 16.672 16 17.5Z" fill="#3E2723"/>
</svg>
