<svg width="48" height="48" viewBox="0 0 48 48" fill="none" xmlns="http://www.w3.org/2000/svg">
<g clip-path="url(#clip0_1461_696)">
<path d="M5 18C5.7 18 6.3 18 7 18C7 22.1 7 26.1 7 30.2C6.2 30.3 5.4 30.4 4.7 30.5C3.7 28 2 23.7 2 23.7C2 23.7 2 28 2 30.8C2.4 30.8 1.8 30.8 0 31.1C0 26.8 0 22.4 0 18.1C0.8 18.1 2 18.1 2 18.1L5 25.4C5 25.4 5 20.8 5 18ZM14.7 20C14.7 19.4 14.7 18.6 14.7 18C12.8 18 10.9 18 9 18C9 22 9 26 9 30C10.9 29.8 12.8 29.6 14.7 29.4C14.7 28.8 14.7 28 14.7 27.4C13.5 27.5 12.3 27.5 11 27.8C11 26.7 11 26.1 11 25C11.9 25 13.1 25 14 25C14 24.4 14 23.6 14 23C13.1 23 11.9 23 11 23C11 21.9 11 21.1 11 20C11.6 20.1 14.2 20.1 14.7 20ZM16 20C16.1 20 17.9 20 18 20C18 23.2 18 26 18 29.2C18.7 29.2 19.3 29.2 20 29.1C20 25.9 20 23.2 20 20C20.7 20 21.3 20 22 20C22 19.4 22 18.6 22 18C19.9 18 18.1 18 16 18C16 18.6 16 19.4 16 20ZM28.6 18C26.7 18 24.9 18 23 18C23 21.8 23 25.2 23 29C23.2 29 23.4 29 23.6 29C24 29 24.5 29 25 29C25 27.4 25 26.6 25 25C25.1 25 27.4 25 27.7 25C27.7 24.4 27.7 23.6 27.7 23C27.4 23 25.1 23 25 23C25 22 25 21 25 20C25.2 20 28.1 20 28.6 20C28.6 19.5 28.6 18.6 28.6 18ZM32 27.5C32 24.2 32 21.3 32 18C31.3 18 30.7 18 30 18C30 21.8 30 25.4 30 29.2C31.8 29.3 33.6 29.4 35.4 29.6C35.4 29 35.4 28.3 35.4 27.7C34.3 27.6 33.1 27.5 32 27.5ZM37 29.7C37.7 29.8 38.3 29.8 39 29.9C39 25.9 39 22 39 18C38.3 18 37.7 18 37 18C37 22 37 25.8 37 29.7ZM45.4 24.2C46.3 22.2 47.1 20.2 48 18.1C47.3 18.1 46.5 18.1 45.8 18.1C45.3 19.4 44.9 20.3 44.4 21.5C43.9 20.2 43.6 19.3 43.1 18.1C42.4 18.1 41.6 18.1 40.9 18.1C41.7 20.1 42.4 22.1 43.3 24.2C42.4 26.2 41.6 28.2 40.7 30.2C41.4 30.3 42.1 30.4 42.8 30.5C43.3 29.2 43.8 28.3 44.3 27C44.8 28.4 45.3 29.4 45.8 30.8C46.5 30.9 47.4 31 48.1 31.1C47.1 28.7 46.2 26.3 45.4 24.2Z" fill="#F44336"/>
</g>
<defs>
<clipPath id="clip0_1461_696">
<rect width="48" height="48" fill="white"/>
</clipPath>
</defs>
</svg>
