<svg width="654" height="128" viewBox="0 0 654 128" fill="none" xmlns="http://www.w3.org/2000/svg">
<path d="M0 0H590V128H0V0Z" fill="#E83E24"/>
<path d="M199.603 50V78H195.003V54.4H183.603V78H179.003V50H199.603ZM215.534 50C218.174 50 220.374 50.88 222.134 52.64C223.921 54.4 224.814 56.5867 224.814 59.2C224.814 61.7867 223.921 63.9733 222.134 65.76C220.374 67.52 218.174 68.4 215.534 68.4H209.814V78H205.214V50H215.534ZM215.534 64.08C216.894 64.08 218.014 63.6267 218.894 62.72C219.774 61.7867 220.214 60.6133 220.214 59.2C220.214 57.7867 219.774 56.6267 218.894 55.72C218.014 54.7867 216.894 54.32 215.534 54.32H209.814V64.08H215.534ZM251.973 74.32C249.173 77.12 245.747 78.52 241.693 78.52C237.64 78.52 234.2 77.12 231.373 74.32C228.573 71.4933 227.173 68.0533 227.173 64C227.173 59.9467 228.573 56.52 231.373 53.72C234.2 50.8933 237.64 49.48 241.693 49.48C245.747 49.48 249.173 50.8933 251.973 53.72C254.8 56.52 256.213 59.9467 256.213 64C256.213 68.0533 254.8 71.4933 251.973 74.32ZM234.613 71.2C236.533 73.0933 238.893 74.04 241.693 74.04C244.493 74.04 246.84 73.0933 248.733 71.2C250.653 69.28 251.613 66.88 251.613 64C251.613 61.12 250.653 58.7333 248.733 56.84C246.84 54.92 244.493 53.96 241.693 53.96C238.893 53.96 236.533 54.92 234.613 56.84C232.72 58.7333 231.773 61.12 231.773 64C231.773 66.88 232.72 69.28 234.613 71.2ZM276.209 50V54.4H265.009V78H260.409V50H276.209ZM289.948 50C292.588 50 294.788 50.88 296.548 52.64C298.335 54.4 299.228 56.5867 299.228 59.2C299.228 61.7867 298.335 63.9733 296.548 65.76C294.788 67.52 292.588 68.4 289.948 68.4H284.228V78H279.628V50H289.948ZM289.948 64.08C291.308 64.08 292.428 63.6267 293.308 62.72C294.188 61.7867 294.628 60.6133 294.628 59.2C294.628 57.7867 294.188 56.6267 293.308 55.72C292.428 54.7867 291.308 54.32 289.948 54.32H284.228V64.08H289.948ZM318.649 78L316.689 72.36H304.769L302.809 78H297.809L307.969 50H313.489L323.609 78H318.649ZM306.289 68.04H315.169L310.729 55.4L306.289 68.04ZM353.42 50V78H348.82V58.04L340.3 72.12H339.74L331.22 58V78H326.62V50H331.58L340.02 64L348.5 50H353.42ZM385.803 50V78H381.203V58.04L372.683 72.12H372.123L363.603 58V78H359.003V50H363.963L372.403 64L380.883 50H385.803ZM409.626 78L407.666 72.36H395.746L393.786 78H388.786L398.946 50H404.466L414.586 78H409.626ZM397.266 68.04H406.146L401.706 55.4L397.266 68.04Z" fill="white"/>
<path d="M635.548 109.255C626.737 118.205 615.511 124.301 603.291 126.77C591.07 129.24 578.403 127.972 566.891 123.128C555.379 118.284 545.54 110.081 538.617 99.5565C531.695 89.0318 528 76.658 528 64C528 51.342 531.695 38.9683 538.617 28.4435C545.54 17.9188 555.379 9.71572 566.891 4.87171C578.403 0.0277029 591.07 -1.23971 603.291 1.22974C615.511 3.69919 626.737 9.7946 635.548 18.7452L591 64L635.548 109.255Z" fill="#FFC700"/>
</svg>
