<svg width="112" height="29" viewBox="0 0 112 29" fill="none" xmlns="http://www.w3.org/2000/svg">
<path d="M27.9781 -1.90735e-06H32.5781V28H0.378125V-1.90735e-06H4.97813V23.6H14.1781V-1.90735e-06H18.7781V23.6H27.9781V-1.90735e-06ZM56.4306 28L54.4706 22.36H42.5506L40.5906 28H35.5906L45.7506 -1.90735e-06H51.2706L61.3906 28H56.4306ZM44.0706 18.04H52.9506L48.5106 5.4L44.0706 18.04ZM80.2016 -1.90735e-06V4.4H69.0016V28H64.4016V-1.90735e-06H80.2016ZM104.18 11.44C106.207 11.92 107.847 12.8667 109.1 14.28C110.38 15.6667 111.02 17.4133 111.02 19.52C111.02 22.32 110.074 24.52 108.18 26.12C106.287 27.72 103.967 28.52 101.22 28.52C99.087 28.52 97.167 28.0267 95.4603 27.04C93.7803 26.0533 92.567 24.6133 91.8203 22.72L95.7403 20.44C96.567 22.84 98.3936 24.04 101.22 24.04C102.82 24.04 104.087 23.64 105.02 22.84C105.954 22.0133 106.42 20.9067 106.42 19.52C106.42 18.1333 105.954 17.04 105.02 16.24C104.087 15.44 102.82 15.04 101.22 15.04H100.18L98.3403 12.28L104.38 4.32H92.6603V-1.90735e-06H109.86V3.92L104.18 11.44Z" fill="#255946"/>
</svg>
