<svg width="104" height="28" viewBox="0 0 104 28" fill="none" xmlns="http://www.w3.org/2000/svg">
<path d="M28.3375 -1.90735e-06H32.9375V28H0.7375V-1.90735e-06H5.3375V23.6H14.5375V-1.90735e-06H19.1375V23.6H28.3375V-1.90735e-06ZM56.79 28L54.83 22.36H42.91L40.95 28H35.95L46.11 -1.90735e-06H51.63L61.75 28H56.79ZM44.43 18.04H53.31L48.87 5.4L44.43 18.04ZM80.5609 -1.90735e-06V4.4H69.3609V28H64.7609V-1.90735e-06H80.5609ZM99.0597 -1.90735e-06H103.06V28H98.4597V4.92L92.8197 6.52L91.6997 2.6L99.0597 -1.90735e-06Z" fill="#E83E24"/>
</svg>
