<svg width="658" height="128" viewBox="0 0 658 128" fill="none" xmlns="http://www.w3.org/2000/svg">
<path d="M0 0H590V128H0V0Z" fill="#E83E24"/>
<path d="M185.196 63.48C188.05 64.84 189.476 67.0933 189.476 70.24C189.476 72.6933 188.543 74.6933 186.676 76.24C184.836 77.76 182.423 78.52 179.436 78.52C174.316 78.52 170.93 76.36 169.276 72.04L173.236 69.76C174.063 72.72 176.13 74.2 179.436 74.2C181.196 74.2 182.543 73.8267 183.476 73.08C184.41 72.3067 184.876 71.28 184.876 70C184.876 68.7467 184.423 67.7467 183.516 67C182.636 66.2267 181.383 65.84 179.756 65.84H176.356V61.68H178.836C180.41 61.68 181.636 61.32 182.516 60.6C183.396 59.88 183.836 58.92 183.836 57.72C183.836 56.52 183.436 55.5733 182.636 54.88C181.836 54.16 180.69 53.8 179.196 53.8C176.423 53.8 174.556 55.0667 173.596 57.6L169.676 55.32C171.49 51.4267 174.663 49.48 179.196 49.48C181.943 49.48 184.17 50.2267 185.876 51.72C187.583 53.1867 188.436 55.1067 188.436 57.48C188.436 60.12 187.356 62.12 185.196 63.48ZM211.735 78L209.775 72.36H197.855L195.895 78H190.895L201.055 50H206.575L216.695 78H211.735ZM199.375 68.04H208.255L203.815 55.4L199.375 68.04ZM236.186 63.48C237.413 64.12 238.373 65 239.066 66.12C239.76 67.24 240.106 68.5333 240.106 70C240.106 72.2933 239.293 74.2 237.666 75.72C236.04 77.24 234.053 78 231.706 78H219.706V50H230.826C233.12 50 235.053 50.7467 236.626 52.24C238.226 53.7067 239.026 55.5467 239.026 57.76C239.026 60.1867 238.08 62.0933 236.186 63.48ZM230.826 54.32H224.306V61.68H230.826C231.84 61.68 232.693 61.3333 233.386 60.64C234.08 59.92 234.426 59.04 234.426 58C234.426 56.96 234.08 56.0933 233.386 55.4C232.693 54.68 231.84 54.32 230.826 54.32ZM231.706 73.68C232.773 73.68 233.666 73.3067 234.386 72.56C235.133 71.7867 235.506 70.8533 235.506 69.76C235.506 68.6667 235.133 67.7467 234.386 67C233.666 66.2267 232.773 65.84 231.706 65.84H224.306V73.68H231.706ZM248.72 73.6H261.12V78H244.12V50H260.92V54.4H248.72V61.68H259.92V66.04H248.72V73.6ZM286.331 73.6H289.331V83.36H284.731V78H267.731V83.36H263.131V73.6H265.731C267.358 71.4667 268.171 68.2533 268.171 63.96V50H286.331V73.6ZM270.771 73.6H281.731V54.32H272.771V64.04C272.771 68.2 272.105 71.3867 270.771 73.6ZM297.939 73.6H310.339V78H293.339V50H310.139V54.4H297.939V61.68H309.139V66.04H297.939V73.6ZM331.15 50H335.75V78H331.15V65.88H319.15V78H314.55V50H319.15V61.48H331.15V50ZM358.147 78V59L344.947 78H341.347V50H345.947V69L359.147 50H362.747V78H358.147ZM387.659 50V78H383.059V67.8H378.619L371.859 78H366.659L373.779 67.4C371.939 66.84 370.419 65.7867 369.219 64.24C368.046 62.6667 367.459 60.92 367.459 59C367.459 56.4933 368.326 54.3733 370.059 52.64C371.819 50.88 373.952 50 376.459 50H387.659ZM376.459 63.68H383.059V54.32H376.459C375.232 54.32 374.192 54.7733 373.339 55.68C372.486 56.5867 372.059 57.6933 372.059 59C372.059 60.3067 372.486 61.4133 373.339 62.32C374.192 63.2267 375.232 63.68 376.459 63.68ZM420.061 50V78H415.461V58.04L406.941 72.12H406.381L397.861 58V78H393.261V50H398.221L406.661 64L415.141 50H420.061Z" fill="white"/>
<path d="M639.548 109.255C630.737 118.205 619.511 124.301 607.291 126.77C595.07 129.24 582.403 127.972 570.891 123.128C559.379 118.284 549.54 110.081 542.617 99.5565C535.695 89.0318 532 76.658 532 64C532 51.342 535.695 38.9683 542.617 28.4435C549.54 17.9188 559.379 9.71572 570.891 4.87171C582.403 0.0277029 595.07 -1.23971 607.291 1.22974C619.511 3.69919 630.737 9.7946 639.548 18.7452L595 64L639.548 109.255Z" fill="#FFC700"/>
</svg>
