<svg width="24" height="24" viewBox="0 0 24 24" fill="none" xmlns="http://www.w3.org/2000/svg">
<path fill-rule="evenodd" clip-rule="evenodd" d="M12 21C13.1819 21 14.3522 20.7672 15.4442 20.3149C16.5361 19.8626 17.5282 19.1997 18.364 18.364C19.1997 17.5282 19.8626 16.5361 20.3149 15.4442C20.7672 14.3522 21 13.1819 21 12C21 10.8181 20.7672 9.64778 20.3149 8.55585C19.8626 7.46392 19.1997 6.47177 18.364 5.63604C17.5282 4.80031 16.5361 4.13738 15.4442 3.68508C14.3522 3.23279 13.1819 3 12 3C9.61305 3 7.32387 3.94821 5.63604 5.63604C3.94821 7.32387 3 9.61305 3 12C3 14.3869 3.94821 16.6761 5.63604 18.364C7.32387 20.0518 9.61305 21 12 21ZM9.707 13.707C9.5184 13.8892 9.2658 13.99 9.0036 13.9877C8.7414 13.9854 8.49059 13.8802 8.30518 13.6948C8.11977 13.5094 8.0146 13.2586 8.01233 12.9964C8.01005 12.7342 8.11084 12.4816 8.293 12.293L11.293 9.293C11.4805 9.10553 11.7348 9.00021 12 9.00021C12.2652 9.00021 12.5195 9.10553 12.707 9.293L15.707 12.293C15.8892 12.4816 15.99 12.7342 15.9877 12.9964C15.9854 13.2586 15.8802 13.5094 15.6948 13.6948C15.5094 13.8802 15.2586 13.9854 14.9964 13.9877C14.7342 13.99 14.4816 13.8892 14.293 13.707L12 11.414L9.707 13.707Z" fill="#255946"/>
</svg>
