<svg width="80" height="80" viewBox="0 0 80 80" fill="none" xmlns="http://www.w3.org/2000/svg">
<g clip-path="url(#clip0_2011_101711)">
<mask id="mask0_2011_101711" style="mask-type:luminance" maskUnits="userSpaceOnUse" x="0" y="0" width="80" height="80">
<path d="M79.6025 0H0.394531V80H79.6025V0Z" fill="white"/>
</mask>
<g mask="url(#mask0_2011_101711)">
<path fill-rule="evenodd" clip-rule="evenodd" d="M5.9624 5.62355C0.394531 11.2471 0.394531 20.2981 0.394531 38.4V41.6C0.394531 59.7019 0.394531 68.7529 5.9624 74.3765C11.5303 80 20.4916 80 38.4143 80H41.5826C59.5053 80 68.4667 80 74.0346 74.3765C79.6024 68.7529 79.6025 59.7019 79.6025 41.6V38.4C79.6025 20.2981 79.6024 11.2471 74.0346 5.62355C68.4667 0 59.5053 0 41.5826 0H38.4143C20.4916 0 11.5303 0 5.9624 5.62355ZM13.761 24.3335C14.19 45.1335 24.487 57.6334 42.5398 57.6334H43.5631V45.7334C50.1968 46.4001 55.2129 51.3002 57.2261 57.6334H66.5993C64.025 48.1668 57.259 42.9334 53.0346 40.9334C57.259 38.4668 63.1997 32.4668 64.6188 24.3335H56.1037C54.2555 30.9335 48.7776 36.9334 43.5631 37.5001V24.3335H35.0479V47.4001C29.7674 46.0668 23.1009 39.6002 22.8039 24.3335H13.761Z" fill="white"/>
</g>
</g>
<defs>
<clipPath id="clip0_2011_101711">
<rect width="80" height="80" fill="white"/>
</clipPath>
</defs>
</svg>
