<svg width="1920" height="800" viewBox="0 0 1920 800" fill="none" xmlns="http://www.w3.org/2000/svg">
<mask id="mask0_1113_556" style="mask-type:luminance" maskUnits="userSpaceOnUse" x="0" y="0" width="1920" height="800">
<path d="M1920 0H0V800H1920V0Z" fill="white"/>
</mask>
<g mask="url(#mask0_1113_556)">
<path d="M1920 0H0V800H1920V0Z" fill="#FFC700"/>
<path d="M953.263 378C967.736 392.473 967.736 415.937 953.263 430.409C938.791 444.882 915.327 444.882 900.854 430.409C886.382 415.937 886.382 392.473 900.854 378L927.059 404.205L953.263 378Z" stroke="white" stroke-width="2.66675" stroke-miterlimit="10"/>
<path d="M1623 676.584L2040.89 153.121L2066.55 156.825L1642.19 690.637L1623 676.584Z" fill="#FFC700" stroke="white" stroke-width="1.99997" stroke-miterlimit="22.9256" stroke-linecap="round" stroke-linejoin="round"/>
<path d="M1744.69 778.817L2040.06 153L2063.01 156.315L1756.91 785.77L1744.69 778.817Z" fill="#FFC700" stroke="white" stroke-width="1.99997" stroke-miterlimit="22.9256" stroke-linecap="round" stroke-linejoin="round"/>
<path d="M1661.86 643.335C1658.33 653.294 1659.41 661.203 1664.19 670.616C1668.96 680.031 1676.26 687.937 1683.71 695.485C1693.07 704.97 1702.95 714.209 1714.72 720.586C1726.49 726.963 1740.46 730.28 1753.57 727.243C1763.64 724.909 1772.61 718.959 1779.71 711.526C1786.8 704.099 1792.16 695.223 1796.77 686.088C1805.18 669.437 1811.33 650.207 1805.92 632.436C1803.03 622.971 1797.06 614.704 1790.42 607.299C1777.11 592.454 1759.48 579.871 1739.4 578.46C1724.18 577.389 1716.56 583.181 1703.03 590.192C1691.88 595.968 1666.03 628.645 1661.86 643.335Z" fill="#FFC700" stroke="white" stroke-width="1.99997" stroke-miterlimit="10" stroke-linecap="round" stroke-linejoin="round"/>
<path d="M1671.71 660.622C1677.85 675.623 1690.61 686.841 1702.95 697.496C1712.52 705.757 1722.86 714.376 1735.48 716.058C1751.14 718.147 1766.24 708.864 1777.09 697.5C1791.42 682.479 1801.22 661.539 1797.05 641.387C1794.4 628.579 1786.38 617.351 1776.63 608.494C1768.78 601.351 1759.59 595.468 1749.39 592.302C1739.18 589.13 1727.92 588.798 1717.83 592.368C1703.98 597.264 1693.71 608.769 1684.97 620.439C1676.22 632.136 1666.04 646.744 1671.71 660.622Z" fill="#FFC700" stroke="white" stroke-width="1.99997" stroke-miterlimit="10" stroke-linecap="round" stroke-linejoin="round"/>
<path d="M1770.24 613.187C1769.26 612.021 1768.32 610.754 1767.05 610.189C1766.43 609.889 1765.78 609.719 1765.18 609.782C1764.56 609.853 1764.06 610.112 1763.64 610.551C1762.82 611.445 1762.45 612.696 1762.75 613.893C1763 615.11 1763.74 616.299 1764.67 617.336C1765.07 617.777 1765.04 618.467 1764.59 618.871C1764.31 619.123 1763.92 619.199 1763.59 619.115C1762.2 618.759 1760.76 618.575 1759.51 618.815C1758.9 618.938 1758.34 619.148 1757.91 619.533C1757.44 619.947 1757.18 620.365 1756.95 620.991C1756.57 622.203 1756.78 623.654 1757.46 624.924C1758.06 626.257 1759.09 627.414 1760.03 628.65C1758.76 627.768 1757.55 626.775 1756.53 625.484C1755.59 624.162 1755 622.407 1755.31 620.603C1755.43 619.733 1755.93 618.74 1756.6 618.125C1757.29 617.432 1758.19 617.018 1759.06 616.786C1760.84 616.39 1762.53 616.634 1764.11 616.993L1763.03 618.774C1761.98 617.53 1761.01 616.051 1760.72 614.25C1760.42 612.465 1761.05 610.425 1762.54 609.296C1763.25 608.713 1764.25 608.372 1765.15 608.409C1766.08 608.45 1766.92 608.796 1767.6 609.285C1768.95 610.342 1769.66 611.778 1770.24 613.187Z" fill="#FFC700" stroke="white" stroke-width="1.99997" stroke-miterlimit="10" stroke-linecap="round" stroke-linejoin="round"/>
<path d="M1783.96 641.535C1782.87 638.049 1778.51 636.592 1775.79 638.083C1775.47 638.266 1775.07 638.558 1774.86 638.77C1774.59 639.041 1774.35 639.342 1774.13 639.665C1773.72 640.317 1773.45 641.065 1773.34 641.832C1773.13 643.356 1773.49 644.961 1774.5 645.969C1774.89 646.361 1774.89 646.998 1774.5 647.392C1774.12 647.778 1773.49 647.785 1773.09 647.41L1773.04 647.359C1771.94 646.306 1770.2 645.864 1768.63 646.178C1768.25 646.264 1767.87 646.377 1767.51 646.538C1767.21 646.679 1766.77 646.956 1766.53 647.164C1765.92 647.655 1765.4 648.292 1765.04 649.018C1764.68 649.745 1764.47 650.549 1764.43 651.348C1764.43 651.799 1764.44 652.066 1764.53 652.583C1764.59 652.933 1764.71 653.343 1764.85 653.726C1765.46 655.268 1766.72 656.56 1768.23 657.336L1768.32 657.378C1768.74 657.599 1768.92 658.124 1768.7 658.552C1768.49 658.955 1768.01 659.125 1767.6 658.963C1765.61 658.164 1762.77 659.394 1762.02 661.602C1761.18 663.801 1762.61 666.749 1765.15 667.584C1763.82 667.418 1762.58 666.581 1761.8 665.424C1761.4 664.845 1761.1 664.188 1760.94 663.48C1760.78 662.815 1760.78 661.957 1760.95 661.288C1761.76 658.354 1765.04 656.45 1768.14 657.3L1767.51 658.928C1765.52 658.119 1763.89 656.513 1762.98 654.521C1762.76 654.017 1762.59 653.51 1762.46 652.917C1762.38 652.488 1762.31 651.798 1762.32 651.287C1762.35 650.168 1762.62 649.076 1763.11 648.072C1763.59 647.076 1764.28 646.168 1765.16 645.455C1765.67 645.065 1766.06 644.843 1766.62 644.569C1767.14 644.34 1767.69 644.176 1768.24 644.07C1770.43 643.675 1772.86 644.251 1774.48 645.944L1773.02 647.337C1771.57 645.714 1771.16 643.448 1771.63 641.504C1771.85 640.52 1772.27 639.586 1772.87 638.784C1773.18 638.383 1773.53 638.021 1773.92 637.689C1774.39 637.323 1774.73 637.12 1775.2 636.892C1778.97 635.218 1783.51 637.907 1783.96 641.535Z" fill="#FFC700" stroke="white" stroke-width="1.99997" stroke-miterlimit="10" stroke-linecap="round" stroke-linejoin="round"/>
<path d="M1777.48 682.897C1776.7 681.034 1775.33 679.461 1773.62 678.587C1771.92 677.719 1769.96 677.571 1768.24 678.231C1767.4 678.549 1766.63 679.049 1766.04 679.684C1765.72 680.058 1765.55 680.268 1765.3 680.757C1765.14 681.11 1765 681.492 1764.91 681.912C1764.54 683.562 1765.13 685.415 1766.38 686.342L1764.92 687.838C1763.57 686.14 1760.22 686.324 1758.99 688.047C1758.86 688.23 1758.65 688.616 1758.61 688.744C1758.52 688.988 1758.45 689.256 1758.41 689.529C1758.34 690.08 1758.4 690.667 1758.57 691.218C1758.9 692.328 1759.69 693.307 1760.72 693.686L1759.88 695.421C1757.7 693.949 1753.84 694.867 1752.66 697.536C1752.52 697.851 1752.4 698.281 1752.36 698.571C1752.31 698.925 1752.3 699.292 1752.31 699.668C1752.34 700.412 1752.55 701.166 1752.9 701.858C1753.6 703.238 1754.88 704.395 1756.5 704.787C1754.82 704.708 1753.25 703.664 1752.28 702.224C1751.79 701.508 1751.44 700.678 1751.28 699.794C1751.19 699.349 1751.18 698.896 1751.21 698.436C1751.27 697.904 1751.35 697.536 1751.5 697.08C1752.82 693.553 1757.42 691.741 1760.92 693.78C1761.38 694.051 1761.53 694.643 1761.26 695.103C1761.03 695.503 1760.55 695.673 1760.12 695.531L1760.08 695.516C1758.35 694.949 1757.09 693.482 1756.57 691.858C1756.3 691.036 1756.2 690.16 1756.3 689.281C1756.35 688.838 1756.45 688.407 1756.61 687.973C1756.84 687.427 1756.97 687.182 1757.25 686.774C1759.53 683.806 1764.1 683.711 1766.54 686.498C1766.92 686.938 1766.87 687.599 1766.44 687.978C1766.05 688.319 1765.47 688.31 1765.08 687.994C1763.11 686.387 1762.51 683.729 1763.08 681.482C1763.22 680.917 1763.46 680.359 1763.78 679.826C1764.01 679.431 1764.49 678.855 1764.87 678.508C1765.72 677.724 1766.74 677.181 1767.8 676.876C1769.92 676.249 1772.33 676.584 1774.07 677.851C1775.82 679.063 1777.06 680.909 1777.48 682.897Z" fill="#FFC700" stroke="white" stroke-width="1.99997" stroke-miterlimit="10" stroke-linecap="round" stroke-linejoin="round"/>
<path d="M1728.84 694.729C1728.1 693.308 1727.11 692.033 1725.83 691.248C1724.58 690.426 1723.11 690.099 1721.74 690.387C1720.42 690.63 1719.18 691.543 1718.84 692.621C1718.42 693.772 1718.63 695.181 1719.46 695.844C1719.92 696.217 1720 696.895 1719.63 697.358C1719.28 697.794 1718.66 697.887 1718.2 697.595L1718.14 697.555C1716.9 696.758 1715.38 696.3 1713.97 696.501C1713.29 696.581 1712.53 696.852 1712.03 697.217C1711.45 697.616 1710.98 698.18 1710.66 698.805C1709.95 700.069 1710.2 701.564 1711.24 702.846C1712.21 704.144 1713.64 705.371 1714.39 707L1714.2 707.009L1714.65 706.325L1714.39 707.098C1714.37 707.148 1714.32 707.177 1714.27 707.16L1714.22 707.126L1714.2 707.106C1713.16 705.728 1711.64 704.933 1710.34 703.626C1710.02 703.293 1709.71 702.935 1709.45 702.516C1709.16 702.055 1708.97 701.651 1708.83 701.144C1708.53 700.134 1708.65 699.041 1709.01 698.086C1709.38 697.117 1710.03 696.291 1710.83 695.638C1711.71 694.956 1712.61 694.578 1713.65 694.414C1715.68 694.118 1717.72 694.63 1719.35 695.763L1718.03 697.473C1716.39 695.99 1716.17 693.62 1716.98 691.852C1717.17 691.411 1717.45 690.966 1717.79 690.569C1718.02 690.301 1718.53 689.857 1718.88 689.639C1719.7 689.12 1720.63 688.869 1721.53 688.793C1723.34 688.642 1725.18 689.28 1726.44 690.452C1727.69 691.631 1728.53 693.141 1728.84 694.729Z" fill="#FFC700" stroke="white" stroke-width="1.99997" stroke-miterlimit="10" stroke-linecap="round" stroke-linejoin="round"/>
<path d="M1705.79 676.193C1703.97 674.168 1701.58 672.477 1699.25 672.973C1698.69 673.091 1698.18 673.287 1697.77 673.58C1697.51 673.796 1697.47 673.794 1697.22 674.113C1697.1 674.294 1697.02 674.454 1696.94 674.699C1696.59 675.604 1696.91 676.698 1697.54 677.032C1698.07 677.314 1698.27 677.968 1697.98 678.497C1697.72 678.985 1697.12 679.186 1696.62 678.989C1695.64 678.609 1694.54 678.552 1693.54 678.769C1693.28 678.825 1693.04 678.897 1692.81 678.996C1692.61 679.078 1692.31 679.243 1692.14 679.36C1691.75 679.647 1691.34 679.991 1691.05 680.421C1690.44 681.24 1690.24 682.439 1690.63 683.398C1690.99 684.445 1691.94 685.347 1693.2 685.59C1691.9 685.832 1690.51 685.056 1689.71 683.871C1688.89 682.581 1688.98 680.954 1689.63 679.611C1689.96 678.948 1690.41 678.331 1691.01 677.852C1691.35 677.582 1691.6 677.432 1691.96 677.228C1692.29 677.056 1692.65 676.917 1693 676.805C1694.44 676.362 1695.97 676.477 1697.35 676.947L1696.44 678.905C1694.61 677.798 1694.34 675.549 1694.98 673.951C1695.13 673.553 1695.4 673.119 1695.71 672.767C1695.89 672.549 1696.4 672.118 1696.71 671.95C1697.45 671.504 1698.27 671.274 1699.07 671.258C1700.68 671.184 1702.22 671.804 1703.34 672.74C1704.44 673.734 1705.25 674.913 1705.79 676.193Z" fill="#FFC700" stroke="white" stroke-width="1.99997" stroke-miterlimit="10" stroke-linecap="round" stroke-linejoin="round"/>
<path d="M1742.72 598.797C1740.29 599.216 1738.03 600.446 1737.21 602.4C1736.99 602.878 1736.9 603.377 1736.86 603.852C1736.85 604.139 1736.85 604.236 1736.9 604.583C1736.94 604.767 1737 604.987 1737.09 605.204C1737.45 606.047 1738.18 606.748 1738.97 606.899C1739.56 607.006 1739.95 607.576 1739.84 608.169C1739.73 608.76 1739.16 609.15 1738.57 609.038L1738.56 609.036L1738.54 609.028C1737.75 608.876 1736.77 609.279 1736.16 610.021C1736.01 610.198 1735.87 610.389 1735.76 610.594C1735.67 610.758 1735.55 611.091 1735.5 611.269C1735.39 611.754 1735.38 612.277 1735.43 612.814C1735.68 615.03 1737.6 616.886 1739.73 618.302C1737.27 617.73 1734.59 616.128 1733.76 613.175C1733.55 612.463 1733.48 611.685 1733.61 610.908C1733.69 610.459 1733.76 610.178 1733.93 609.755C1734.09 609.381 1734.29 609.03 1734.53 608.707C1735.51 607.468 1737.14 606.581 1738.92 606.887L1738.49 609.02C1736.86 608.618 1735.66 607.358 1735.17 605.912C1735.05 605.55 1734.97 605.171 1734.93 604.746C1734.91 604.482 1734.92 603.961 1734.97 603.643C1735.07 602.896 1735.37 602.211 1735.75 601.611C1737.31 599.107 1740.31 598.339 1742.72 598.797Z" fill="#FFC700" stroke="white" stroke-width="1.99997" stroke-miterlimit="10" stroke-linecap="round" stroke-linejoin="round"/>
<path d="M1720.22 597.401C1718.07 598.489 1716.59 600.587 1716.23 602.78C1716.05 603.86 1716.12 605.042 1716.57 605.844C1716.97 606.676 1717.93 606.911 1718.33 606.656L1718.34 606.649L1718.92 608.743C1716.78 608.89 1714.55 609.665 1713.66 611.628C1713.22 612.544 1713.19 613.765 1713.83 614.619C1714.45 615.495 1715.65 616.111 1716.81 615.752C1715.72 616.292 1714.3 615.884 1713.42 614.974C1712.45 614.012 1712.26 612.54 1712.63 611.263C1712.98 609.978 1713.89 608.839 1714.98 608.095C1716.08 607.33 1717.33 606.879 1718.57 606.585C1719.15 606.443 1719.74 606.807 1719.88 607.389C1720.01 607.948 1719.69 608.511 1719.14 608.679L1719.08 608.701C1717.14 609.261 1715.51 607.872 1715.06 606.494C1714.59 605.069 1714.79 603.733 1715.17 602.514C1715.99 600.068 1717.94 598.151 1720.22 597.401Z" fill="#FFC700" stroke="white" stroke-width="1.99997" stroke-miterlimit="10" stroke-linecap="round" stroke-linejoin="round"/>
<path d="M1700.54 611.836C1698.07 612.388 1695.94 613.762 1694.66 615.637C1694.04 616.568 1693.56 617.617 1693.64 618.496C1693.64 618.668 1693.7 618.946 1693.76 619.083C1693.83 619.265 1693.93 619.439 1694.06 619.586C1694.31 619.887 1694.62 620.029 1694.89 620.063L1694.97 620.071C1695.56 620.148 1695.98 620.686 1695.91 621.281C1695.84 621.85 1695.34 622.26 1694.78 622.227C1692.84 622.124 1690.84 622.935 1689.4 624.355C1688 625.81 1687.21 627.995 1687.4 630.299C1686.36 628.185 1686.64 625.402 1688.15 623.325C1689.62 621.204 1692.24 619.977 1694.87 620.06L1694.76 622.229C1693.76 622.186 1692.91 621.611 1692.38 620.935C1692.11 620.591 1691.9 620.212 1691.76 619.801C1691.6 619.345 1691.56 618.995 1691.54 618.541C1691.59 616.873 1692.38 615.554 1693.32 614.549C1695.2 612.496 1697.99 611.436 1700.54 611.836Z" fill="#FFC700" stroke="white" stroke-width="1.99997" stroke-miterlimit="10" stroke-linecap="round" stroke-linejoin="round"/>
<path d="M1682.77 644.925C1680.33 645.358 1678.49 647.352 1678.32 649.343C1678.31 649.58 1678.29 649.926 1678.31 650.085C1678.33 650.331 1678.37 650.575 1678.44 650.814C1678.56 651.296 1678.78 651.756 1679.04 652.179C1679.57 653.029 1680.38 653.669 1681.27 653.991L1680.24 655.822C1679.96 655.536 1679.24 655.489 1678.65 655.792C1678.51 655.869 1678.38 655.961 1678.27 656.064C1678.18 656.127 1678.02 656.364 1677.96 656.453C1677.76 656.747 1677.63 657.112 1677.57 657.515C1677.32 659.181 1678.41 660.952 1679.48 662.658C1677.91 661.516 1676.12 659.945 1676.02 657.463C1675.99 656.872 1676.08 656.243 1676.32 655.638C1676.49 655.281 1676.6 655.099 1676.85 654.785C1677.08 654.526 1677.34 654.298 1677.62 654.109C1678.7 653.38 1680.35 653.142 1681.64 654.204C1682.1 654.574 1682.16 655.247 1681.79 655.701C1681.51 656.046 1681.06 656.166 1680.66 656.047L1680.61 656.03C1679.14 655.588 1677.96 654.529 1677.23 653.275C1676.85 652.645 1676.6 651.942 1676.48 651.217C1676.43 650.852 1676.4 650.485 1676.4 650.109C1676.43 649.654 1676.45 649.387 1676.55 649.013C1677.31 646.122 1680.26 644.354 1682.77 644.925Z" fill="#FFC700" stroke="white" stroke-width="1.99997" stroke-miterlimit="10" stroke-linecap="round" stroke-linejoin="round"/>
<path d="M1688.15 657.876C1697.23 667.419 1708.26 675.152 1720.39 680.484C1726.97 683.381 1734.37 685.597 1741.35 683.754C1750.73 681.28 1756.97 671.621 1757.38 662.069C1757.79 652.517 1753.29 643.31 1747.15 635.925C1740.46 627.872 1731.42 621.386 1721.07 619.25C1710.72 617.114 1699.06 619.847 1691.89 627.539C1684.72 635.225 1680.49 649.834 1688.15 657.876Z" fill="#FFC700" stroke="white" stroke-width="1.99997" stroke-miterlimit="10" stroke-linecap="round" stroke-linejoin="round"/>
<path d="M1700.38 653.766C1703.47 650.509 1704.9 646.101 1706.81 642.057C1708.72 638.014 1711.56 633.923 1715.89 632.658C1720.07 631.439 1724.51 633.15 1728.33 635.178C1735.25 638.856 1741.53 643.693 1746.82 649.425C1749.91 652.776 1752.8 656.823 1752.67 661.358C1752.56 665.233 1750.27 668.677 1748.06 671.89C1745.99 674.902 1743.62 678.136 1740.06 679.088C1736.8 679.957 1733.39 678.683 1730.3 677.344C1722.46 673.931 1714.87 669.952 1707.62 665.445C1705.37 664.044 1703.1 662.55 1701.53 660.44C1699.96 658.325 1698.95 655.263 1700.38 653.766Z" fill="#FFC700" stroke="white" stroke-width="1.99997" stroke-miterlimit="10" stroke-linecap="round" stroke-linejoin="round"/>
<path d="M1700.38 653.766C1703.47 650.509 1704.9 646.101 1706.81 642.057C1708.72 638.014 1711.56 633.923 1715.89 632.658C1720.07 631.439 1724.51 633.15 1728.33 635.178C1735.25 638.856 1741.53 643.693 1746.82 649.425C1749.91 652.776 1752.8 656.823 1752.67 661.358C1752.56 665.233 1750.27 668.677 1748.06 671.89C1745.99 674.902 1743.62 678.136 1740.06 679.088C1736.8 679.957 1733.39 678.683 1730.3 677.344C1722.46 673.931 1714.87 669.952 1707.62 665.445C1705.37 664.044 1703.1 662.55 1701.53 660.44C1699.96 658.325 1698.95 655.263 1700.38 653.766Z" fill="#FFC700" stroke="white" stroke-width="1.99997" stroke-miterlimit="10" stroke-linecap="round" stroke-linejoin="round"/>
<path d="M1690.93 651.526C1694.05 652.742 1697.72 651.592 1700.26 649.426C1702.79 647.254 1704.39 644.226 1705.75 641.205C1707.55 637.19 1709.05 633.043 1710.22 628.809C1710.78 626.773 1711.16 624.299 1709.66 622.808C1708.35 621.514 1706.21 621.595 1704.4 621.988C1698.22 623.323 1692.7 627.405 1689.66 632.882C1686.64 638.361 1686.15 645.137 1690.93 651.526Z" fill="#FFC700" stroke="white" stroke-width="1.99997" stroke-miterlimit="10" stroke-linecap="round" stroke-linejoin="round"/>
<path d="M1716.34 631.789C1720.63 631.127 1725.01 632.626 1728.66 634.926C1732.32 637.227 1735.4 640.293 1738.6 643.169C1740.5 644.87 1743.15 646.62 1745.44 645.451C1746.78 644.77 1747.5 643.216 1747.5 641.732C1747.52 640.248 1746.92 638.822 1746.2 637.52C1743.75 633.068 1739.74 629.602 1735.28 627.068C1730.84 624.534 1725.94 622.862 1721.03 621.349C1718.78 620.657 1716.46 619.987 1714.12 620.192C1711.77 620.396 1709.36 621.676 1708.52 623.844C1707.61 626.201 1708.85 628.988 1710.92 630.463C1712.99 631.936 1715.68 632.3 1716.34 631.789Z" fill="#FFC700" stroke="white" stroke-width="1.99997" stroke-miterlimit="10" stroke-linecap="round" stroke-linejoin="round"/>
<path d="M511.037 178.447C587.473 210.971 677.036 210.648 753.565 178.275C755.75 177.226 758.066 176.451 760.502 176.625C765.233 177.379 767.439 183.376 767.494 188.389C767.014 201.389 757.894 212.488 746.544 218.945C735.468 225.271 722.557 227.773 709.656 229.599C657.223 237.971 602.943 243.197 551.099 231.796C538.274 228.881 524.924 224.872 515.312 216.047C505.972 207.089 500.791 192.102 511.037 178.446V178.447Z" fill="#FFC700" stroke="white" stroke-width="2.66675" stroke-miterlimit="22.9256" stroke-linecap="round" stroke-linejoin="round"/>
<path d="M758.154 179.432C763.79 174.374 760.972 164.302 754.537 159.999C748.233 155.969 739.965 156.242 732.372 156.526C665.245 160.192 598.393 163.725 531.54 167.259C523.402 167.806 513.484 169.543 511.594 177.506C510.437 182.095 513.07 186.879 516.686 189.511C520.433 192.416 524.88 193.979 529.194 195.266C585.43 211.615 645.271 214.472 702.619 203.74C723.002 200.004 742.489 193 758.154 179.432Z" fill="#FFC700" stroke="white" stroke-width="2.66675" stroke-miterlimit="22.9256" stroke-linecap="round" stroke-linejoin="round"/>
<path d="M521.043 154.49C517.318 158.63 513.452 163.174 511.606 168.428C509.761 173.684 510.198 180.193 513.793 184.18C520.457 191.062 531.762 187.313 540.894 183.938C571.152 172.772 605.42 173.457 635.166 185.722C650.11 191.653 665.95 200.849 681.209 195.539C691.018 192.173 697.66 183.608 705.218 176.956C715.933 167.779 729.303 162.032 743.417 160.633C750.201 160.065 758.754 158.982 761.026 152.516C762.456 147.797 759.015 142.728 754.853 140.359C750.417 138.12 745.403 138.175 740.39 138.229C667.222 138.41 593.913 138.994 521.043 154.489V154.49Z" fill="#FFC700" stroke="white" stroke-width="2.66675" stroke-miterlimit="22.9256" stroke-linecap="round" stroke-linejoin="round"/>
<path d="M635.947 136.959C602.061 129.371 566.975 129.077 532.99 135.983C529.32 136.737 525.376 137.622 522.362 139.742C519.347 141.862 517.119 145.62 517.873 149.29C518.495 152.687 521.707 155.177 525.214 156.183C528.72 157.188 532.249 156.837 535.635 156.892C567.915 154.835 600.336 152.375 632.495 149.369C635.073 149.14 637.651 148.91 639.573 147.314C641.355 146.124 642.621 143.164 635.947 136.959Z" fill="#FFC700" stroke="white" stroke-width="2.66675" stroke-miterlimit="22.9256" stroke-linecap="round" stroke-linejoin="round"/>
<path d="M719.119 129.623C690.138 128.752 660.973 130.993 632.702 136.501C628.355 137.245 622.903 139.188 622.292 143.516C621.702 146.487 624.095 149.371 626.782 150.768C629.47 152.166 632.584 152.352 635.696 152.538C660.472 153.749 685.279 152.927 709.213 147.486C712.883 146.732 716.422 145.705 719.437 143.585C722.452 141.466 724.68 137.708 723.926 134.037C723.303 130.638 719.009 127.996 719.118 129.624L719.119 129.623Z" fill="#FFC700" stroke="white" stroke-width="2.66675" stroke-miterlimit="22.9256" stroke-linecap="round" stroke-linejoin="round"/>
<path d="M755.637 125.197C733.243 127.547 710.172 129.887 689.953 140.266C686.95 141.708 683.792 144.232 684.689 147.498C685.464 149.814 687.89 150.665 690.183 151.244C711.375 156.191 733.55 150.585 753.737 142.238C756.325 141.331 759.056 140.02 761.12 138.021C763.184 136.022 764.452 133.061 763.414 130.199C762.781 127.479 759.165 124.846 755.637 125.197Z" fill="#FFC700" stroke="white" stroke-width="2.66675" stroke-miterlimit="22.9256" stroke-linecap="round" stroke-linejoin="round"/>
<path d="M509.353 123.14C503.181 127.783 496.726 133.234 494.17 140.511C491.614 147.787 495.111 157.869 502.812 159.212C514.436 161.025 520.955 143.109 532.895 142.081C542.53 141.151 549.948 151.703 559.572 151.452C570.016 150.806 575.367 138.156 585.044 134.518C598.677 129.317 612.398 143.899 627.035 143.593C640.187 142.991 651.635 130.439 664.329 133.081C675.132 135.287 683.468 147.75 694.479 145.489C699.919 144.221 704.06 139.546 709.248 137.055C715.66 134.313 723.088 135.786 729.566 137.381C742.391 140.297 755.085 142.939 767.91 145.855C769.396 146.15 771.285 146.587 772.651 145.931C775.654 144.49 775.042 140.415 773.873 137.28C768.006 122.959 754.482 112.987 740.063 108.148C725.511 103.037 710.076 102.383 694.499 102.134C633.028 99.3834 560.253 83.5811 509.352 123.14H509.353Z" fill="#FFC700" stroke="white" stroke-width="2.66675" stroke-miterlimit="22.9256" stroke-linecap="round" stroke-linejoin="round"/>
<path d="M504.949 127.269C594.983 123.024 666.576 119.566 755.255 115.299C760.584 95.6032 751.855 73.9197 736.899 60.2669C722.085 46.2092 702.007 39.3837 681.874 35.9441C645.258 29.6658 606.697 34.7373 572.846 50.3168C538.721 66.0281 511.721 102.177 504.95 127.269H504.949Z" fill="#FFC700" stroke="white" stroke-width="2.66675" stroke-miterlimit="22.9256" stroke-linecap="round" stroke-linejoin="round"/>
<path d="M679.154 44.9789C683.196 46.399 686.954 48.6269 690.154 51.7949C690.821 52.4832 691.617 53.4438 691.869 54.6667C691.967 56.9718 689.236 58.2831 687.215 57.573C685.194 56.863 683.872 54.8091 683.228 52.7664C682.18 50.5818 681.404 48.2662 679.154 44.9789Z" fill="white"/>
<path d="M656.094 46.641C655.198 51.7746 655.658 56.9312 657.613 61.704C658.007 62.5233 658.4 63.3432 659.066 64.0301C659.734 64.7183 660.814 64.8716 661.502 64.2044C662.463 63.4067 662.354 61.7786 661.699 60.4141C660.814 56.4715 659.383 52.7909 656.094 46.641Z" fill="white"/>
<path d="M626.864 52.9453C625.193 55.7644 624.319 59.5434 624.538 62.7986C624.648 64.4261 625.423 66.7425 627.455 66.7739C628.81 66.7957 629.64 65.725 630.065 64.5128C630.491 63.2999 630.24 62.0769 629.989 60.8536C629.093 57.588 628.47 54.1897 626.864 52.9453Z" fill="white"/>
<path d="M600.559 62.5508C597.949 64.8123 596.277 67.6306 595.95 71.1479C595.929 72.502 596.038 74.1299 597.109 74.9607C598.584 75.9327 600.768 74.8841 601.609 73.1366C602.451 71.3893 602.209 69.4878 602.1 67.8602C601.718 66.3625 601.751 64.3308 600.559 62.5508Z" fill="white"/>
<path d="M707.393 58.3037C709.655 60.9136 712.462 63.2625 715.139 65.3377C716.079 65.8955 716.746 66.5835 717.827 66.7357C718.909 66.8884 720.001 66.3644 720.285 65.556C720.711 64.343 719.782 63.1087 718.985 62.1481C715.904 59.9303 712.277 57.9758 707.393 58.3037Z" fill="white"/>
<path d="M675.716 65.1113C677.409 69.339 679.518 73.031 682.031 76.8652C682.698 77.5536 683.222 78.6453 684.161 79.2028C685.101 79.7602 686.182 79.9129 687.275 79.3882C688.782 78.3278 688.28 75.882 687.219 74.3742C684.838 70.8122 681.495 68.0498 675.716 65.1113Z" fill="white"/>
<path d="M642.189 68.7734C642.266 72.4325 643.293 75.9717 645.412 78.9864C646.21 79.947 647.543 81.324 648.766 81.0723C649.989 80.8217 650.689 79.4774 650.71 78.1222C650.731 76.7668 649.934 75.8058 649.41 74.7139C647.291 71.6999 645.707 69.1014 642.19 68.7737L642.189 68.7734Z" fill="white"/>
<path d="M610.829 72.7412C609.431 75.429 608.841 78.3996 608.928 81.3818C609.048 82.3325 609.3 83.5555 610.239 84.1129C611.31 84.9427 613.211 84.7033 614.314 83.5002C615.144 82.4299 615.308 80.6709 614.926 79.1742C614.27 77.8093 613.342 76.5753 610.829 72.7412Z" fill="white"/>
<path d="M574.89 74.874C572.149 76.8617 570.478 79.6814 569.746 83.0561C569.593 84.1378 569.703 85.7654 570.914 86.191C571.996 86.3436 572.957 85.547 573.514 84.6067C574.901 82.5967 576.157 80.3135 574.89 74.874Z" fill="white"/>
<path d="M586.23 85.8945C586.066 87.6535 584.69 88.9855 583.718 90.4608C582.746 91.936 582.036 93.9569 583.369 95.3328C584.166 96.2935 585.794 96.1848 586.886 95.6609C587.978 95.1365 588.678 93.7922 589.103 92.5798C589.813 90.5585 589.715 88.2535 586.23 85.8945Z" fill="white"/>
<path d="M555.927 82.9707C553.186 84.9585 550.98 87.3629 549.712 90.3231C549.428 91.1315 549.145 91.9391 549.264 92.8904C549.384 93.8411 550.051 94.5294 550.859 94.8131C551.941 94.9657 552.771 93.8957 553.469 92.5519C554.595 89.9946 556.123 87.5801 555.927 82.9707Z" fill="white"/>
<path d="M1206.68 563.857L1145.74 764.461C1141.27 778.661 1135.43 776.318 1125.96 774.394L1021.25 754.693C1012.49 753.237 1014.42 748.635 1014.13 742.873L1030.31 535.325L1206.68 563.857Z" fill="#FFC700" stroke="white" stroke-width="2.66675" stroke-miterlimit="22.9256" stroke-linecap="round" stroke-linejoin="round"/>
<path d="M1189.32 622.405C1134.96 610.284 1080.61 598.163 1026.37 585.755L1015.94 719.552L1152.66 742.404L1189.32 622.405Z" fill="#FFC700" stroke="white" stroke-width="2.66675" stroke-miterlimit="22.9256" stroke-linecap="round" stroke-linejoin="round"/>
<path d="M1210.93 572.867C1214.75 565.672 1212.49 559.914 1204.42 558.099C1206.99 553.767 1209.93 548.577 1208 543.642C1206.22 539.119 1201.1 537.568 1196.4 535.855C1157.17 524.199 1117.27 515.658 1076.95 509.656C1071.87 508.802 1066.66 508.236 1061.62 508.081C1057.27 507.889 1052.55 508.557 1048.76 510.993C1045.25 513.556 1043 518.71 1045.44 522.499C1040.56 522.755 1038.11 521.345 1034.35 524.479C1030.72 527.328 1027.39 535.757 1031.43 538.203C1032.45 538.989 1033.73 539.202 1035 539.415C1088.99 550.016 1146.25 564.084 1199.11 579.641C1205.09 581.567 1207.61 578.918 1210.93 572.867Z" fill="#FFC700" stroke="white" stroke-width="2.66675" stroke-miterlimit="22.9256" stroke-linecap="round" stroke-linejoin="round"/>
<path d="M1204.38 557.402C1204.38 557.402 1202.09 556.402 1197.96 554.941C1193.82 553.479 1187.97 551.267 1180.85 548.841C1173.73 546.416 1165.33 543.779 1156.53 541.302C1147.44 538.699 1137.81 536.546 1128.19 534.392C1118.44 532.525 1108.69 530.657 1099.51 529.039C1090.33 527.422 1081.6 526.341 1074.3 525.883C1066.84 525.015 1060.52 524.646 1056.3 524.168C1051.95 523.976 1049.29 523.837 1049.29 523.837C1049.29 523.837 1051.83 524.263 1056.05 524.741C1060.27 525.22 1066.62 526.285 1073.96 527.44C1077.49 527.954 1081.58 528.719 1085.81 529.197C1089.9 529.962 1094.41 530.565 1099.08 531.58C1108.26 533.198 1118.01 535.065 1127.64 537.218C1137.26 539.371 1146.89 541.525 1156.1 543.841C1160.65 545.142 1165.03 546.031 1169.01 547.082C1172.98 548.134 1176.95 549.185 1180.64 550.11C1187.88 552.248 1193.7 553.762 1197.96 554.938C1201.97 556.688 1204.38 557.402 1204.38 557.402Z" fill="#FFC700" stroke="white" stroke-width="2.66675" stroke-miterlimit="22.9256" stroke-linecap="round" stroke-linejoin="round"/>
<path d="M1123.18 632.891C1128.37 640.139 1130.71 649.54 1130.93 658.37C1131.07 667.503 1129.31 676.45 1126.94 685.233C1124.82 693.108 1121.79 700.737 1116.58 706.807C1111.07 712.793 1102.86 716.753 1095.06 714.328C1090.82 713.186 1086.49 708.769 1087.94 704.61C1089.22 701.058 1093.51 699.614 1096.66 697.54C1102.81 694.001 1106.45 686.533 1105.36 679.742C1104.98 675.094 1102.55 670.864 1102.79 666.379C1103.29 659.693 1108.64 654.311 1113.74 649.839C1118.54 645.284 1123.53 638.832 1123.18 632.891Z" fill="#FFC700" stroke="white" stroke-width="2.66675" stroke-miterlimit="22.9256" stroke-linecap="round" stroke-linejoin="round"/>
<path d="M1114.75 628.019C1116.53 634.671 1110.93 640.961 1105.45 645.654C1100.04 650.046 1093.87 654.878 1093.28 661.868C1092.62 669.16 1098.58 675.965 1096.7 682.931C1095.07 688.989 1088.01 692.284 1085.17 698.016C1083.91 700.276 1083.39 703.386 1081.61 705.18C1078.89 708.021 1073.72 707.928 1070.5 705.435C1067.27 702.941 1065.36 699.177 1064.14 695.275C1059.81 682.412 1060.23 667.582 1065.5 654.058C1068.37 647.034 1071.84 640.173 1076.58 634.629C1081.41 628.781 1087.58 623.948 1094.84 622.33C1102.4 620.793 1113.05 621.063 1114.75 628.019Z" fill="#FFC700" stroke="white" stroke-width="2.66675" stroke-miterlimit="22.9256" stroke-linecap="round" stroke-linejoin="round"/>
<path d="M164.69 729.267C171.288 707.844 164.238 683.877 150.755 665.594C137.268 647.311 118.032 633.91 98.2652 622.391C62.5936 601.609 22.7713 585.561 -18.5082 585.14C-40.7015 584.914 -63.8106 589.701 -80.7074 603.64C-93.9818 614.59 -102.548 630.856 -104.017 647.893C-105.485 664.929 -99.8344 682.533 -88.6427 695.781C-73.0524 714.232 -48.8883 722.999 -25.9101 730.976C-5.91051 737.92 14.0896 744.861 34.0881 751.803C50.9289 757.648 67.876 763.521 85.4681 766.373C103.06 769.219 121.515 768.91 138.049 762.622C151.472 757.517 159.332 746.667 164.69 729.267Z" fill="#FFC700" stroke="white" stroke-width="2.66675" stroke-miterlimit="10" stroke-linecap="round" stroke-linejoin="round"/>
<path d="M174.16 703.446C174.167 710.466 174.021 718.011 169.975 723.741C165.931 729.471 156.409 731.613 152.322 725.996C150.037 722.855 150.069 718.291 147.402 715.476C143.992 711.873 137.913 712.982 133.734 715.704C129.552 718.425 126.198 722.443 121.702 724.575C111.763 729.286 100.246 723.301 91.8756 716.246C83.5086 709.192 75.3997 700.504 64.6047 698.917C48.5045 696.545 31.4704 710.921 16.8552 703.749C4.73668 697.801 2.1382 680.26 -9.50089 673.408C-15.8364 669.676 -23.6885 669.86 -30.9802 670.886C-38.2758 671.912 -45.6212 673.673 -52.9056 672.726C-60.1878 671.779 -67.6253 667.305 -69.404 660.069C-70.9612 653.745 -68.0782 646.276 -71.6857 640.906C-75.9611 634.546 -86.1041 635.877 -91.6141 630.594C-95.9358 626.45 -96.0566 619.143 -93.3071 613.728C-90.5573 608.311 -85.5591 604.453 -80.4647 601.237C-61.9163 589.522 -40.076 583.903 -18.3499 583.007C3.37528 582.112 25.0475 585.778 45.9675 591.558C74.8881 599.549 102.985 611.8 126.421 630.681C149.856 649.563 174.122 674.802 174.16 703.446Z" fill="#FFC700" stroke="white" stroke-width="2.66675" stroke-miterlimit="10" stroke-linecap="round" stroke-linejoin="round"/>
<path d="M86.2797 658.165C86.2797 658.165 85.2085 657.214 83.2834 655.629C82.3249 654.833 81.1348 653.894 79.7082 652.886C78.3054 651.844 76.702 650.689 74.8853 649.558C71.3149 647.166 66.9389 644.714 62.1307 642.314C59.6891 641.197 57.2112 639.923 54.5726 638.918C51.9693 637.821 49.2632 636.87 46.5741 635.866C43.8341 635.018 41.1061 634.127 38.3748 633.408C35.6735 632.585 32.9306 632.095 30.3139 631.488C25.0387 630.455 20.076 629.727 15.7888 629.45C13.6575 629.24 11.6902 629.176 9.94416 629.148C8.20815 629.078 6.6868 629.093 5.4346 629.141C2.93269 629.22 1.51074 629.322 1.51074 629.322C1.51074 629.322 2.89513 629.706 5.31538 630.28C7.71518 630.865 11.1449 631.702 15.2595 632.709C17.2963 633.234 19.5006 633.802 21.8337 634.405C24.166 634.982 26.583 635.762 29.1148 636.407C34.129 637.897 39.464 639.485 44.7253 641.307C50.0037 643.068 55.2054 645.05 60.0863 646.932C62.4869 647.965 64.8787 648.818 67.0796 649.782C69.2946 650.728 71.3909 651.622 73.3256 652.45C77.1958 654.163 80.4223 655.593 82.6792 656.594C84.9537 657.621 86.28 658.164 86.28 658.164L86.2797 658.165Z" fill="white"/>
<path d="M38.2876 667.14C43.356 666.902 48.5426 667.267 53.648 668.219C55.9479 668.649 58.9122 670.028 58.3974 671.852C57.9542 673.431 55.3397 673.459 53.3396 673.187C46.2818 672.225 36.6647 673.162 34.265 670.885C32.3082 669.032 35.9141 667.25 38.2876 667.14Z" fill="white"/>
<path d="M40.3982 615.375C36.927 611.74 33.8699 607.653 31.3469 603.273C30.2092 601.299 29.4208 598.26 31.2453 597.542C32.825 596.921 34.5386 598.852 35.6063 600.508C39.3874 606.35 46.3746 612.954 46.0638 616.116C45.8116 618.692 42.0247 617.078 40.3982 615.375Z" fill="white"/>
<path d="M142.005 666.828C137.33 668.61 132.344 669.854 127.236 670.511C124.933 670.809 121.689 670.399 121.556 668.497C121.442 666.852 123.882 666.023 125.849 665.668C132.795 664.42 141.497 660.571 144.516 662.011C146.975 663.184 144.193 665.992 142.005 666.828Z" fill="white"/>
<path d="M-9.68256 594.188C-5.50342 597.06 -1.62642 600.459 1.79907 604.254C3.34105 605.964 4.7837 608.794 3.17138 609.868C1.7714 610.8 -0.319762 609.247 -1.72649 607.838C-6.69391 602.857 -14.9497 597.778 -15.3504 594.607C-15.6774 592.023 -11.6387 592.843 -9.68256 594.188Z" fill="white"/>
<path d="M100.994 683.497C106.074 683.81 111.202 684.728 116.178 686.222C118.42 686.892 121.21 688.578 120.484 690.33C119.851 691.846 117.246 691.594 115.283 691.108C108.363 689.395 98.6654 689.288 96.5408 686.775C94.8097 684.727 98.6173 683.35 100.994 683.497Z" fill="white"/>
<path d="M108.977 630.825C109.366 635.672 109.129 640.614 108.276 645.464C107.891 647.648 106.529 650.439 104.603 649.896C102.935 649.428 102.835 646.934 103.062 645.031C103.871 638.316 102.618 629.107 104.939 626.879C106.827 625.061 108.793 628.556 108.977 630.825Z" fill="white"/>
<path d="M-1.55068 661.649C3.09981 659.813 8.06872 658.512 13.1668 657.797C15.4645 657.473 18.713 657.848 18.8687 659.746C19.0043 661.391 16.5748 662.249 14.6115 662.626C7.68566 663.953 -0.966862 667.899 -4.001 666.494C-6.47319 665.349 -3.72818 662.506 -1.55068 661.649Z" fill="white"/>
<path d="M82.5491 620.461C77.4806 620.699 72.2922 620.332 67.1884 619.382C64.889 618.951 61.9244 617.573 62.4387 615.75C62.8824 614.171 65.4969 614.142 67.4973 614.414C74.5551 615.377 84.1722 614.438 86.5716 616.716C88.529 618.568 84.9225 620.351 82.5491 620.461Z" fill="white"/>
<path d="M152.314 705.855C149.004 702.084 146.134 697.879 143.809 693.404C142.761 691.389 142.109 688.322 143.968 687.682C145.576 687.127 147.2 689.126 148.196 690.822C151.712 696.807 158.403 703.684 157.949 706.828C157.579 709.388 153.863 707.622 152.314 705.855Z" fill="white"/>
<path d="M970.263 117.263C955.791 131.735 932.327 131.735 917.854 117.263C903.382 102.791 903.382 79.3266 917.854 64.8544C932.327 50.3819 955.791 50.3819 970.263 64.8544L944.059 91.0587L970.263 117.263Z" stroke="white" stroke-width="2.66675" stroke-miterlimit="10"/>
<path d="M54 500.263C68.4722 514.735 91.9359 514.735 106.408 500.263C120.881 485.791 120.881 462.327 106.408 447.854C91.9359 433.382 68.4722 433.382 54 447.854L80.2042 474.059L54 500.263Z" stroke="white" stroke-width="2.66675" stroke-miterlimit="10"/>
<path d="M605.854 775.263C591.382 760.791 591.382 737.327 605.854 722.854C620.327 708.382 643.791 708.382 658.263 722.854C672.736 737.327 672.736 760.791 658.263 775.263L632.059 749.059L605.854 775.263Z" stroke="white" stroke-width="2.66675" stroke-miterlimit="10"/>
<path d="M1386.63 623.4C1406.4 618.103 1426.72 629.835 1432.02 649.605C1437.32 669.375 1425.58 689.695 1405.81 694.992C1386.04 700.29 1365.72 688.558 1360.43 668.788L1396.22 659.197L1386.63 623.4Z" stroke="white" stroke-width="2.66675" stroke-miterlimit="10"/>
<path d="M966.026 213.4C963.649 215.495 960.024 215.267 957.929 212.89C955.835 210.513 956.063 206.888 958.44 204.793C960.817 202.698 964.442 202.927 966.537 205.304C968.631 207.68 968.403 211.305 966.026 213.4Z" stroke="white" stroke-width="1.91184" stroke-miterlimit="22.9256"/>
<path d="M832.889 319.418C830.512 321.513 826.887 321.284 824.792 318.907C822.697 316.531 822.926 312.906 825.302 310.811C827.679 308.716 831.304 308.944 833.399 311.321C835.494 313.698 835.265 317.323 832.889 319.418Z" stroke="white" stroke-width="1.91184" stroke-miterlimit="22.9256"/>
<path d="M884.045 268.654C882.961 269.609 881.308 269.505 880.353 268.421C879.398 267.337 879.502 265.685 880.586 264.729C881.669 263.774 883.322 263.878 884.277 264.962C885.232 266.046 885.128 267.699 884.045 268.654Z" fill="white"/>
<path d="M242.259 774.752C244.636 776.847 248.261 776.618 250.356 774.241C252.451 771.865 252.222 768.24 249.846 766.145C247.469 764.05 243.844 764.278 241.749 766.655C239.654 769.032 239.882 772.657 242.259 774.752Z" stroke="white" stroke-width="1.91184" stroke-miterlimit="22.9256"/>
<path d="M207.962 721.654C209.046 722.609 210.699 722.505 211.654 721.421C212.609 720.337 212.505 718.685 211.421 717.729C210.337 716.774 208.685 716.878 207.73 717.962C206.774 719.046 206.879 720.699 207.962 721.654Z" fill="white"/>
<path d="M989.724 506.139C988.316 508.977 989.475 512.419 992.313 513.828C995.151 515.236 998.593 514.077 1000 511.239C1001.41 508.401 1000.25 504.959 997.413 503.551C994.575 502.142 991.133 503.301 989.724 506.139Z" stroke="white" stroke-width="1.91184" stroke-miterlimit="22.9256"/>
<path d="M1439.75 768.867C1441.85 766.49 1441.62 762.865 1439.24 760.77C1436.86 758.675 1433.24 758.904 1431.14 761.28C1429.05 763.657 1429.28 767.282 1431.65 769.377C1434.03 771.472 1437.66 771.244 1439.75 768.867Z" stroke="white" stroke-width="1.91184" stroke-miterlimit="22.9256"/>
<path d="M877.55 607.772C876.142 610.61 877.301 614.052 880.139 615.461C882.977 616.869 886.419 615.71 887.827 612.872C889.236 610.034 888.077 606.592 885.239 605.183C882.401 603.775 878.958 604.934 877.55 607.772Z" stroke="white" stroke-width="1.91184" stroke-miterlimit="22.9256"/>
<path d="M1574.41 699.73C1576.5 697.353 1576.27 693.728 1573.9 691.633C1571.52 689.538 1567.9 689.767 1565.8 692.144C1563.71 694.52 1563.93 698.146 1566.31 700.24C1568.69 702.335 1572.31 702.107 1574.41 699.73Z" stroke="white" stroke-width="1.91184" stroke-miterlimit="22.9256"/>
<path d="M913.345 545.222C912.703 546.516 913.232 548.085 914.526 548.727C915.82 549.369 917.389 548.841 918.031 547.547C918.673 546.253 918.145 544.684 916.851 544.041C915.557 543.399 913.988 543.928 913.345 545.222Z" fill="white"/>
<path d="M1523.64 750.884C1524.6 749.801 1524.49 748.148 1523.41 747.193C1522.33 746.238 1520.67 746.342 1519.72 747.426C1518.76 748.509 1518.87 750.162 1519.95 751.117C1521.03 752.072 1522.69 751.968 1523.64 750.884Z" fill="white"/>
<path d="M824.259 108.752C826.636 110.847 830.261 110.618 832.356 108.241C834.451 105.865 834.222 102.24 831.846 100.145C829.469 98.0501 825.844 98.2786 823.749 100.655C821.654 103.032 821.882 106.657 824.259 108.752Z" stroke="white" stroke-width="1.91184" stroke-miterlimit="22.9256"/>
<path d="M1286.26 744.752C1288.64 746.847 1292.26 746.618 1294.36 744.241C1296.45 741.865 1296.22 738.24 1293.85 736.145C1291.47 734.05 1287.84 734.278 1285.75 736.655C1283.65 739.032 1283.88 742.657 1286.26 744.752Z" stroke="white" stroke-width="1.91184" stroke-miterlimit="22.9256"/>
<path d="M414.259 749.752C416.636 751.847 420.261 751.618 422.356 749.241C424.451 746.865 424.222 743.24 421.846 741.145C419.469 739.05 415.844 739.278 413.749 741.655C411.654 744.032 411.882 747.657 414.259 749.752Z" stroke="white" stroke-width="1.91184" stroke-miterlimit="22.9256"/>
<path d="M914.28 749.704C917.282 748.693 918.897 745.44 917.886 742.437C916.875 739.434 913.621 737.82 910.619 738.831C907.616 739.842 906.002 743.095 907.013 746.098C908.023 749.101 911.277 750.715 914.28 749.704Z" stroke="white" stroke-width="1.91184" stroke-miterlimit="22.9256"/>
<path d="M1886.59 698.746C1887.22 695.64 1885.21 692.615 1882.1 691.99C1879 691.364 1875.97 693.374 1875.35 696.48C1874.72 699.586 1876.73 702.611 1879.84 703.237C1882.94 703.863 1885.97 701.852 1886.59 698.746Z" stroke="white" stroke-width="1.91184" stroke-miterlimit="22.9256"/>
<path d="M77.2805 404.703C80.2831 403.692 81.8977 400.439 80.8868 397.436C79.8759 394.433 76.6223 392.819 73.6196 393.83C70.617 394.841 69.0024 398.094 70.0133 401.097C71.0242 404.1 74.2779 405.714 77.2805 404.703Z" stroke="white" stroke-width="1.91184" stroke-miterlimit="22.9256"/>
<path d="M789.962 55.6538C791.046 56.6089 792.699 56.5047 793.654 55.421C794.609 54.3374 794.505 52.6846 793.421 51.7295C792.337 50.7744 790.685 50.8786 789.73 51.9622C788.774 53.0459 788.879 54.6986 789.962 55.6538Z" fill="white"/>
<path d="M1251.96 691.654C1253.05 692.609 1254.7 692.505 1255.65 691.421C1256.61 690.337 1256.5 688.685 1255.42 687.729C1254.34 686.774 1252.68 686.878 1251.73 687.962C1250.77 689.046 1250.88 690.699 1251.96 691.654Z" fill="white"/>
<path d="M379.962 696.654C381.046 697.609 382.699 697.505 383.654 696.421C384.609 695.337 384.505 693.685 383.421 692.729C382.337 691.774 380.685 691.878 379.73 692.962C378.774 694.046 378.879 695.699 379.962 696.654Z" fill="white"/>
<path d="M851.148 752.858C852.517 752.397 853.253 750.914 852.792 749.545C852.331 748.176 850.848 747.44 849.479 747.901C848.11 748.362 847.374 749.845 847.835 751.214C848.295 752.583 849.779 753.319 851.148 752.858Z" fill="white"/>
<path d="M1857.76 754.998C1858.04 753.582 1857.13 752.202 1855.71 751.917C1854.3 751.632 1852.92 752.548 1852.63 753.964C1852.35 755.38 1853.26 756.76 1854.68 757.045C1856.09 757.33 1857.47 756.414 1857.76 754.998Z" fill="white"/>
<path d="M14.1481 407.857C15.5171 407.396 16.2532 405.913 15.7923 404.544C15.3314 403.175 13.848 402.439 12.479 402.9C11.11 403.361 10.3738 404.844 10.8347 406.213C11.2957 407.582 12.7791 408.318 14.1481 407.857Z" fill="white"/>
</g>
</svg>
