<svg width="1920" height="684" viewBox="0 0 1920 684" fill="none" xmlns="http://www.w3.org/2000/svg">
<ellipse cx="301" cy="181" rx="301" ry="181" transform="matrix(0.986726 0.162394 -0.185436 0.982656 -17.8721 -37)" fill="#255946"/>
<path d="M143.216 192V179.76L176.4 145.896C184.469 137.827 188.504 130.845 188.504 124.952C188.504 120.328 187.099 116.747 184.288 114.208C181.568 111.579 178.077 110.264 173.816 110.264C165.837 110.264 159.944 114.208 156.136 122.096L142.944 114.344C145.936 107.997 150.152 103.192 155.592 99.928C161.032 96.664 167.061 95.032 173.68 95.032C182.021 95.032 189.184 97.6613 195.168 102.92C201.152 108.179 204.144 115.341 204.144 124.408C204.144 134.109 198.749 144.445 187.96 155.416L166.472 176.904H205.912V192H143.216ZM220.504 157.728V143.584H270.824V157.728H220.504ZM325.737 135.696C332.627 137.328 338.203 140.547 342.465 145.352C346.817 150.067 348.992 156.005 348.992 163.168C348.992 172.688 345.774 180.168 339.337 185.608C332.899 191.048 325.011 193.768 315.673 193.768C308.419 193.768 301.891 192.091 296.089 188.736C290.377 185.381 286.251 180.485 283.713 174.048L297.041 166.296C299.851 174.456 306.062 178.536 315.673 178.536C321.113 178.536 325.419 177.176 328.593 174.456C331.766 171.645 333.353 167.883 333.353 163.168C333.353 158.453 331.766 154.736 328.593 152.016C325.419 149.296 321.113 147.936 315.673 147.936H312.137L305.881 138.552L326.417 111.488H286.569V96.8H345.049V110.128L325.737 135.696Z" fill="white"/>
<path d="M152.744 257.728C148.525 257.728 144.997 256.309 142.16 253.472C139.36 250.635 137.96 247.144 137.96 243C137.96 238.819 139.36 235.328 142.16 232.528C144.997 229.691 148.525 228.272 152.744 228.272C155.469 228.272 157.952 228.925 160.192 230.232C162.432 231.539 164.112 233.293 165.232 235.496L160.024 238.52C159.389 237.176 158.419 236.131 157.112 235.384C155.843 234.6 154.368 234.208 152.688 234.208C150.224 234.208 148.152 235.048 146.472 236.728C144.829 238.408 144.008 240.499 144.008 243C144.008 245.501 144.829 247.592 146.472 249.272C148.152 250.952 150.224 251.792 152.688 251.792C154.331 251.792 155.805 251.4 157.112 250.616C158.456 249.832 159.464 248.787 160.136 247.48L165.344 250.448C164.149 252.688 162.432 254.461 160.192 255.768C157.952 257.075 155.469 257.728 152.744 257.728ZM174.038 245.576C174.486 247.704 175.513 249.347 177.118 250.504C178.723 251.624 180.683 252.184 182.998 252.184C186.209 252.184 188.617 251.027 190.222 248.712L195.206 251.624C192.443 255.693 188.355 257.728 182.942 257.728C178.387 257.728 174.71 256.347 171.91 253.584C169.11 250.784 167.71 247.256 167.71 243C167.71 238.819 169.091 235.328 171.854 232.528C174.617 229.691 178.163 228.272 182.494 228.272C186.601 228.272 189.961 229.709 192.574 232.584C195.225 235.459 196.55 238.949 196.55 243.056C196.55 243.691 196.475 244.531 196.326 245.576H174.038ZM173.982 240.648H190.446C190.035 238.371 189.083 236.653 187.59 235.496C186.134 234.339 184.417 233.76 182.438 233.76C180.198 233.76 178.331 234.376 176.838 235.608C175.345 236.84 174.393 238.52 173.982 240.648ZM220.744 229H226.792V257H220.744V245.856H207.92V257H201.872V229H207.92V240.144H220.744V229ZM255.201 229V234.824H246.073V257H240.025V234.824H230.841V229H255.201ZM279.27 229V257H273.334V247.592H269.974L262.862 257H255.75L263.31 247.032C261.369 246.397 259.801 245.277 258.606 243.672C257.449 242.067 256.87 240.275 256.87 238.296C256.87 235.72 257.785 233.536 259.614 231.744C261.481 229.915 263.87 229 266.782 229H279.27ZM267.118 242.384H273.334V234.488H267.118C265.886 234.488 264.86 234.843 264.038 235.552C263.217 236.261 262.806 237.232 262.806 238.464C262.806 239.659 263.217 240.611 264.038 241.32C264.86 242.029 265.886 242.384 267.118 242.384ZM299.301 257.728C295.008 257.728 291.499 256.347 288.773 253.584C286.085 250.784 284.741 247.219 284.741 242.888C284.741 238.147 285.451 234.488 286.869 231.912C288.288 229.299 291.163 226.928 295.493 224.8C296.203 224.464 297.248 223.979 298.629 223.344C300.048 222.709 301.019 222.261 301.541 222C302.064 221.701 302.717 221.291 303.501 220.768C304.285 220.208 304.864 219.629 305.237 219.032C305.611 218.397 305.909 217.651 306.133 216.792L311.061 219.648C310.912 220.469 310.669 221.235 310.333 221.944C309.997 222.616 309.512 223.251 308.877 223.848C308.243 224.445 307.683 224.931 307.197 225.304C306.749 225.677 305.984 226.125 304.901 226.648C303.819 227.171 303.016 227.544 302.493 227.768C302.008 227.992 301.075 228.384 299.693 228.944C297.229 229.915 295.419 230.923 294.261 231.968C293.141 232.976 292.357 234.245 291.909 235.776C294.149 233.237 297.192 231.968 301.037 231.968C304.323 231.968 307.179 233.144 309.605 235.496C312.069 237.848 313.301 240.891 313.301 244.624C313.301 248.432 311.995 251.568 309.381 254.032C306.805 256.496 303.445 257.728 299.301 257.728ZM299.245 252.072C301.597 252.072 303.52 251.381 305.013 250C306.507 248.581 307.253 246.789 307.253 244.624C307.253 242.421 306.507 240.611 305.013 239.192C303.557 237.773 301.653 237.064 299.301 237.064C297.211 237.064 295.325 237.736 293.645 239.08C291.965 240.387 291.125 242.141 291.125 244.344C291.125 246.584 291.909 248.432 293.477 249.888C295.045 251.344 296.968 252.072 299.245 252.072ZM333.931 228.272C337.776 228.272 341.061 229.709 343.787 232.584C346.512 235.421 347.875 238.893 347.875 243C347.875 247.144 346.512 250.635 343.787 253.472C341.061 256.309 337.776 257.728 333.931 257.728C329.675 257.728 326.408 256.16 324.131 253.024V268.2H318.083V229H324.131V233.032C326.408 229.859 329.675 228.272 333.931 228.272ZM326.651 249.44C328.331 251.12 330.44 251.96 332.979 251.96C335.517 251.96 337.627 251.12 339.307 249.44C340.987 247.723 341.827 245.576 341.827 243C341.827 240.424 340.987 238.296 339.307 236.616C337.627 234.899 335.517 234.04 332.979 234.04C330.44 234.04 328.331 234.899 326.651 236.616C324.971 238.296 324.131 240.424 324.131 243C324.131 245.576 324.971 247.723 326.651 249.44ZM373.934 229V257H367.998V247.592H364.638L357.526 257H350.414L357.974 247.032C356.033 246.397 354.465 245.277 353.27 243.672C352.113 242.067 351.534 240.275 351.534 238.296C351.534 235.72 352.449 233.536 354.278 231.744C356.145 229.915 358.534 229 361.446 229H373.934ZM361.782 242.384H367.998V234.488H361.782C360.55 234.488 359.524 234.843 358.702 235.552C357.881 236.261 357.47 237.232 357.47 238.464C357.47 239.659 357.881 240.611 358.702 241.32C359.524 242.029 360.55 242.384 361.782 242.384Z" fill="white"/>
<ellipse cx="518.5" cy="489.5" rx="366.5" ry="194.5" fill="#E83E24"/>
<path d="M315.4 428.8V439.36H296.488V496H285.448V439.36H266.44V428.8H315.4ZM348.332 428.8C354.668 428.8 359.948 430.912 364.172 435.136C368.46 439.36 370.604 444.608 370.604 450.88C370.604 457.088 368.46 462.336 364.172 466.624C359.948 470.848 354.668 472.96 348.332 472.96H334.604V496H323.564V428.8H348.332ZM348.332 462.592C351.596 462.592 354.284 461.504 356.396 459.328C358.508 457.088 359.564 454.272 359.564 450.88C359.564 447.488 358.508 444.704 356.396 442.528C354.284 440.288 351.596 439.168 348.332 439.168H334.604V462.592H348.332ZM430.877 496H417.725L391.229 464.032V496H380.189V428.8H391.229V458.944L416.765 428.8H429.917L402.749 461.536L430.877 496ZM460.305 453.76L467.025 428.8H475.665L471.825 453.76H460.305ZM476.625 453.76L483.345 428.8H491.985L488.145 453.76H476.625ZM491.529 496V485.824C495.753 486.4 498.889 485.376 500.937 482.752C503.049 480.128 504.105 475.104 504.105 467.68V428.8H549.129V496H538.089V439.36H515.145V467.488C515.145 473.376 514.505 478.336 513.225 482.368C512.009 486.4 510.249 489.44 507.945 491.488C505.641 493.472 503.145 494.816 500.457 495.52C497.833 496.16 494.857 496.32 491.529 496ZM573.573 485.44H603.333V496H562.533V428.8H602.853V439.36H573.573V456.832H600.453V467.296H573.573V485.44ZM657.119 428.8V439.36H638.207V496H627.167V439.36H608.159V428.8H657.119ZM717.599 487.168C710.879 493.888 702.655 497.248 692.927 497.248C683.199 497.248 674.943 493.888 668.159 487.168C661.439 480.384 658.079 472.128 658.079 462.4C658.079 452.672 661.439 444.448 668.159 437.728C674.943 430.944 683.199 427.552 692.927 427.552C702.655 427.552 710.879 430.944 717.599 437.728C724.383 444.448 727.775 452.672 727.775 462.4C727.775 472.128 724.383 480.384 717.599 487.168ZM675.935 479.68C680.543 484.224 686.207 486.496 692.927 486.496C699.647 486.496 705.279 484.224 709.823 479.68C714.431 475.072 716.735 469.312 716.735 462.4C716.735 455.488 714.431 449.76 709.823 445.216C705.279 440.608 699.647 438.304 692.927 438.304C686.207 438.304 680.543 440.608 675.935 445.216C671.391 449.76 669.119 455.488 669.119 462.4C669.119 469.312 671.391 475.072 675.935 479.68ZM750.636 428.8L743.916 453.76H735.276L739.116 428.8H750.636ZM766.956 428.8L760.236 453.76H751.596L755.436 428.8H766.956Z" fill="white"/>
<path d="M278 535V539.4H270.12V563H265.52V539.4H257.6V535H278ZM286.968 563.52C284.034 563.52 281.541 562.507 279.488 560.48C277.434 558.453 276.408 555.96 276.408 553C276.408 550.04 277.434 547.547 279.488 545.52C281.541 543.493 284.034 542.48 286.968 542.48C289.928 542.48 292.421 543.493 294.448 545.52C296.501 547.547 297.528 550.04 297.528 553C297.528 555.96 296.501 558.453 294.448 560.48C292.421 562.507 289.928 563.52 286.968 563.52ZM282.528 557.52C283.728 558.72 285.208 559.32 286.968 559.32C288.728 559.32 290.208 558.72 291.408 557.52C292.608 556.32 293.208 554.813 293.208 553C293.208 551.187 292.608 549.68 291.408 548.48C290.208 547.28 288.728 546.68 286.968 546.68C285.208 546.68 283.728 547.28 282.528 548.48C281.328 549.68 280.728 551.187 280.728 553C280.728 554.813 281.328 556.32 282.528 557.52ZM321.834 543V563H317.634V549.84L311.874 559H311.354L305.634 549.88V563H301.434V543H305.834L311.634 552.24L317.434 543H321.834ZM336.265 563.52C333.251 563.52 330.731 562.507 328.705 560.48C326.705 558.453 325.705 555.96 325.705 553C325.705 550.013 326.705 547.52 328.705 545.52C330.731 543.493 333.251 542.48 336.265 542.48C338.211 542.48 339.985 542.947 341.585 543.88C343.185 544.813 344.385 546.067 345.185 547.64L341.465 549.8C341.011 548.84 340.318 548.093 339.385 547.56C338.478 547 337.425 546.72 336.225 546.72C334.465 546.72 332.985 547.32 331.785 548.52C330.611 549.72 330.025 551.213 330.025 553C330.025 554.787 330.611 556.28 331.785 557.48C332.985 558.68 334.465 559.28 336.225 559.28C337.398 559.28 338.451 559 339.385 558.44C340.345 557.88 341.065 557.133 341.545 556.2L345.265 558.32C344.411 559.92 343.185 561.187 341.585 562.12C339.985 563.053 338.211 563.52 336.265 563.52ZM366.184 563H361.024L352.824 553.76V563H348.504V543H352.824V551.84L360.584 543H365.864L357.064 552.8L366.184 563ZM375.09 558.2L372.29 568.6H368.69L370.29 558.2H375.09ZM403.156 543H407.756L400.076 563.64C399.143 566.173 397.836 568.067 396.156 569.32C394.476 570.573 392.53 571.133 390.316 571V566.96C391.676 567.04 392.77 566.76 393.596 566.12C394.45 565.507 395.13 564.507 395.636 563.12L395.756 562.84L387.356 543H391.956L398.036 557.56L403.156 543ZM426.127 543V563H421.807V547.16H415.127V554.6C415.127 557.773 414.433 560.027 413.047 561.36C411.66 562.693 409.687 563.24 407.127 563V558.96C408.353 559.173 409.273 558.92 409.887 558.2C410.5 557.48 410.807 556.213 410.807 554.4V543H426.127ZM435.881 562.6C435.294 563.187 434.587 563.48 433.761 563.48C432.934 563.48 432.227 563.187 431.641 562.6C431.054 562.013 430.761 561.307 430.761 560.48C430.761 559.653 431.041 558.947 431.601 558.36C432.187 557.773 432.907 557.48 433.761 557.48C434.587 557.48 435.294 557.773 435.881 558.36C436.467 558.947 436.761 559.653 436.761 560.48C436.761 561.307 436.467 562.013 435.881 562.6ZM468.236 535H472.836V563H468.236V550.88H456.236V563H451.636V535H456.236V546.48H468.236V535ZM493.993 543H498.313V563H493.993V560.12C492.366 562.387 490.033 563.52 486.993 563.52C484.246 563.52 481.899 562.507 479.953 560.48C478.006 558.427 477.033 555.933 477.033 553C477.033 550.04 478.006 547.547 479.953 545.52C481.899 543.493 484.246 542.48 486.993 542.48C490.033 542.48 492.366 543.6 493.993 545.84V543ZM483.153 557.6C484.353 558.8 485.859 559.4 487.673 559.4C489.486 559.4 490.993 558.8 492.193 557.6C493.393 556.373 493.993 554.84 493.993 553C493.993 551.16 493.393 549.64 492.193 548.44C490.993 547.213 489.486 546.6 487.673 546.6C485.859 546.6 484.353 547.213 483.153 548.44C481.953 549.64 481.353 551.16 481.353 553C481.353 554.84 481.953 556.373 483.153 557.6ZM521.228 563H516.228L511.268 556.16L506.268 563H501.228L508.748 552.72L501.628 543H506.628L511.228 549.32L515.828 543H520.868L513.748 552.76L521.228 563ZM538.609 543H541.929V563H537.689V550.28L527.449 563H524.129V543H528.369V555.68L538.609 543ZM567.342 543V563H563.142V549.84L557.382 559H556.862L551.142 549.88V563H546.942V543H551.342L557.142 552.24L562.942 543H567.342ZM581.773 563.52C578.839 563.52 576.346 562.507 574.293 560.48C572.239 558.453 571.213 555.96 571.213 553C571.213 550.04 572.239 547.547 574.293 545.52C576.346 543.493 578.839 542.48 581.773 542.48C584.733 542.48 587.226 543.493 589.253 545.52C591.306 547.547 592.333 550.04 592.333 553C592.333 555.96 591.306 558.453 589.253 560.48C587.226 562.507 584.733 563.52 581.773 563.52ZM577.333 557.52C578.533 558.72 580.013 559.32 581.773 559.32C583.533 559.32 585.013 558.72 586.213 557.52C587.413 556.32 588.013 554.813 588.013 553C588.013 551.187 587.413 549.68 586.213 548.48C585.013 547.28 583.533 546.68 581.773 546.68C580.013 546.68 578.533 547.28 577.333 548.48C576.133 549.68 575.533 551.187 575.533 553C575.533 554.813 576.133 556.32 577.333 557.52ZM610.079 552.72C612.052 553.627 613.039 555.16 613.039 557.32C613.039 559 612.465 560.373 611.319 561.44C610.199 562.48 608.585 563 606.479 563H596.239V543H605.679C607.732 543 609.319 543.52 610.439 544.56C611.585 545.573 612.159 546.893 612.159 548.52C612.159 550.413 611.465 551.813 610.079 552.72ZM605.359 546.68H600.359V551.12H605.359C607.119 551.12 607.999 550.373 607.999 548.88C607.999 547.413 607.119 546.68 605.359 546.68ZM606.079 559.24C607.892 559.24 608.799 558.453 608.799 556.88C608.799 556.187 608.559 555.653 608.079 555.28C607.599 554.88 606.932 554.68 606.079 554.68H600.359V559.24H606.079ZM632.391 543H636.711V563H632.391V560.12C630.765 562.387 628.431 563.52 625.391 563.52C622.645 563.52 620.298 562.507 618.351 560.48C616.405 558.427 615.431 555.933 615.431 553C615.431 550.04 616.405 547.547 618.351 545.52C620.298 543.493 622.645 542.48 625.391 542.48C628.431 542.48 630.765 543.6 632.391 545.84V543ZM621.551 557.6C622.751 558.8 624.258 559.4 626.071 559.4C627.885 559.4 629.391 558.8 630.591 557.6C631.791 556.373 632.391 554.84 632.391 553C632.391 551.16 631.791 549.64 630.591 548.44C629.391 547.213 627.885 546.6 626.071 546.6C624.258 546.6 622.751 547.213 621.551 548.44C620.351 549.64 619.751 551.16 619.751 553C619.751 554.84 620.351 556.373 621.551 557.6ZM666.147 548.44C668.893 549.96 670.267 552.227 670.267 555.24C670.267 557.8 669.373 559.827 667.587 561.32C665.8 562.787 663.427 563.52 660.467 563.52C657.507 563.52 655.12 562.787 653.307 561.32C651.52 559.827 650.627 557.8 650.627 555.24C650.627 553.8 650.987 552.493 651.707 551.32C652.427 550.12 653.44 549.16 654.747 548.44C652.64 547.053 651.587 545.08 651.587 542.52C651.587 539.96 652.44 537.987 654.147 536.6C655.853 535.187 657.96 534.48 660.467 534.48C662.947 534.48 665.04 535.187 666.747 536.6C668.48 537.987 669.347 539.96 669.347 542.52C669.347 545.08 668.28 547.053 666.147 548.44ZM660.467 538.84C659.213 538.84 658.187 539.173 657.387 539.84C656.587 540.507 656.187 541.467 656.187 542.72C656.187 543.92 656.587 544.867 657.387 545.56C658.213 546.253 659.24 546.6 660.467 546.6C661.667 546.6 662.68 546.253 663.507 545.56C664.333 544.867 664.747 543.92 664.747 542.72C664.747 541.467 664.333 540.507 663.507 539.84C662.707 539.173 661.693 538.84 660.467 538.84ZM660.467 559.16C662.013 559.16 663.267 558.787 664.227 558.04C665.187 557.267 665.667 556.187 665.667 554.8C665.667 553.413 665.187 552.347 664.227 551.6C663.267 550.827 662.013 550.44 660.467 550.44C658.893 550.44 657.627 550.827 656.667 551.6C655.707 552.347 655.227 553.413 655.227 554.8C655.227 556.187 655.707 557.267 656.667 558.04C657.627 558.787 658.893 559.16 660.467 559.16ZM680.168 558.2L677.368 568.6H673.768L675.368 558.2H680.168ZM704.194 563.52C701.181 563.52 698.661 562.507 696.634 560.48C694.634 558.453 693.634 555.96 693.634 553C693.634 550.013 694.634 547.52 696.634 545.52C698.661 543.493 701.181 542.48 704.194 542.48C706.141 542.48 707.914 542.947 709.514 543.88C711.114 544.813 712.314 546.067 713.114 547.64L709.394 549.8C708.941 548.84 708.248 548.093 707.314 547.56C706.408 547 705.354 546.72 704.154 546.72C702.394 546.72 700.914 547.32 699.714 548.52C698.541 549.72 697.954 551.213 697.954 553C697.954 554.787 698.541 556.28 699.714 557.48C700.914 558.68 702.394 559.28 704.154 559.28C705.328 559.28 706.381 559 707.314 558.44C708.274 557.88 708.994 557.133 709.474 556.2L713.194 558.32C712.341 559.92 711.114 561.187 709.514 562.12C707.914 563.053 706.141 563.52 704.194 563.52ZM731.402 543V547.16H724.882V563H720.562V547.16H714.002V543H731.402ZM749.685 535H753.685V563H749.085V539.92L743.445 541.52L742.325 537.6L749.685 535ZM770.048 546.44C772.074 546.92 773.714 547.867 774.968 549.28C776.248 550.667 776.887 552.413 776.887 554.52C776.887 557.32 775.941 559.52 774.048 561.12C772.154 562.72 769.834 563.52 767.088 563.52C764.954 563.52 763.034 563.027 761.328 562.04C759.648 561.053 758.434 559.613 757.688 557.72L761.608 555.44C762.434 557.84 764.261 559.04 767.088 559.04C768.688 559.04 769.954 558.64 770.888 557.84C771.821 557.013 772.288 555.907 772.288 554.52C772.288 553.133 771.821 552.04 770.888 551.24C769.954 550.44 768.688 550.04 767.088 550.04H766.048L764.208 547.28L770.248 539.32H758.528V535H775.728V538.92L770.048 546.44Z" fill="white"/>
<ellipse cx="1567.05" cy="251.149" rx="578.421" ry="369.484" transform="rotate(-4.75379 1567.05 251.149)" fill="white"/>
<path d="M1343 92.12C1344.19 93.0933 1344.78 94.3867 1344.78 96C1344.78 97.6133 1344.19 98.9133 1343 99.9C1341.83 100.873 1340.25 101.44 1338.28 101.6V103.2H1336.02V101.6C1334.03 101.44 1332.45 100.873 1331.26 99.9C1330.09 98.9133 1329.5 97.6133 1329.5 96C1329.5 94.3867 1330.09 93.0933 1331.26 92.12C1332.45 91.1333 1334.03 90.56 1336.02 90.4V88.8H1338.28V90.4C1340.25 90.56 1341.83 91.1333 1343 92.12ZM1331.8 96C1331.8 97.04 1332.16 97.8533 1332.88 98.44C1333.61 99.0267 1334.66 99.38 1336.02 99.5V92.5C1333.21 92.7533 1331.8 93.92 1331.8 96ZM1338.28 99.5C1341.08 99.22 1342.48 98.0533 1342.48 96C1342.48 93.92 1341.08 92.7533 1338.28 92.5V99.5ZM1348.99 100.8H1355.19V103H1346.69V89H1355.09V91.2H1348.99V94.84H1354.59V97.02H1348.99V100.8ZM1363.8 103.26C1361.69 103.26 1359.94 102.567 1358.56 101.18C1357.17 99.78 1356.48 98.0533 1356.48 96C1356.48 93.9467 1357.17 92.2267 1358.56 90.84C1359.94 89.44 1361.69 88.74 1363.8 88.74C1365.06 88.74 1366.23 89.04 1367.3 89.64C1368.38 90.24 1369.22 91.0533 1369.82 92.08L1367.82 93.24C1367.44 92.5467 1366.9 92 1366.18 91.6C1365.47 91.1867 1364.68 90.98 1363.8 90.98C1362.3 90.98 1361.09 91.4533 1360.16 92.4C1359.24 93.3467 1358.78 94.5467 1358.78 96C1358.78 97.4533 1359.24 98.6533 1360.16 99.6C1361.09 100.547 1362.3 101.02 1363.8 101.02C1364.68 101.02 1365.48 100.82 1366.2 100.42C1366.92 100.007 1367.46 99.4533 1367.82 98.76L1369.82 99.9C1369.23 100.927 1368.4 101.747 1367.32 102.36C1366.25 102.96 1365.08 103.26 1363.8 103.26ZM1380.73 89V91.2H1376.79V103H1374.49V91.2H1370.53V89H1380.73ZM1390.83 103V93.5L1384.23 103H1382.43V89H1384.73V98.5L1391.33 89H1393.13V103H1390.83ZM1404.17 95.74C1404.78 96.06 1405.26 96.5 1405.61 97.06C1405.95 97.62 1406.13 98.2667 1406.13 99C1406.13 100.147 1405.72 101.1 1404.91 101.86C1404.09 102.62 1403.1 103 1401.93 103H1395.93V89H1401.49C1402.63 89 1403.6 89.3733 1404.39 90.12C1405.19 90.8533 1405.59 91.7733 1405.59 92.88C1405.59 94.0933 1405.11 95.0467 1404.17 95.74ZM1401.49 91.16H1398.23V94.84H1401.49C1401.99 94.84 1402.42 94.6667 1402.77 94.32C1403.11 93.96 1403.29 93.52 1403.29 93C1403.29 92.48 1403.11 92.0467 1402.77 91.7C1402.42 91.34 1401.99 91.16 1401.49 91.16ZM1401.93 100.84C1402.46 100.84 1402.91 100.653 1403.27 100.28C1403.64 99.8933 1403.83 99.4267 1403.83 98.88C1403.83 98.3333 1403.64 97.8733 1403.27 97.5C1402.91 97.1133 1402.46 96.92 1401.93 96.92H1398.23V100.84H1401.93ZM1417.25 103L1416.27 100.18H1410.31L1409.33 103H1406.83L1411.91 89H1414.67L1419.73 103H1417.25ZM1411.07 98.02H1415.51L1413.29 91.7L1411.07 98.02ZM1420.2 103V100.88C1421.08 101 1421.73 100.787 1422.16 100.24C1422.6 99.6933 1422.82 98.6467 1422.82 97.1V89H1432.2V103H1429.9V91.2H1425.12V97.06C1425.12 98.2867 1424.98 99.32 1424.72 100.16C1424.46 101 1424.1 101.633 1423.62 102.06C1423.14 102.473 1422.62 102.753 1422.06 102.9C1421.51 103.033 1420.89 103.067 1420.2 103ZM1440.15 93.8C1441.47 93.8 1442.57 94.2467 1443.45 95.14C1444.34 96.02 1444.79 97.1067 1444.79 98.4C1444.79 99.7067 1444.34 100.8 1443.45 101.68C1442.57 102.56 1441.47 103 1440.15 103H1434.99V89H1437.29V93.8H1440.15ZM1440.15 100.84C1440.83 100.84 1441.39 100.613 1441.83 100.16C1442.27 99.6933 1442.49 99.1067 1442.49 98.4C1442.49 97.6933 1442.27 97.1133 1441.83 96.66C1441.39 96.1933 1440.83 95.96 1440.15 95.96H1437.29V100.84H1440.15ZM1459.69 89V91.2H1454.09V103H1451.79V89H1459.69ZM1472.2 101.16C1470.8 102.56 1469.08 103.26 1467.06 103.26C1465.03 103.26 1463.31 102.56 1461.9 101.16C1460.5 99.7467 1459.8 98.0267 1459.8 96C1459.8 93.9733 1460.5 92.26 1461.9 90.86C1463.31 89.4467 1465.03 88.74 1467.06 88.74C1469.08 88.74 1470.8 89.4467 1472.2 90.86C1473.61 92.26 1474.32 93.9733 1474.32 96C1474.32 98.0267 1473.61 99.7467 1472.2 101.16ZM1463.52 99.6C1464.48 100.547 1465.66 101.02 1467.06 101.02C1468.46 101.02 1469.63 100.547 1470.58 99.6C1471.54 98.64 1472.02 97.44 1472.02 96C1472.02 94.56 1471.54 93.3667 1470.58 92.42C1469.63 91.46 1468.46 90.98 1467.06 90.98C1465.66 90.98 1464.48 91.46 1463.52 92.42C1462.57 93.3667 1462.1 94.56 1462.1 96C1462.1 97.44 1462.57 98.64 1463.52 99.6ZM1481.58 89C1482.9 89 1484 89.44 1484.88 90.32C1485.77 91.2 1486.22 92.2933 1486.22 93.6C1486.22 94.8933 1485.77 95.9867 1484.88 96.88C1484 97.76 1482.9 98.2 1481.58 98.2H1478.72V103H1476.42V89H1481.58ZM1481.58 96.04C1482.26 96.04 1482.82 95.8133 1483.26 95.36C1483.7 94.8933 1483.92 94.3067 1483.92 93.6C1483.92 92.8933 1483.7 92.3133 1483.26 91.86C1482.82 91.3933 1482.26 91.16 1481.58 91.16H1478.72V96.04H1481.58ZM1499.8 101.16C1498.4 102.56 1496.68 103.26 1494.66 103.26C1492.63 103.26 1490.91 102.56 1489.5 101.16C1488.1 99.7467 1487.4 98.0267 1487.4 96C1487.4 93.9733 1488.1 92.26 1489.5 90.86C1490.91 89.4467 1492.63 88.74 1494.66 88.74C1496.68 88.74 1498.4 89.4467 1499.8 90.86C1501.21 92.26 1501.92 93.9733 1501.92 96C1501.92 98.0267 1501.21 99.7467 1499.8 101.16ZM1491.12 99.6C1492.08 100.547 1493.26 101.02 1494.66 101.02C1496.06 101.02 1497.23 100.547 1498.18 99.6C1499.14 98.64 1499.62 97.44 1499.62 96C1499.62 94.56 1499.14 93.3667 1498.18 92.42C1497.23 91.46 1496.06 90.98 1494.66 90.98C1493.26 90.98 1492.08 91.46 1491.12 92.42C1490.17 93.3667 1489.7 94.56 1489.7 96C1489.7 97.44 1490.17 98.64 1491.12 99.6ZM1513.91 100.8H1515.41V105.68H1513.11V103H1504.61V105.68H1502.31V100.8H1503.61C1504.42 99.7333 1504.83 98.1267 1504.83 95.98V89H1513.91V100.8ZM1506.13 100.8H1511.61V91.16H1507.13V96.02C1507.13 98.1 1506.79 99.6933 1506.13 100.8ZM1523.84 103.26C1521.73 103.26 1519.98 102.567 1518.6 101.18C1517.21 99.78 1516.52 98.0533 1516.52 96C1516.52 93.9467 1517.21 92.2267 1518.6 90.84C1519.98 89.44 1521.73 88.74 1523.84 88.74C1525.1 88.74 1526.27 89.04 1527.34 89.64C1528.42 90.24 1529.26 91.0533 1529.86 92.08L1527.86 93.24C1527.48 92.5467 1526.94 92 1526.22 91.6C1525.51 91.1867 1524.72 90.98 1523.84 90.98C1522.34 90.98 1521.13 91.4533 1520.2 92.4C1519.28 93.3467 1518.82 94.5467 1518.82 96C1518.82 97.4533 1519.28 98.6533 1520.2 99.6C1521.13 100.547 1522.34 101.02 1523.84 101.02C1524.72 101.02 1525.52 100.82 1526.24 100.42C1526.96 100.007 1527.5 99.4533 1527.86 98.76L1529.86 99.9C1529.27 100.927 1528.44 101.747 1527.36 102.36C1526.29 102.96 1525.12 103.26 1523.84 103.26ZM1542.33 103H1539.59L1534.07 96.34V103H1531.77V89H1534.07V95.28L1539.39 89H1542.13L1536.47 95.82L1542.33 103ZM1552.22 103V93.5L1545.62 103H1543.82V89H1546.12V98.5L1552.72 89H1554.52V103H1552.22ZM1567.61 103H1564.99L1561.91 97.94L1558.83 103H1556.21L1560.61 95.8L1556.47 89H1559.07L1561.91 93.66L1564.75 89H1567.37L1563.23 95.8L1567.61 103ZM1579.47 89C1580.79 89 1581.89 89.44 1582.77 90.32C1583.66 91.2 1584.11 92.2933 1584.11 93.6C1584.11 94.8933 1583.66 95.9867 1582.77 96.88C1581.89 97.76 1580.79 98.2 1579.47 98.2H1576.61V103H1574.31V89H1579.47ZM1579.47 96.04C1580.15 96.04 1580.71 95.8133 1581.15 95.36C1581.59 94.8933 1581.81 94.3067 1581.81 93.6C1581.81 92.8933 1581.59 92.3133 1581.15 91.86C1580.71 91.3933 1580.15 91.16 1579.47 91.16H1576.61V96.04H1579.47ZM1588.4 100.8H1594.6V103H1586.1V89H1594.5V91.2H1588.4V94.84H1594V97.02H1588.4V100.8ZM1603.21 103.26C1601.1 103.26 1599.36 102.567 1597.97 101.18C1596.58 99.78 1595.89 98.0533 1595.89 96C1595.89 93.9467 1596.58 92.2267 1597.97 90.84C1599.36 89.44 1601.1 88.74 1603.21 88.74C1604.48 88.74 1605.64 89.04 1606.71 89.64C1607.79 90.24 1608.63 91.0533 1609.23 92.08L1607.23 93.24C1606.86 92.5467 1606.31 92 1605.59 91.6C1604.88 91.1867 1604.09 90.98 1603.21 90.98C1601.72 90.98 1600.5 91.4533 1599.57 92.4C1598.65 93.3467 1598.19 94.5467 1598.19 96C1598.19 97.4533 1598.65 98.6533 1599.57 99.6C1600.5 100.547 1601.72 101.02 1603.21 101.02C1604.09 101.02 1604.89 100.82 1605.61 100.42C1606.33 100.007 1606.87 99.4533 1607.23 98.76L1609.23 99.9C1608.64 100.927 1607.81 101.747 1606.73 102.36C1605.66 102.96 1604.49 103.26 1603.21 103.26ZM1620.14 89V91.2H1616.2V103H1613.9V91.2H1609.94V89H1620.14ZM1632.74 101.16C1631.34 102.56 1629.63 103.26 1627.6 103.26C1625.58 103.26 1623.86 102.56 1622.44 101.16C1621.04 99.7467 1620.34 98.0267 1620.34 96C1620.34 93.9733 1621.04 92.26 1622.44 90.86C1623.86 89.4467 1625.58 88.74 1627.6 88.74C1629.63 88.74 1631.34 89.4467 1632.74 90.86C1634.16 92.26 1634.86 93.9733 1634.86 96C1634.86 98.0267 1634.16 99.7467 1632.74 101.16ZM1624.06 99.6C1625.02 100.547 1626.2 101.02 1627.6 101.02C1629 101.02 1630.18 100.547 1631.12 99.6C1632.08 98.64 1632.56 97.44 1632.56 96C1632.56 94.56 1632.08 93.3667 1631.12 92.42C1630.18 91.46 1629 90.98 1627.6 90.98C1626.2 90.98 1625.02 91.46 1624.06 92.42C1623.12 93.3667 1622.64 94.56 1622.64 96C1622.64 97.44 1623.12 98.64 1624.06 99.6ZM1642.12 89C1643.44 89 1644.54 89.44 1645.42 90.32C1646.32 91.2 1646.76 92.2933 1646.76 93.6C1646.76 94.8933 1646.32 95.9867 1645.42 96.88C1644.54 97.76 1643.44 98.2 1642.12 98.2H1639.26V103H1636.96V89H1642.12ZM1642.12 96.04C1642.8 96.04 1643.36 95.8133 1643.8 95.36C1644.24 94.8933 1644.46 94.3067 1644.46 93.6C1644.46 92.8933 1644.24 92.3133 1643.8 91.86C1643.36 91.3933 1642.8 91.16 1642.12 91.16H1639.26V96.04H1642.12ZM1656.47 103L1655.49 100.18H1649.53L1648.55 103H1646.05L1651.13 89H1653.89L1658.95 103H1656.47ZM1650.29 98.02H1654.73L1652.51 91.7L1650.29 98.02ZM1668.76 89H1671.06V103H1668.76V96.94H1662.76V103H1660.46V89H1662.76V94.74H1668.76V89ZM1685.56 101.16C1684.16 102.56 1682.44 103.26 1680.42 103.26C1678.39 103.26 1676.67 102.56 1675.26 101.16C1673.86 99.7467 1673.16 98.0267 1673.16 96C1673.16 93.9733 1673.86 92.26 1675.26 90.86C1676.67 89.4467 1678.39 88.74 1680.42 88.74C1682.44 88.74 1684.16 89.4467 1685.56 90.86C1686.97 92.26 1687.68 93.9733 1687.68 96C1687.68 98.0267 1686.97 99.7467 1685.56 101.16ZM1676.88 99.6C1677.84 100.547 1679.02 101.02 1680.42 101.02C1681.82 101.02 1682.99 100.547 1683.94 99.6C1684.9 98.64 1685.38 97.44 1685.38 96C1685.38 94.56 1684.9 93.3667 1683.94 92.42C1682.99 91.46 1681.82 90.98 1680.42 90.98C1679.02 90.98 1677.84 91.46 1676.88 92.42C1675.93 93.3667 1675.46 94.56 1675.46 96C1675.46 97.44 1675.93 98.64 1676.88 99.6ZM1698.02 95.74C1698.63 96.06 1699.11 96.5 1699.46 97.06C1699.8 97.62 1699.98 98.2667 1699.98 99C1699.98 100.147 1699.57 101.1 1698.76 101.86C1697.94 102.62 1696.95 103 1695.78 103H1689.78V89H1695.34C1696.48 89 1697.45 89.3733 1698.24 90.12C1699.04 90.8533 1699.44 91.7733 1699.44 92.88C1699.44 94.0933 1698.96 95.0467 1698.02 95.74ZM1695.34 91.16H1692.08V94.84H1695.34C1695.84 94.84 1696.27 94.6667 1696.62 94.32C1696.96 93.96 1697.14 93.52 1697.14 93C1697.14 92.48 1696.96 92.0467 1696.62 91.7C1696.27 91.34 1695.84 91.16 1695.34 91.16ZM1695.78 100.84C1696.31 100.84 1696.76 100.653 1697.12 100.28C1697.49 99.8933 1697.68 99.4267 1697.68 98.88C1697.68 98.3333 1697.49 97.8733 1697.12 97.5C1696.76 97.1133 1696.31 96.92 1695.78 96.92H1692.08V100.84H1695.78Z" fill="#0A1A14"/>
<g clip-path="url(#clip0_1183_776)">
<path d="M1483.14 164.681C1471.56 153.088 1456.8 145.193 1440.74 141.995C1424.67 138.797 1408.02 140.439 1392.89 146.713C1377.76 152.988 1364.83 163.613 1355.73 177.246C1346.63 190.878 1341.77 206.905 1341.77 223.301C1341.77 239.697 1346.63 255.724 1355.73 269.357C1364.83 282.989 1377.76 293.614 1392.89 299.889C1408.02 306.164 1424.67 307.806 1440.74 304.607C1456.8 301.409 1471.56 293.514 1483.14 281.921L1424.59 223.294L1483.14 164.681Z" fill="#FFC700"/>
<path d="M1738.63 144.24H1674.67V302.225H1733.85C1735.43 302.335 1737.03 302.417 1738.65 302.417L1738.63 144.24Z" fill="#E83E24"/>
<path d="M1748.69 177.542V301.24C1763.02 298.437 1775.93 290.735 1785.21 279.452C1794.5 268.169 1799.57 254.007 1799.57 239.391C1799.57 224.775 1794.5 210.613 1785.21 199.33C1775.93 188.047 1763.02 180.345 1748.69 177.542Z" fill="#E83E24"/>
<path d="M1544.57 144.377H1510.43V181.058H1544.57V144.377Z" fill="#E83E24"/>
<path d="M1600.7 193.235V144.377H1554.13V302.321H1600.73V193.235H1600.7Z" fill="#E83E24"/>
<path d="M1644.41 144.377H1610.26V181.058H1644.41V144.377Z" fill="#E83E24"/>
<path d="M1297.3 349.537C1282.88 352.255 1269.86 359.931 1260.49 371.24C1251.13 382.548 1246 396.777 1246 411.468C1246 426.159 1251.13 440.389 1260.49 451.697C1269.86 463.005 1282.88 470.682 1297.3 473.4V349.537Z" fill="#E83E24"/>
<path d="M1362.89 349.537V473.4C1377.32 470.682 1390.34 463.005 1399.7 451.697C1409.07 440.389 1414.2 426.159 1414.2 411.468C1414.2 396.777 1409.07 382.548 1399.7 371.24C1390.34 359.931 1377.32 352.255 1362.89 349.537Z" fill="#E83E24"/>
<path d="M1309.76 216.59V232.475H1300.49V216.59H1309.76ZM1315.22 211.117H1295.04V237.893H1315.21V211.199L1315.22 211.117Z" fill="#E83E24"/>
<path d="M1309.76 149.836V163.887H1283.31V282.811H1309.76V296.876H1282.93V296.807H1266.66V149.836H1309.76ZM1315.22 144.363H1261.21V302.253H1277.47V302.321H1315.21V277.365H1288.75V169.278H1315.21V144.377L1315.22 144.363Z" fill="#E83E24"/>
<path d="M1648.27 368.883C1636.68 357.29 1621.93 349.396 1605.87 346.197C1589.8 342.999 1573.15 344.641 1558.02 350.916C1542.89 357.19 1529.96 367.816 1520.86 381.448C1511.76 395.081 1506.9 411.108 1506.9 427.504C1506.9 443.899 1511.76 459.927 1520.86 473.559C1529.96 487.192 1542.89 497.817 1558.02 504.091C1573.15 510.366 1589.8 512.008 1605.87 508.81C1621.93 505.612 1636.68 497.717 1648.27 486.124L1589.66 427.51L1648.27 368.883Z" fill="#FFC700"/>
<path d="M1353.34 397.397V348.538H1306.75V506.482H1353.37V397.397H1353.34Z" fill="#E83E24"/>
<path d="M1481.69 420.752V436.623H1472.41V420.752H1481.69ZM1487.16 415.279H1467V442.068H1487.16V415.279Z" fill="#E83E24"/>
<path d="M1481.69 353.984V368.049H1455.26V486.972H1481.69V501.023H1454.87V500.955H1438.61V353.984H1481.69ZM1487.16 348.511H1433.17V506.414H1449.43V506.482H1487.16V481.513H1460.71V373.494H1487.16V348.511Z" fill="#E83E24"/>
<path d="M1700.16 348.538H1666.02V385.22H1700.16V348.538Z" fill="#E83E24"/>
<path d="M1756.29 397.397V348.538H1709.7V506.482H1756.32V397.397H1756.29Z" fill="#E83E24"/>
<path d="M1800 348.538H1765.84V385.22H1800V348.538Z" fill="#E83E24"/>
</g>
<defs>
<clipPath id="clip0_1183_776">
<rect width="554" height="370" fill="white" transform="translate(1246 140)"/>
</clipPath>
</defs>
</svg>
