<svg width="654" height="128" viewBox="0 0 654 128" fill="none" xmlns="http://www.w3.org/2000/svg">
<path d="M0 0H590V128H0V0Z" fill="#E83E24"/>
<path d="M184.509 78.52C180.295 78.52 176.802 77.1333 174.029 74.36C171.255 71.56 169.869 68.1067 169.869 64C169.869 59.8933 171.255 56.4533 174.029 53.68C176.802 50.88 180.295 49.48 184.509 49.48C187.042 49.48 189.375 50.08 191.509 51.28C193.669 52.48 195.349 54.1067 196.549 56.16L192.549 58.48C191.802 57.0933 190.709 56 189.269 55.2C187.855 54.3733 186.269 53.96 184.509 53.96C181.522 53.96 179.095 54.9067 177.229 56.8C175.389 58.6933 174.469 61.0933 174.469 64C174.469 66.9067 175.389 69.3067 177.229 71.2C179.095 73.0933 181.522 74.04 184.509 74.04C186.269 74.04 187.869 73.64 189.309 72.84C190.749 72.0133 191.829 70.9067 192.549 69.52L196.549 71.8C195.375 73.8533 193.709 75.4933 191.549 76.72C189.415 77.92 187.069 78.52 184.509 78.52ZM220.97 50V78H216.37V54.4H204.97V78H200.37V50H220.97ZM249.981 74.32C247.181 77.12 243.755 78.52 239.701 78.52C235.648 78.52 232.208 77.12 229.381 74.32C226.581 71.4933 225.181 68.0533 225.181 64C225.181 59.9467 226.581 56.52 229.381 53.72C232.208 50.8933 235.648 49.48 239.701 49.48C243.755 49.48 247.181 50.8933 249.981 53.72C252.808 56.52 254.221 59.9467 254.221 64C254.221 68.0533 252.808 71.4933 249.981 74.32ZM232.621 71.2C234.541 73.0933 236.901 74.04 239.701 74.04C242.501 74.04 244.848 73.0933 246.741 71.2C248.661 69.28 249.621 66.88 249.621 64C249.621 61.12 248.661 58.7333 246.741 56.84C244.848 54.92 242.501 53.96 239.701 53.96C236.901 53.96 234.541 54.92 232.621 56.84C230.728 58.7333 229.781 61.12 229.781 64C229.781 66.88 230.728 69.28 232.621 71.2ZM275.017 50H279.617V78H275.017V65.88H263.017V78H258.417V50H263.017V61.48H275.017V50ZM298.454 78.52C294.241 78.52 290.747 77.1333 287.974 74.36C285.201 71.56 283.814 68.1067 283.814 64C283.814 59.8933 285.201 56.4533 287.974 53.68C290.747 50.88 294.241 49.48 298.454 49.48C300.987 49.48 303.321 50.08 305.454 51.28C307.614 52.48 309.294 54.1067 310.494 56.16L306.494 58.48C305.747 57.0933 304.654 56 303.214 55.2C301.801 54.3733 300.214 53.96 298.454 53.96C295.467 53.96 293.041 54.9067 291.174 56.8C289.334 58.6933 288.414 61.0933 288.414 64C288.414 66.9067 289.334 69.3067 291.174 71.2C293.041 73.0933 295.467 74.04 298.454 74.04C300.214 74.04 301.814 73.64 303.254 72.84C304.694 72.0133 305.774 70.9067 306.494 69.52L310.494 71.8C309.321 73.8533 307.654 75.4933 305.494 76.72C303.361 77.92 301.014 78.52 298.454 78.52ZM337.52 74.32C334.72 77.12 331.294 78.52 327.24 78.52C323.187 78.52 319.747 77.12 316.92 74.32C314.12 71.4933 312.72 68.0533 312.72 64C312.72 59.9467 314.12 56.52 316.92 53.72C319.747 50.8933 323.187 49.48 327.24 49.48C331.294 49.48 334.72 50.8933 337.52 53.72C340.347 56.52 341.76 59.9467 341.76 64C341.76 68.0533 340.347 71.4933 337.52 74.32ZM320.16 71.2C322.08 73.0933 324.44 74.04 327.24 74.04C330.04 74.04 332.387 73.0933 334.28 71.2C336.2 69.28 337.16 66.88 337.16 64C337.16 61.12 336.2 58.7333 334.28 56.84C332.387 54.92 330.04 53.96 327.24 53.96C324.44 53.96 322.08 54.92 320.16 56.84C318.267 58.7333 317.32 61.12 317.32 64C317.32 66.88 318.267 69.28 320.16 71.2ZM356.276 50C358.916 50 361.116 50.88 362.876 52.64C364.663 54.4 365.556 56.5867 365.556 59.2C365.556 61.7867 364.663 63.9733 362.876 65.76C361.116 67.52 358.916 68.4 356.276 68.4H350.556V78H345.956V50H356.276ZM356.276 64.08C357.636 64.08 358.756 63.6267 359.636 62.72C360.516 61.7867 360.956 60.6133 360.956 59.2C360.956 57.7867 360.516 56.6267 359.636 55.72C358.756 54.7867 357.636 54.32 356.276 54.32H350.556V64.08H356.276ZM384.978 78L383.018 72.36H371.098L369.138 78H364.138L374.298 50H379.818L389.938 78H384.978ZM372.618 68.04H381.498L377.058 55.4L372.618 68.04ZM419.748 50V78H415.148V58.04L406.628 72.12H406.068L397.548 58V78H392.948V50H397.908L406.348 64L414.828 50H419.748Z" fill="white"/>
<path d="M635.548 109.255C626.737 118.205 615.511 124.301 603.291 126.77C591.07 129.24 578.403 127.972 566.891 123.128C555.379 118.284 545.54 110.081 538.617 99.5565C531.695 89.0318 528 76.658 528 64C528 51.342 531.695 38.9683 538.617 28.4435C545.54 17.9188 555.379 9.71572 566.891 4.87171C578.403 0.0277029 591.07 -1.23971 603.291 1.22974C615.511 3.69919 626.737 9.7946 635.548 18.7452L591 64L635.548 109.255Z" fill="#FFC700"/>
</svg>
