<svg width="654" height="128" viewBox="0 0 654 128" fill="none" xmlns="http://www.w3.org/2000/svg">
<path d="M654 0H64V128H654V0Z" fill="#E83E24"/>
<path d="M140.958 78V73.76C142.718 74 144.024 73.5733 144.878 72.48C145.758 71.3867 146.198 69.2933 146.198 66.2V50H164.958V78H160.358V54.4H150.798V66.12C150.798 68.5733 150.531 70.64 149.998 72.32C149.491 74 148.758 75.2667 147.798 76.12C146.838 76.9467 145.798 77.5067 144.678 77.8C143.584 78.0667 142.344 78.1333 140.958 78ZM193.822 49.48C197.876 49.48 201.302 50.8933 204.102 53.72C206.929 56.52 208.342 59.9467 208.342 64C208.342 68.0533 206.929 71.4933 204.102 74.32C201.302 77.12 197.876 78.52 193.822 78.52C190.116 78.52 186.916 77.32 184.222 74.92C181.556 72.4933 180.009 69.4533 179.582 65.8H175.142V78H170.542V50H175.142V61.4H179.702C180.289 57.96 181.889 55.12 184.502 52.88C187.142 50.6133 190.249 49.48 193.822 49.48ZM186.742 71.2C188.662 73.0933 191.022 74.04 193.822 74.04C196.622 74.04 198.969 73.0933 200.862 71.2C202.782 69.28 203.742 66.88 203.742 64C203.742 61.12 202.782 58.7333 200.862 56.84C198.969 54.92 196.622 53.96 193.822 53.96C190.996 53.96 188.636 54.9067 186.742 56.8C184.849 58.6933 183.902 61.0933 183.902 64C183.902 66.88 184.849 69.28 186.742 71.2ZM223.134 60.8C225.721 60.8 227.868 61.6133 229.574 63.24C231.281 64.8667 232.134 66.92 232.134 69.4C232.134 71.88 231.281 73.9333 229.574 75.56C227.868 77.1867 225.721 78 223.134 78H212.534V50H229.734V54.4H217.134V60.8H223.134ZM223.134 73.68C224.388 73.68 225.428 73.2933 226.254 72.52C227.108 71.72 227.534 70.68 227.534 69.4C227.534 68.12 227.108 67.0933 226.254 66.32C225.428 65.52 224.388 65.12 223.134 65.12H217.134V73.68H223.134ZM252.733 78V59L239.533 78H235.933V50H240.533V69L253.733 50H257.333V78H252.733ZM289.725 50V78H285.125V58.04L276.605 72.12H276.045L267.525 58V78H262.925V50H267.885L276.325 64L284.805 50H289.725ZM295.308 78V50H299.908V59.6H305.628C308.268 59.6 310.468 60.4933 312.228 62.28C314.014 64.04 314.908 66.2133 314.908 68.8C314.908 71.3867 314.014 73.5733 312.228 75.36C310.468 77.12 308.268 78 305.628 78H295.308ZM317.628 78V50H322.228V78H317.628ZM299.908 73.68H305.628C306.988 73.68 308.108 73.2267 308.988 72.32C309.868 71.3867 310.308 70.2133 310.308 68.8C310.308 67.3867 309.868 66.2267 308.988 65.32C308.108 64.3867 306.988 63.92 305.628 63.92H299.908V73.68ZM332.447 73.6H344.847V78H327.847V50H344.647V54.4H332.447V61.68H343.647V66.04H332.447V73.6ZM373.298 63.48C376.151 64.84 377.578 67.0933 377.578 70.24C377.578 72.6933 376.644 74.6933 374.778 76.24C372.938 77.76 370.524 78.52 367.538 78.52C362.418 78.52 359.031 76.36 357.378 72.04L361.338 69.76C362.164 72.72 364.231 74.2 367.538 74.2C369.298 74.2 370.644 73.8267 371.578 73.08C372.511 72.3067 372.978 71.28 372.978 70C372.978 68.7467 372.524 67.7467 371.618 67C370.738 66.2267 369.484 65.84 367.858 65.84H364.458V61.68H366.938C368.511 61.68 369.738 61.32 370.618 60.6C371.498 59.88 371.938 58.92 371.938 57.72C371.938 56.52 371.538 55.5733 370.738 54.88C369.938 54.16 368.791 53.8 367.298 53.8C364.524 53.8 362.658 55.0667 361.698 57.6L357.778 55.32C359.591 51.4267 362.764 49.48 367.298 49.48C370.044 49.48 372.271 50.2267 373.978 51.72C375.684 53.1867 376.538 55.1067 376.538 57.48C376.538 60.12 375.458 62.12 373.298 63.48ZM399.837 78L397.877 72.36H385.957L383.997 78H378.997L389.157 50H394.677L404.797 78H399.837ZM387.477 68.04H396.357L391.917 55.4L387.477 68.04ZM424.288 63.48C425.514 64.12 426.474 65 427.168 66.12C427.861 67.24 428.208 68.5333 428.208 70C428.208 72.2933 427.394 74.2 425.768 75.72C424.141 77.24 422.154 78 419.808 78H407.808V50H418.928C421.221 50 423.154 50.7467 424.728 52.24C426.328 53.7067 427.128 55.5467 427.128 57.76C427.128 60.1867 426.181 62.0933 424.288 63.48ZM418.928 54.32H412.408V61.68H418.928C419.941 61.68 420.794 61.3333 421.488 60.64C422.181 59.92 422.528 59.04 422.528 58C422.528 56.96 422.181 56.0933 421.488 55.4C420.794 54.68 419.941 54.32 418.928 54.32ZM419.808 73.68C420.874 73.68 421.768 73.3067 422.488 72.56C423.234 71.7867 423.608 70.8533 423.608 69.76C423.608 68.6667 423.234 67.7467 422.488 67C421.768 66.2267 420.874 65.84 419.808 65.84H412.408V73.68H419.808ZM436.822 73.6H449.222V78H432.222V50H449.022V54.4H436.822V61.68H448.022V66.04H436.822V73.6ZM474.433 73.6H477.433V83.36H472.833V78H455.833V83.36H451.233V73.6H453.833C455.459 71.4667 456.273 68.2533 456.273 63.96V50H474.433V73.6ZM458.873 73.6H469.833V54.32H460.873V64.04C460.873 68.2 460.206 71.3867 458.873 73.6ZM486.041 73.6H498.441V78H481.441V50H498.241V54.4H486.041V61.68H497.241V66.04H486.041V73.6ZM519.252 50H523.852V78H519.252V65.88H507.252V78H502.652V50H507.252V61.48H519.252V50ZM546.248 78V59L533.048 78H529.448V50H534.048V69L547.248 50H550.848V78H546.248ZM575.761 50V78H571.161V67.8H566.721L559.961 78H554.761L561.881 67.4C560.041 66.84 558.521 65.7867 557.321 64.24C556.147 62.6667 555.561 60.92 555.561 59C555.561 56.4933 556.427 54.3733 558.161 52.64C559.921 50.88 562.054 50 564.561 50H575.761ZM564.561 63.68H571.161V54.32H564.561C563.334 54.32 562.294 54.7733 561.441 55.68C560.587 56.5867 560.161 57.6933 560.161 59C560.161 60.3067 560.587 61.4133 561.441 62.32C562.294 63.2267 563.334 63.68 564.561 63.68Z" fill="white"/>
<path d="M18.4523 109.255C27.263 118.205 38.4885 124.301 50.7093 126.77C62.9301 129.24 75.5973 127.972 87.1091 123.128C98.6208 118.284 108.46 110.081 115.383 99.5565C122.305 89.0318 126 76.658 126 64C126 51.342 122.305 38.9683 115.383 28.4435C108.46 17.9188 98.6208 9.71572 87.1091 4.87171C75.5973 0.0277029 62.9301 -1.23971 50.7093 1.22974C38.4885 3.69919 27.263 9.7946 18.4523 18.7452L63 64L18.4523 109.255Z" fill="#FFC700"/>
</svg>
