<svg width="654" height="128" viewBox="0 0 654 128" fill="none" xmlns="http://www.w3.org/2000/svg">
<path d="M0 0H590V128H0V0Z" fill="#E83E24"/>
<path d="M233.768 50V54.4H222.568V78H217.968V50H233.768ZM252.224 78L250.264 72.36H238.344L236.384 78H231.384L241.544 50H247.064L257.184 78H252.224ZM239.864 68.04H248.744L244.304 55.4L239.864 68.04ZM258.11 78V73.76C259.87 74 261.177 73.5733 262.03 72.48C262.91 71.3867 263.35 69.2933 263.35 66.2V50H282.11V78H277.51V54.4H267.95V66.12C267.95 68.5733 267.683 70.64 267.15 72.32C266.643 74 265.91 75.2667 264.95 76.12C263.99 76.9467 262.95 77.5067 261.83 77.8C260.737 78.0667 259.497 78.1333 258.11 78ZM292.295 73.6H304.695V78H287.695V50H304.495V54.4H292.295V61.68H303.495V66.04H292.295V73.6ZM319.225 50C321.865 50 324.065 50.88 325.825 52.64C327.612 54.4 328.505 56.5867 328.505 59.2C328.505 61.7867 327.612 63.9733 325.825 65.76C324.065 67.52 321.865 68.4 319.225 68.4H313.505V78H308.905V50H319.225ZM319.225 64.08C320.585 64.08 321.705 63.6267 322.585 62.72C323.465 61.7867 323.905 60.6133 323.905 59.2C323.905 57.7867 323.465 56.6267 322.585 55.72C321.705 54.7867 320.585 54.32 319.225 54.32H313.505V64.08H319.225ZM337.099 73.6H349.499V78H332.499V50H349.299V54.4H337.099V61.68H348.299V66.04H337.099V73.6ZM373.03 50V78H368.43V67.8H363.99L357.23 78H352.03L359.15 67.4C357.31 66.84 355.79 65.7867 354.59 64.24C353.417 62.6667 352.83 60.92 352.83 59C352.83 56.4933 353.697 54.3733 355.43 52.64C357.19 50.88 359.323 50 361.83 50H373.03ZM361.83 63.68H368.43V54.32H361.83C360.603 54.32 359.563 54.7733 358.71 55.68C357.857 56.5867 357.43 57.6933 357.43 59C357.43 60.3067 357.857 61.4133 358.71 62.32C359.563 63.2267 360.603 63.68 361.83 63.68Z" fill="white"/>
<path d="M635.548 109.255C626.737 118.205 615.511 124.301 603.291 126.77C591.07 129.24 578.403 127.972 566.891 123.128C555.379 118.284 545.54 110.081 538.617 99.5565C531.695 89.0318 528 76.658 528 64C528 51.342 531.695 38.9683 538.617 28.4435C545.54 17.9188 555.379 9.71572 566.891 4.87171C578.403 0.0277029 591.07 -1.23971 603.291 1.22974C615.511 3.69919 626.737 9.7946 635.548 18.7452L591 64L635.548 109.255Z" fill="#FFC700"/>
</svg>
