<svg width="654" height="128" viewBox="0 0 654 128" fill="none" xmlns="http://www.w3.org/2000/svg">
<path d="M654 0H64V128H654V0Z" fill="#E83E24"/>
<path d="M218.744 50H223.344V78H218.744V65.88H206.744V78H202.144V50H206.744V61.48H218.744V50ZM247.181 78L245.221 72.36H233.301L231.341 78H226.341L236.501 50H242.021L252.141 78H247.181ZM234.821 68.04H243.701L239.261 55.4L234.821 68.04ZM282.752 50H287.352V78H255.152V50H259.752V73.6H268.952V50H273.552V73.6H282.752V50ZM311.204 78L309.244 72.36H297.324L295.364 78H290.364L300.524 50H306.044L316.164 78H311.204ZM298.844 68.04H307.724L303.284 55.4L298.844 68.04ZM350.295 78H344.815L333.775 64.68V78H329.175V50H333.775V62.56L344.415 50H349.895L338.575 63.64L350.295 78ZM374.294 74.32C371.494 77.12 368.067 78.52 364.014 78.52C359.96 78.52 356.52 77.12 353.694 74.32C350.894 71.4933 349.494 68.0533 349.494 64C349.494 59.9467 350.894 56.52 353.694 53.72C356.52 50.8933 359.96 49.48 364.014 49.48C368.067 49.48 371.494 50.8933 374.294 53.72C377.12 56.52 378.534 59.9467 378.534 64C378.534 68.0533 377.12 71.4933 374.294 74.32ZM356.934 71.2C358.854 73.0933 361.214 74.04 364.014 74.04C366.814 74.04 369.16 73.0933 371.054 71.2C372.974 69.28 373.934 66.88 373.934 64C373.934 61.12 372.974 58.7333 371.054 56.84C369.16 54.92 366.814 53.96 364.014 53.96C361.214 53.96 358.854 54.92 356.934 56.84C355.04 58.7333 354.094 61.12 354.094 64C354.094 66.88 355.04 69.28 356.934 71.2ZM409.53 50V78H404.93V58.04L396.41 72.12H395.85L387.33 58V78H382.73V50H387.69L396.13 64L404.61 50H409.53ZM433.353 78L431.393 72.36H419.473L417.513 78H412.513L422.673 50H428.193L438.313 78H433.353ZM420.993 68.04H429.873L425.433 55.4L420.993 68.04ZM457.923 50H462.523V78H457.923V65.88H445.923V78H441.323V50H445.923V61.48H457.923V50ZM489.12 73.6H492.12V83.36H487.52V78H470.52V83.36H465.92V73.6H468.52C470.147 71.4667 470.96 68.2533 470.96 63.96V50H489.12V73.6ZM473.56 73.6H484.52V54.32H475.56V64.04C475.56 68.2 474.894 71.3867 473.56 73.6ZM514.485 78L512.525 72.36H500.605L498.645 78H493.645L503.805 50H509.325L519.445 78H514.485ZM502.125 68.04H511.005L506.565 55.4L502.125 68.04Z" fill="white"/>
<path d="M18.4523 109.255C27.263 118.205 38.4885 124.301 50.7093 126.77C62.9301 129.24 75.5973 127.972 87.1091 123.128C98.6208 118.284 108.46 110.081 115.383 99.5565C122.305 89.0318 126 76.658 126 64C126 51.342 122.305 38.9683 115.383 28.4435C108.46 17.9188 98.6208 9.71572 87.1091 4.87171C75.5973 0.0277029 62.9301 -1.23971 50.7093 1.22974C38.4885 3.69919 27.263 9.7946 18.4523 18.7452L63 64L18.4523 109.255Z" fill="#FFC700"/>
</svg>
