<svg width="134" height="48" viewBox="0 0 134 48" fill="none" xmlns="http://www.w3.org/2000/svg">
<path d="M7.056 19.24C5.888 19.24 4.856 19.024 3.96 18.592C3.08 18.16 2.384 17.536 1.872 16.72C1.36 15.888 1.08 14.896 1.032 13.744C1.016 13.488 1.008 13.168 1.008 12.784C1.008 12.384 1.016 12.056 1.032 11.8C1.08 10.632 1.352 9.64 1.848 8.824C2.36 7.992 3.064 7.36 3.96 6.928C4.856 6.496 5.888 6.28 7.056 6.28C8.128 6.28 9.04 6.432 9.792 6.736C10.544 7.024 11.16 7.392 11.64 7.84C12.12 8.288 12.472 8.76 12.696 9.256C12.936 9.736 13.064 10.16 13.08 10.528C13.096 10.688 13.04 10.832 12.912 10.96C12.8 11.072 12.664 11.128 12.504 11.128H9.936C9.776 11.128 9.648 11.088 9.552 11.008C9.472 10.912 9.392 10.784 9.312 10.624C9.088 10.064 8.8 9.664 8.448 9.424C8.096 9.184 7.656 9.064 7.128 9.064C6.408 9.064 5.84 9.296 5.424 9.76C5.008 10.224 4.784 10.944 4.752 11.92C4.736 12.544 4.736 13.112 4.752 13.624C4.8 14.616 5.024 15.336 5.424 15.784C5.84 16.232 6.408 16.456 7.128 16.456C7.688 16.456 8.136 16.336 8.472 16.096C8.808 15.856 9.088 15.456 9.312 14.896C9.376 14.736 9.456 14.616 9.552 14.536C9.648 14.44 9.776 14.392 9.936 14.392H12.504C12.664 14.392 12.8 14.456 12.912 14.584C13.04 14.696 13.096 14.832 13.08 14.992C13.064 15.264 12.984 15.584 12.84 15.952C12.712 16.32 12.496 16.696 12.192 17.08C11.904 17.464 11.528 17.824 11.064 18.16C10.6 18.48 10.032 18.744 9.36 18.952C8.704 19.144 7.936 19.24 7.056 19.24ZM21.0019 19.24C19.1619 19.24 17.6979 18.728 16.6099 17.704C15.5379 16.68 14.9699 15.192 14.9059 13.24C14.9059 13.112 14.9059 12.944 14.9059 12.736C14.9059 12.512 14.9059 12.336 14.9059 12.208C14.9699 10.976 15.2499 9.92 15.7459 9.04C16.2419 8.144 16.9379 7.464 17.8339 7C18.7299 6.52 19.7779 6.28 20.9779 6.28C22.3219 6.28 23.4419 6.56 24.3379 7.12C25.2499 7.664 25.9299 8.416 26.3779 9.376C26.8419 10.32 27.0739 11.408 27.0739 12.64V13.192C27.0739 13.352 27.0099 13.488 26.8819 13.6C26.7699 13.712 26.6339 13.768 26.4739 13.768H18.6259C18.6259 13.784 18.6259 13.816 18.6259 13.864C18.6259 13.896 18.6259 13.928 18.6259 13.96C18.6419 14.472 18.7379 14.944 18.9139 15.376C19.1059 15.792 19.3699 16.128 19.7059 16.384C20.0579 16.64 20.4739 16.768 20.9539 16.768C21.3539 16.768 21.6819 16.712 21.9379 16.6C22.1939 16.488 22.4019 16.352 22.5619 16.192C22.7379 16.032 22.8659 15.896 22.9459 15.784C23.0899 15.624 23.2019 15.528 23.2819 15.496C23.3779 15.448 23.5219 15.424 23.7139 15.424H26.2099C26.3699 15.424 26.4979 15.472 26.5939 15.568C26.7059 15.648 26.7539 15.768 26.7379 15.928C26.7219 16.184 26.5859 16.504 26.3299 16.888C26.0899 17.256 25.7299 17.624 25.2499 17.992C24.7699 18.344 24.1699 18.64 23.4499 18.88C22.7459 19.12 21.9299 19.24 21.0019 19.24ZM18.6259 11.584H23.3299V11.536C23.3299 10.96 23.2339 10.464 23.0419 10.048C22.8659 9.616 22.6019 9.28 22.2499 9.04C21.8979 8.8 21.4739 8.68 20.9779 8.68C20.4819 8.68 20.0579 8.8 19.7059 9.04C19.3539 9.28 19.0819 9.616 18.8899 10.048C18.7139 10.464 18.6259 10.96 18.6259 11.536V11.584ZM30.0489 19C29.8889 19 29.7529 18.944 29.6409 18.832C29.5289 18.72 29.4729 18.576 29.4729 18.4V7.12C29.4729 6.944 29.5289 6.8 29.6409 6.688C29.7529 6.576 29.8889 6.52 30.0489 6.52H32.4489C32.6249 6.52 32.7689 6.576 32.8809 6.688C32.9929 6.8 33.0489 6.944 33.0489 7.12V11.248H37.9209V7.12C37.9209 6.944 37.9769 6.8 38.0889 6.688C38.2009 6.576 38.3449 6.52 38.5209 6.52H40.9209C41.0809 6.52 41.2169 6.576 41.3289 6.688C41.4409 6.8 41.4969 6.944 41.4969 7.12V18.4C41.4969 18.576 41.4409 18.72 41.3289 18.832C41.2169 18.944 41.0809 19 40.9209 19H38.5209C38.3449 19 38.2009 18.944 38.0889 18.832C37.9769 18.72 37.9209 18.576 37.9209 18.4V14.08H33.0489V18.4C33.0489 18.576 32.9929 18.72 32.8809 18.832C32.7689 18.944 32.6249 19 32.4489 19H30.0489ZM48.3821 19C48.2061 19 48.0621 18.944 47.9501 18.832C47.8381 18.72 47.7821 18.576 47.7821 18.4V9.352H44.0141C43.8381 9.352 43.6941 9.296 43.5821 9.184C43.4701 9.072 43.4141 8.928 43.4141 8.752V7.12C43.4141 6.944 43.4701 6.8 43.5821 6.688C43.6941 6.576 43.8381 6.52 44.0141 6.52H55.0781C55.2541 6.52 55.3981 6.576 55.5101 6.688C55.6221 6.8 55.6781 6.944 55.6781 7.12V8.752C55.6781 8.928 55.6221 9.072 55.5101 9.184C55.3981 9.296 55.2541 9.352 55.0781 9.352H51.3101V18.4C51.3101 18.576 51.2541 18.72 51.1421 18.832C51.0301 18.944 50.8941 19 50.7341 19H48.3821ZM65.4956 19C65.3196 19 65.1756 18.944 65.0636 18.832C64.9516 18.72 64.8956 18.576 64.8956 18.4V14.872H62.7116V14.752C61.0476 14.752 59.7916 14.384 58.9436 13.648C58.0956 12.896 57.6716 11.896 57.6716 10.648C57.6716 9.288 58.1036 8.264 58.9676 7.576C59.8476 6.872 61.0876 6.52 62.6876 6.52H67.9676C68.1436 6.52 68.2876 6.576 68.3996 6.688C68.5116 6.8 68.5676 6.944 68.5676 7.12V18.4C68.5676 18.576 68.5116 18.72 68.3996 18.832C68.2876 18.944 68.1436 19 67.9676 19H65.4956ZM57.7676 19C57.6236 19 57.5036 18.952 57.4076 18.856C57.3116 18.76 57.2636 18.648 57.2636 18.52C57.2636 18.472 57.2716 18.416 57.2876 18.352C57.3196 18.288 57.3596 18.224 57.4076 18.16L60.0236 13.936L63.2396 14.44L60.7916 18.64C60.7276 18.736 60.6396 18.824 60.5276 18.904C60.4316 18.968 60.3196 19 60.1916 19H57.7676ZM62.7116 12.352H64.9676V9.04H62.8316C62.1756 9.04 61.6876 9.16 61.3676 9.4C61.0476 9.64 60.8876 10.056 60.8876 10.648C60.8876 11.144 61.0316 11.552 61.3196 11.872C61.6236 12.192 62.0876 12.352 62.7116 12.352ZM77.4684 19.24C76.0764 19.24 74.9324 19.008 74.0364 18.544C73.1564 18.08 72.4924 17.384 72.0444 16.456C71.6124 15.512 71.3644 14.344 71.3004 12.952C71.2844 12.488 71.2764 12.008 71.2764 11.512C71.2764 11.016 71.2844 10.536 71.3004 10.072C71.3324 8.696 71.4684 7.544 71.7084 6.616C71.9644 5.672 72.3404 4.896 72.8364 4.288C73.3484 3.664 73.9964 3.152 74.7804 2.752C75.5804 2.336 76.5324 1.976 77.6364 1.672C78.7404 1.368 80.0204 1.048 81.4764 0.711999C81.6364 0.679999 81.7884 0.703999 81.9324 0.783998C82.0764 0.863999 82.1564 0.992 82.1724 1.168L82.5324 3.04C82.5644 3.216 82.5324 3.368 82.4364 3.496C82.3564 3.624 82.2444 3.704 82.1004 3.736C80.8684 3.992 79.8204 4.224 78.9564 4.432C78.0924 4.64 77.3724 4.88 76.7964 5.152C76.2364 5.408 75.8044 5.752 75.5004 6.184C75.1964 6.6 74.9804 7.152 74.8524 7.84C74.7404 8.512 74.7004 9.368 74.7324 10.408L74.1804 9.856C74.2924 9.392 74.5404 8.976 74.9244 8.608C75.3084 8.24 75.7804 7.944 76.3404 7.72C76.9004 7.48 77.4924 7.36 78.1164 7.36C79.2844 7.36 80.2684 7.568 81.0684 7.984C81.8684 8.4 82.4764 8.992 82.8924 9.76C83.3244 10.512 83.5724 11.416 83.6364 12.472C83.6684 13.064 83.6684 13.616 83.6364 14.128C83.5724 15.152 83.3004 16.056 82.8204 16.84C82.3564 17.608 81.6764 18.2 80.7804 18.616C79.8844 19.032 78.7804 19.24 77.4684 19.24ZM77.4684 16.816C78.2524 16.816 78.8444 16.584 79.2444 16.12C79.6444 15.64 79.8604 14.936 79.8924 14.008C79.9084 13.832 79.9164 13.608 79.9164 13.336C79.9164 13.048 79.9084 12.792 79.8924 12.568C79.8604 11.672 79.6444 10.984 79.2444 10.504C78.8604 10.024 78.3244 9.784 77.6364 9.784C76.8364 9.784 76.2124 10.024 75.7644 10.504C75.3164 10.984 75.0684 11.672 75.0204 12.568C75.0044 12.792 74.9964 13.048 74.9964 13.336C74.9964 13.608 75.0044 13.832 75.0204 14.008C75.0684 14.936 75.2924 15.64 75.6924 16.12C76.0924 16.584 76.6844 16.816 77.4684 16.816ZM86.7917 23.56C86.6157 23.56 86.4717 23.504 86.3597 23.392C86.2477 23.28 86.1917 23.136 86.1917 22.96V7.12C86.1917 6.944 86.2477 6.8 86.3597 6.688C86.4717 6.576 86.6157 6.52 86.7917 6.52H89.0717C89.2477 6.52 89.3917 6.576 89.5037 6.688C89.6157 6.8 89.6717 6.944 89.6717 7.12V8.032C90.0557 7.52 90.5517 7.104 91.1597 6.784C91.7677 6.448 92.5277 6.28 93.4397 6.28C94.2717 6.28 94.9917 6.416 95.5997 6.688C96.2237 6.944 96.7437 7.32 97.1597 7.816C97.5917 8.296 97.9197 8.88 98.1437 9.568C98.3837 10.256 98.5197 11.032 98.5517 11.896C98.5677 12.2 98.5757 12.488 98.5757 12.76C98.5757 13.032 98.5677 13.328 98.5517 13.648C98.5357 14.464 98.4077 15.216 98.1677 15.904C97.9437 16.592 97.6157 17.184 97.1837 17.68C96.7517 18.176 96.2237 18.56 95.5997 18.832C94.9917 19.104 94.2717 19.24 93.4397 19.24C92.6237 19.24 91.9117 19.096 91.3037 18.808C90.7117 18.504 90.2237 18.096 89.8397 17.584V22.96C89.8397 23.136 89.7837 23.28 89.6717 23.392C89.5597 23.504 89.4237 23.56 89.2637 23.56H86.7917ZM92.3597 16.36C92.9677 16.36 93.4477 16.232 93.7997 15.976C94.1517 15.704 94.3997 15.352 94.5437 14.92C94.7037 14.488 94.7997 14.016 94.8317 13.504C94.8637 13.008 94.8637 12.512 94.8317 12.016C94.7997 11.504 94.7037 11.032 94.5437 10.6C94.3997 10.168 94.1517 9.824 93.7997 9.568C93.4477 9.296 92.9677 9.16 92.3597 9.16C91.7677 9.16 91.2877 9.296 90.9197 9.568C90.5517 9.84 90.2877 10.184 90.1277 10.6C89.9677 11.016 89.8717 11.464 89.8397 11.944C89.8237 12.232 89.8157 12.528 89.8157 12.832C89.8157 13.136 89.8237 13.44 89.8397 13.744C89.8557 14.192 89.9517 14.616 90.1277 15.016C90.3197 15.4 90.5917 15.72 90.9437 15.976C91.3117 16.232 91.7837 16.36 92.3597 16.36ZM109.089 19C108.913 19 108.769 18.944 108.657 18.832C108.545 18.72 108.489 18.576 108.489 18.4V14.872H106.305V14.752C104.641 14.752 103.385 14.384 102.537 13.648C101.689 12.896 101.265 11.896 101.265 10.648C101.265 9.288 101.697 8.264 102.561 7.576C103.441 6.872 104.681 6.52 106.281 6.52H111.561C111.737 6.52 111.881 6.576 111.993 6.688C112.105 6.8 112.161 6.944 112.161 7.12V18.4C112.161 18.576 112.105 18.72 111.993 18.832C111.881 18.944 111.737 19 111.561 19H109.089ZM101.361 19C101.217 19 101.097 18.952 101.001 18.856C100.905 18.76 100.857 18.648 100.857 18.52C100.857 18.472 100.865 18.416 100.881 18.352C100.913 18.288 100.953 18.224 101.001 18.16L103.617 13.936L106.833 14.44L104.385 18.64C104.321 18.736 104.233 18.824 104.121 18.904C104.025 18.968 103.913 19 103.785 19H101.361ZM106.305 12.352H108.561V9.04H106.425C105.769 9.04 105.281 9.16 104.961 9.4C104.641 9.64 104.481 10.056 104.481 10.648C104.481 11.144 104.625 11.552 104.913 11.872C105.217 12.192 105.681 12.352 106.305 12.352ZM6.072 47C5.896 47 5.752 46.944 5.64 46.832C5.528 46.72 5.472 46.576 5.472 46.4V33.536H1.104C0.944 33.536 0.808 33.48 0.696 33.368C0.584 33.256 0.528 33.12 0.528 32.96V30.8C0.528 30.624 0.584 30.48 0.696 30.368C0.808 30.256 0.944 30.2 1.104 30.2H13.68C13.856 30.2 14 30.256 14.112 30.368C14.224 30.48 14.28 30.624 14.28 30.8V32.96C14.28 33.12 14.224 33.256 14.112 33.368C14 33.48 13.856 33.536 13.68 33.536H9.336V46.4C9.336 46.576 9.28 46.72 9.168 46.832C9.056 46.944 8.912 47 8.736 47H6.072ZM17.1885 47C17.0125 47 16.8685 46.944 16.7565 46.832C16.6445 46.72 16.5885 46.576 16.5885 46.4V30.8C16.5885 30.624 16.6445 30.48 16.7565 30.368C16.8685 30.256 17.0125 30.2 17.1885 30.2H23.7405C25.0365 30.2 26.1565 30.4 27.1005 30.8C28.0605 31.2 28.8045 31.808 29.3325 32.624C29.8765 33.424 30.1485 34.424 30.1485 35.624C30.1485 36.84 29.8765 37.848 29.3325 38.648C28.8045 39.432 28.0605 40.016 27.1005 40.4C26.1565 40.784 25.0365 40.976 23.7405 40.976H20.5245V46.4C20.5245 46.576 20.4685 46.72 20.3565 46.832C20.2445 46.944 20.1005 47 19.9245 47H17.1885ZM20.4525 38H23.6205C24.4365 38 25.0685 37.8 25.5165 37.4C25.9805 37 26.2125 36.4 26.2125 35.6C26.2125 34.896 26.0045 34.32 25.5885 33.872C25.1885 33.424 24.5325 33.2 23.6205 33.2H20.4525V38ZM33.1963 47C33.0203 47 32.8763 46.944 32.7643 46.832C32.6523 46.72 32.5963 46.576 32.5963 46.4V30.8C32.5963 30.624 32.6523 30.48 32.7643 30.368C32.8763 30.256 33.0203 30.2 33.1963 30.2H35.8123C35.9883 30.2 36.1323 30.256 36.2443 30.368C36.3563 30.48 36.4123 30.624 36.4123 30.8V36.8H38.1883L41.9083 30.656C41.9883 30.528 42.1003 30.424 42.2443 30.344C42.3883 30.248 42.5723 30.2 42.7963 30.2H45.7003C45.8603 30.2 45.9803 30.256 46.0603 30.368C46.1563 30.464 46.2043 30.576 46.2043 30.704C46.2043 30.8 46.1723 30.896 46.1083 30.992L41.6203 38.288L46.5643 46.184C46.5963 46.248 46.6123 46.336 46.6123 46.448C46.6123 46.608 46.5563 46.744 46.4443 46.856C46.3483 46.952 46.2283 47 46.0843 47H43.0843C42.8443 47 42.6683 46.952 42.5563 46.856C42.4443 46.744 42.3563 46.648 42.2923 46.568L38.3323 40.208H36.4123V46.4C36.4123 46.576 36.3563 46.72 36.2443 46.832C36.1323 46.944 35.9883 47 35.8123 47H33.1963ZM58.7869 35.648C58.6589 35.648 58.5469 35.608 58.4509 35.528C58.3709 35.432 58.3309 35.32 58.3309 35.192C58.3309 35.096 58.3549 35 58.4029 34.904L60.0589 30.608C60.1389 30.448 60.2349 30.304 60.3469 30.176C60.4749 30.032 60.6589 29.96 60.8989 29.96H62.3389C62.4829 29.96 62.5949 30.016 62.6749 30.128C62.7709 30.224 62.8029 30.352 62.7709 30.512L62.0989 34.856C62.0669 35.064 61.9869 35.248 61.8589 35.408C61.7309 35.568 61.5389 35.648 61.2829 35.648H58.7869ZM53.8669 35.648C53.7389 35.648 53.6269 35.608 53.5309 35.528C53.4509 35.432 53.4109 35.32 53.4109 35.192C53.4109 35.096 53.4349 35 53.4829 34.904L55.1629 30.608C55.2269 30.448 55.3149 30.304 55.4269 30.176C55.5549 30.032 55.7389 29.96 55.9789 29.96H57.4189C57.5629 29.96 57.6749 30.016 57.7549 30.128C57.8509 30.224 57.8829 30.352 57.8509 30.512L57.1789 34.856C57.1629 35.064 57.0829 35.248 56.9389 35.408C56.8109 35.568 56.6189 35.648 56.3629 35.648H53.8669ZM76.6866 47C76.5106 47 76.3666 46.944 76.2546 46.832C76.1426 46.72 76.0866 46.576 76.0866 46.4V33.608H71.2626V36.224C71.2626 38.16 71.1666 39.808 70.9746 41.168C70.7826 42.512 70.4546 43.608 69.9906 44.456C69.5266 45.304 68.8866 45.936 68.0706 46.352C67.2706 46.752 66.2466 46.968 64.9986 47C64.8386 47 64.6946 46.944 64.5666 46.832C64.4546 46.704 64.3986 46.552 64.3986 46.376V44.24C64.3986 43.904 64.5826 43.704 64.9506 43.64C65.4146 43.56 65.8066 43.336 66.1266 42.968C66.4626 42.6 66.7346 42.088 66.9426 41.432C67.1666 40.76 67.3266 39.952 67.4226 39.008C67.5186 38.048 67.5666 36.96 67.5666 35.744V30.8C67.5666 30.624 67.6226 30.48 67.7346 30.368C67.8466 30.256 67.9826 30.2 68.1426 30.2H79.3026C79.4786 30.2 79.6226 30.256 79.7346 30.368C79.8466 30.48 79.9026 30.624 79.9026 30.8V46.4C79.9026 46.576 79.8466 46.72 79.7346 46.832C79.6226 46.944 79.4786 47 79.3026 47H76.6866ZM88.7597 47.24C86.9197 47.24 85.4557 46.728 84.3677 45.704C83.2957 44.68 82.7277 43.192 82.6637 41.24C82.6637 41.112 82.6637 40.944 82.6637 40.736C82.6637 40.512 82.6637 40.336 82.6637 40.208C82.7277 38.976 83.0077 37.92 83.5037 37.04C83.9997 36.144 84.6957 35.464 85.5917 35C86.4877 34.52 87.5357 34.28 88.7357 34.28C90.0797 34.28 91.1997 34.56 92.0957 35.12C93.0077 35.664 93.6877 36.416 94.1357 37.376C94.5997 38.32 94.8317 39.408 94.8317 40.64V41.192C94.8317 41.352 94.7677 41.488 94.6397 41.6C94.5277 41.712 94.3917 41.768 94.2317 41.768H86.3837C86.3837 41.784 86.3837 41.816 86.3837 41.864C86.3837 41.896 86.3837 41.928 86.3837 41.96C86.3997 42.472 86.4957 42.944 86.6717 43.376C86.8637 43.792 87.1277 44.128 87.4637 44.384C87.8157 44.64 88.2317 44.768 88.7117 44.768C89.1117 44.768 89.4397 44.712 89.6957 44.6C89.9517 44.488 90.1597 44.352 90.3197 44.192C90.4957 44.032 90.6237 43.896 90.7037 43.784C90.8477 43.624 90.9597 43.528 91.0397 43.496C91.1357 43.448 91.2797 43.424 91.4717 43.424H93.9677C94.1277 43.424 94.2557 43.472 94.3517 43.568C94.4637 43.648 94.5117 43.768 94.4957 43.928C94.4797 44.184 94.3437 44.504 94.0877 44.888C93.8477 45.256 93.4877 45.624 93.0077 45.992C92.5277 46.344 91.9277 46.64 91.2077 46.88C90.5037 47.12 89.6877 47.24 88.7597 47.24ZM86.3837 39.584H91.0877V39.536C91.0877 38.96 90.9917 38.464 90.7997 38.048C90.6237 37.616 90.3597 37.28 90.0077 37.04C89.6557 36.8 89.2317 36.68 88.7357 36.68C88.2397 36.68 87.8157 36.8 87.4637 37.04C87.1117 37.28 86.8397 37.616 86.6477 38.048C86.4717 38.464 86.3837 38.96 86.3837 39.536V39.584ZM101.023 47C100.847 47 100.703 46.944 100.591 46.832C100.479 46.72 100.423 46.576 100.423 46.4V37.352H96.6548C96.4788 37.352 96.3348 37.296 96.2228 37.184C96.1108 37.072 96.0548 36.928 96.0548 36.752V35.12C96.0548 34.944 96.1108 34.8 96.2228 34.688C96.3348 34.576 96.4788 34.52 96.6548 34.52H107.719C107.895 34.52 108.039 34.576 108.151 34.688C108.263 34.8 108.319 34.944 108.319 35.12V36.752C108.319 36.928 108.263 37.072 108.151 37.184C108.039 37.296 107.895 37.352 107.719 37.352H103.951V46.4C103.951 46.576 103.895 46.72 103.783 46.832C103.671 46.944 103.535 47 103.375 47H101.023ZM115.88 47.24C114.552 47.24 113.44 47.024 112.544 46.592C111.648 46.144 110.96 45.512 110.48 44.696C110.016 43.88 109.76 42.928 109.712 41.84C109.696 41.52 109.688 41.16 109.688 40.76C109.688 40.344 109.696 39.984 109.712 39.68C109.76 38.576 110.032 37.624 110.528 36.824C111.024 36.008 111.72 35.384 112.616 34.952C113.512 34.504 114.6 34.28 115.88 34.28C117.144 34.28 118.224 34.504 119.12 34.952C120.016 35.384 120.712 36.008 121.208 36.824C121.704 37.624 121.976 38.576 122.024 39.68C122.056 39.984 122.072 40.344 122.072 40.76C122.072 41.16 122.056 41.52 122.024 41.84C121.976 42.928 121.712 43.88 121.232 44.696C120.768 45.512 120.088 46.144 119.192 46.592C118.296 47.024 117.192 47.24 115.88 47.24ZM115.88 44.6C116.664 44.6 117.256 44.36 117.656 43.88C118.056 43.384 118.272 42.664 118.304 41.72C118.32 41.48 118.328 41.16 118.328 40.76C118.328 40.36 118.32 40.04 118.304 39.8C118.272 38.872 118.056 38.16 117.656 37.664C117.256 37.168 116.664 36.92 115.88 36.92C115.096 36.92 114.496 37.168 114.08 37.664C113.68 38.16 113.464 38.872 113.432 39.8C113.416 40.04 113.408 40.36 113.408 40.76C113.408 41.16 113.416 41.48 113.432 41.72C113.464 42.664 113.68 43.384 114.08 43.88C114.496 44.36 115.096 44.6 115.88 44.6ZM129.502 35.648C129.374 35.648 129.262 35.6 129.166 35.504C129.086 35.392 129.054 35.264 129.07 35.12L129.766 30.752C129.798 30.544 129.878 30.36 130.006 30.2C130.134 30.04 130.326 29.96 130.582 29.96H133.078C133.206 29.96 133.31 30.008 133.39 30.104C133.47 30.2 133.51 30.304 133.51 30.416C133.51 30.528 133.494 30.624 133.462 30.704L131.782 35.024C131.718 35.184 131.622 35.328 131.494 35.456C131.382 35.584 131.198 35.648 130.942 35.648H129.502ZM124.606 35.648C124.462 35.648 124.35 35.6 124.27 35.504C124.19 35.392 124.158 35.264 124.174 35.12L124.846 30.752C124.878 30.544 124.958 30.36 125.086 30.2C125.214 30.04 125.406 29.96 125.662 29.96H128.158C128.286 29.96 128.39 30.008 128.47 30.104C128.566 30.2 128.614 30.304 128.614 30.416C128.614 30.528 128.59 30.624 128.542 30.704L126.862 35.024C126.798 35.184 126.702 35.328 126.574 35.456C126.462 35.584 126.286 35.648 126.046 35.648H124.606Z" fill="#0A1A14"/>
</svg>
