<svg width="67" height="30" viewBox="0 0 67 30" fill="none" xmlns="http://www.w3.org/2000/svg">
<path d="M1.72 29C1.42667 29 1.18667 28.9067 1 28.72C0.813333 28.5333 0.72 28.2933 0.72 28V25.6C0.72 25.3867 0.773333 25.1067 0.88 24.76C1.01333 24.3867 1.29333 24.0267 1.72 23.68L7 18.44C8.94667 16.9467 10.52 15.68 11.72 14.64C12.9467 13.6 13.8533 12.6533 14.44 11.8C15.0267 10.9467 15.32 10.12 15.32 9.32C15.32 8.28 15.0267 7.42667 14.44 6.76C13.88 6.06667 12.96 5.72 11.68 5.72C10.8267 5.72 10.1067 5.90667 9.52 6.28C8.96 6.62667 8.52 7.09333 8.2 7.68C7.88 8.26666 7.66667 8.90667 7.56 9.6C7.48 9.94667 7.30667 10.1867 7.04 10.32C6.8 10.4533 6.54667 10.52 6.28 10.52H2.04C1.77333 10.52 1.56 10.44 1.4 10.28C1.24 10.0933 1.16 9.89333 1.16 9.68C1.18667 8.45333 1.44 7.29333 1.92 6.2C2.42667 5.10667 3.13333 4.13333 4.04 3.28C4.94667 2.42667 6.04 1.76 7.32 1.28C8.6 0.773333 10.0533 0.52 11.68 0.52C13.92 0.52 15.8 0.893333 17.32 1.64C18.84 2.36 19.9867 3.36 20.76 4.64C21.5333 5.92 21.92 7.4 21.92 9.08C21.92 10.36 21.6533 11.5467 21.12 12.64C20.6133 13.7333 19.8667 14.7867 18.88 15.8C17.8933 16.7867 16.72 17.8133 15.36 18.88L10.64 23.6H21.52C21.8133 23.6 22.0533 23.6933 22.24 23.88C22.4267 24.0667 22.52 24.3067 22.52 24.6V28C22.52 28.2933 22.4267 28.5333 22.24 28.72C22.0533 28.9067 21.8133 29 21.52 29H1.72ZM27.1256 19.56C26.859 19.56 26.6323 19.4667 26.4456 19.28C26.259 19.0933 26.1656 18.8667 26.1656 18.6V15.4C26.1656 15.1333 26.259 14.9067 26.4456 14.72C26.6323 14.5333 26.859 14.44 27.1256 14.44H39.5656C39.8323 14.44 40.059 14.5333 40.2456 14.72C40.4323 14.9067 40.5256 15.1333 40.5256 15.4V18.6C40.5256 18.8667 40.4323 19.0933 40.2456 19.28C40.059 19.4667 39.8323 19.56 39.5656 19.56H27.1256ZM55.1184 29.4C53.1451 29.4 51.4518 29.16 50.0384 28.68C48.6251 28.2 47.4651 27.5867 46.5584 26.84C45.6518 26.0933 44.9718 25.28 44.5184 24.4C44.0651 23.4933 43.8251 22.6267 43.7984 21.8C43.7984 21.56 43.8784 21.36 44.0384 21.2C44.1984 21.04 44.3984 20.96 44.6384 20.96H49.0384C49.3318 20.96 49.5718 21.0267 49.7584 21.16C49.9451 21.2667 50.1184 21.4667 50.2784 21.76C50.4918 22.3733 50.8384 22.8667 51.3184 23.24C51.7984 23.6133 52.3584 23.88 52.9984 24.04C53.6651 24.1733 54.3718 24.24 55.1184 24.24C56.6118 24.24 57.7851 23.8933 58.6384 23.2C59.4918 22.5067 59.9184 21.5333 59.9184 20.28C59.9184 19 59.5184 18.08 58.7184 17.52C57.9184 16.96 56.7851 16.68 55.3184 16.68H51.0384C50.7718 16.68 50.5451 16.5867 50.3584 16.4C50.1718 16.2133 50.0784 15.9867 50.0784 15.72V13.76C50.0784 13.44 50.1318 13.1733 50.2384 12.96C50.3718 12.7467 50.5051 12.5867 50.6384 12.48L57.5184 6.16H46.2384C45.9451 6.16 45.7051 6.06667 45.5184 5.88C45.3318 5.69333 45.2384 5.46667 45.2384 5.2V2C45.2384 1.70667 45.3318 1.46667 45.5184 1.28C45.7051 1.09333 45.9451 0.999998 46.2384 0.999998H63.9984C64.2918 0.999998 64.5318 1.09333 64.7184 1.28C64.9051 1.46667 64.9984 1.70667 64.9984 2V4.88C64.9984 5.17333 64.9451 5.42667 64.8384 5.64C64.7318 5.82667 64.5984 5.97333 64.4384 6.08L57.9184 12.52L58.3184 12.56C59.8918 12.72 61.2918 13.1067 62.5184 13.72C63.7451 14.3333 64.7051 15.2133 65.3984 16.36C66.1184 17.48 66.4784 18.9067 66.4784 20.64C66.4784 22.4533 65.9851 24.0133 64.9984 25.32C64.0118 26.6267 62.6651 27.64 60.9584 28.36C59.2518 29.0533 57.3051 29.4 55.1184 29.4Z" fill="#0A1A14"/>
</svg>
