<svg width="40" height="40" viewBox="0 0 40 40" fill="none" xmlns="http://www.w3.org/2000/svg">
<mask id="mask0_824_2741" style="mask-type:luminance" maskUnits="userSpaceOnUse" x="0" y="0" width="40" height="40">
<path d="M39.8022 0H0.198242V40H39.8022V0Z" fill="white"/>
</mask>
<g mask="url(#mask0_824_2741)">
<path fill-rule="evenodd" clip-rule="evenodd" d="M2.98218 2.81178C0.198242 5.62356 0.198242 10.149 0.198242 19.2V20.8C0.198242 29.851 0.198242 34.3764 2.98218 37.1882C5.76612 40 10.2468 40 19.2081 40H20.7923C29.7536 40 34.2343 40 37.0183 37.1882C39.8022 34.3764 39.8022 29.851 39.8022 20.8V19.2C39.8022 10.149 39.8022 5.62356 37.0183 2.81178C34.2343 0 29.7536 0 20.7923 0H19.2081C10.2468 0 5.76612 0 2.98218 2.81178ZM6.88149 12.1668C7.09598 22.5668 12.2445 28.8167 21.2709 28.8167H21.7825V22.8667C25.0994 23.2 27.6074 25.6501 28.614 28.8167H33.3006C32.0135 24.0834 28.6305 21.4667 26.5183 20.4667C28.6305 19.2334 31.6008 16.2334 32.3104 12.1668H28.0528C27.1287 15.4668 24.3898 18.4667 21.7825 18.75V12.1668H17.5249V23.7C14.8847 23.0334 11.5514 19.8001 11.4029 12.1668H6.88149Z" fill="black"/>
</g>
</svg>
