<svg width="56" height="56" viewBox="0 0 56 56" fill="none" xmlns="http://www.w3.org/2000/svg">
<mask id="mask0_724_681" style="mask-type:luminance" maskUnits="userSpaceOnUse" x="0" y="0" width="56" height="56">
<path d="M55.7229 0H0.277344V56H55.7229V0Z" fill="white"/>
</mask>
<g mask="url(#mask0_724_681)">
<path fill-rule="evenodd" clip-rule="evenodd" d="M4.17485 3.93649C0.277344 7.87298 0.277344 14.2087 0.277344 26.88V29.12C0.277344 41.7913 0.277344 48.127 4.17485 52.0635C8.07238 56 14.3453 56 26.8912 56H29.109C41.6549 56 47.9279 56 51.8254 52.0635C55.7229 48.127 55.7229 41.7913 55.7229 29.12V26.88C55.7229 14.2087 55.7229 7.87298 51.8254 3.93649C47.9279 0 41.6549 0 29.109 0H26.8912C14.3453 0 8.07238 0 4.17485 3.93649ZM9.63389 17.0335C9.93418 31.5935 17.142 40.3434 29.779 40.3434H30.4953V32.0134C35.1389 32.4801 38.6502 35.9101 40.0594 40.3434H46.6207C44.8187 33.7168 40.0825 30.0534 37.1254 28.6534C40.0825 26.9268 44.2409 22.7268 45.2343 17.0335H39.2738C37.98 21.6535 34.1455 25.8534 30.4953 26.2501V17.0335H24.5347V33.1801C20.8384 32.2468 16.1718 27.7201 15.9639 17.0335H9.63389Z" fill="black"/>
</g>
</svg>
