<svg width="658" height="128" viewBox="0 0 658 128" fill="none" xmlns="http://www.w3.org/2000/svg">
<path d="M0 0H590V128H0V0Z" fill="#E83E24"/>
<path d="M217.213 78H211.733L200.693 64.68V78H196.093V50H200.693V62.56L211.333 50H216.813L205.493 63.64L217.213 78ZM241.212 74.32C238.412 77.12 234.985 78.52 230.932 78.52C226.878 78.52 223.438 77.12 220.612 74.32C217.812 71.4933 216.412 68.0533 216.412 64C216.412 59.9467 217.812 56.52 220.612 53.72C223.438 50.8933 226.878 49.48 230.932 49.48C234.985 49.48 238.412 50.8933 241.212 53.72C244.038 56.52 245.452 59.9467 245.452 64C245.452 68.0533 244.038 71.4933 241.212 74.32ZM223.852 71.2C225.772 73.0933 228.132 74.04 230.932 74.04C233.732 74.04 236.078 73.0933 237.972 71.2C239.892 69.28 240.852 66.88 240.852 64C240.852 61.12 239.892 58.7333 237.972 56.84C236.078 54.92 233.732 53.96 230.932 53.96C228.132 53.96 225.772 54.92 223.852 56.84C221.958 58.7333 221.012 61.12 221.012 64C221.012 66.88 221.958 69.28 223.852 71.2ZM266.248 50H270.848V78H266.248V65.88H254.248V78H249.648V50H254.248V61.48H266.248V50ZM294.645 50V54.4H286.765V78H282.165V54.4H274.245V50H294.645ZM314.294 78L312.334 72.36H300.414L298.454 78H293.454L303.614 50H309.134L319.254 78H314.294ZM301.934 68.04H310.814L306.374 55.4L301.934 68.04ZM343.385 78H337.905L326.865 64.68V78H322.265V50H326.865V62.56L337.505 50H342.985L331.665 63.64L343.385 78ZM364.566 50V54.4H356.686V78H352.086V54.4H344.166V50H364.566ZM367.968 78V50H372.568V59.6H378.288C380.928 59.6 383.128 60.4933 384.888 62.28C386.675 64.04 387.568 66.2133 387.568 68.8C387.568 71.3867 386.675 73.5733 384.888 75.36C383.128 77.12 380.928 78 378.288 78H367.968ZM390.288 78V50H394.888V78H390.288ZM372.568 73.68H378.288C379.648 73.68 380.768 73.2267 381.648 72.32C382.528 71.3867 382.968 70.2133 382.968 68.8C382.968 67.3867 382.528 66.2267 381.648 65.32C380.768 64.3867 379.648 63.92 378.288 63.92H372.568V73.68Z" fill="white"/>
<path d="M639.548 109.255C630.737 118.205 619.511 124.301 607.291 126.77C595.07 129.24 582.403 127.972 570.891 123.128C559.379 118.284 549.54 110.081 542.617 99.5565C535.695 89.0318 532 76.658 532 64C532 51.342 535.695 38.9683 542.617 28.4435C549.54 17.9188 559.379 9.71572 570.891 4.87171C582.403 0.0277029 595.07 -1.23971 607.291 1.22974C619.511 3.69919 630.737 9.7946 639.548 18.7452L595 64L639.548 109.255Z" fill="#FFC700"/>
</svg>
